<svg xmlns:inkscape="http://www.inkscape.org/namespaces/inkscape" xmlns:sodipodi="http://sodipodi.sourceforge.net/DTD/sodipodi-0.dtd" xmlns:xlink="http://www.w3.org/1999/xlink" height="280" style="fill: none; stroke: none" version="1.1" viewBox="0 0 284 280" width="284" xmlns="http://www.w3.org/2000/svg" inkscape:export-xdpi="96" inkscape:export-ydpi="96"><defs /><sodipodi:namedview bordercolor="#666666" borderlayer="true" pagecolor="#ffffff" inkscape:pagecheckerboard="true" /><g id="g_1" style="" transform="matrix(1.0, 0.0, 0.0, 1.0, 0.0, 0.0)" inkscape:groupmode="layer" inkscape:label="ShapeLayer"><g id="stroke"><use style="stroke:rgb(239, 187, 47);stroke-opacity:1.0;stroke-width:1.0;stroke-miterlimit:0.0;stroke-linecap:round;stroke-linejoin:round" xlink:href="#g_2" /><g id="g_2" style="fill-opacity:1.0;fill:rgb(239, 187, 47)" transform="matrix(1.0, 0.0, 0.0, 1.0, 0.0, 0.0)"><path d="M 158.137,124.631 C 152.694,122.661 146.944,117.119 144.26,111.256 C 137.809,97.166 145.199,81.031 160.394,76.031 C 165.106,74.48 173.46099999999998,75.176 178.426,77.532 C 198.12699999999998,86.881 197.4,116.12100000000001 177.257,124.537 C 173.08100000000002,126.28200000000001 162.838,126.332 158.137,124.631 Z" style="fill-opacity:1.0;fill:rgb(239, 187, 47)" /></g></g><g id="g_4"><use style="stroke:rgb(15, 158, 143);stroke-opacity:1.0;stroke-width:1.0;stroke-miterlimit:0.0;stroke-linecap:round;stroke-linejoin:round" xlink:href="#g_3" /><g id="g_3" style="fill-opacity:1.0;fill:rgb(15, 158, 143)" transform="matrix(1.0, 0.0, 0.0, 1.0, 0.0, 0.0)"><path d="M 0,219.223 C 0,150.51000000000002 -0.9399999999999995,158.03900000000002 8.938,147.651 C 19.786,136.244 35.946,126.738 59.235,118.063 C 66.71,115.279 73.299,113 73.878,113 C 74.457,113 76.858,112.35000000000001 79.215,111.555 C 88.559,108.403 135.367,102.776 139.392,104.32 C 140.326,104.67899999999999 141,106.08200000000001 141,107.67 C 141,111.962 146.628,120.235 152.077,123.954 C 156.608,127.04599999999999 157.922,127.386 170.231,128.654 C 194.043,131.106 209.143,131.929 231,131.967 C 231,131.967 252.5,132.004 252.5,132.004 C 252.5,132.004 259.442,136.567 259.442,136.567 C 268.204,142.327 272.4,145.95 277.75,152.379 C 277.75,152.379 282,157.486 282,157.486 C 282,157.486 282,190.148 282,190.148 C 282,190.148 282,222.811 282,222.811 C 282,222.811 278.75,226.655 278.75,226.655 C 259.37,249.58 219.768,267.90400000000005 173,275.583 C 167.949,276.41200000000003 164.04999999999998,277.59099999999995 163.39,278.489 C 162.416,279.815 152.35899999999998,280 81.14,280 C 81.14,280 0,280 0,280 C 0,280 0,219.223 0,219.223 Z" style="fill-opacity:1.0;fill:rgb(15, 158, 143)" /></g></g><g id="g_6"><use style="stroke:rgb(28, 136, 119);stroke-opacity:1.0;stroke-width:1.0;stroke-miterlimit:0.0;stroke-linecap:round;stroke-linejoin:round" xlink:href="#g_5" /><g id="g_5" style="fill-opacity:1.0;fill:rgb(28, 136, 119)" transform="matrix(1.0, 0.0, 0.0, 1.0, 0.0, 0.0)"><path d="M 87,108.944 C 89.605,107.833 106.71300000000001,105.016 110.917,105.006 C 115.97200000000001,104.994 111.92500000000001,106.058 101.415,107.506 C 95.411,108.333 89.15,109.235 87.5,109.51 C 84.594,109.994 84.579,109.977 87,108.944 Z&#10;M 192.207,112 C 192.439,110.026 193.131,109.44500000000001 195.5,109.239 C 199.21,108.917 202.171,110.56700000000001 200.185,111.849 C 199.462,112.316 197.727,112.479 196.329,112.212 C 194.805,111.921 193.412,112.281 192.85,113.113 C 192.167,114.123 191.993,113.821 192.207,112 Z&#10;M 233.5,122.767 C 232.4,122.12299999999999 229.025,120.54 226,119.251 C 221.737,117.43400000000001 221.27900000000002,117.059 223.967,117.581 C 225.87400000000002,117.95100000000001 228.12400000000002,118.60900000000001 228.967,119.043 C 229.81,119.477 232.188,120.56599999999999 234.25,121.463 C 236.312,122.36 238,123.547 238,123.547 C 238,124.381 235.521,123.951 233.5,122.767 Z&#10;M 163.243,128.015 C 155.213,127.10199999999999 148.44,122.679 144.096,115.512 C 141.094,110.558 139.965,106.242 142,107.5 C 142.55,107.84 143,108.951 143,109.969 C 143,112.931 150.644,121.777 155.22,124.112 C 157.528,125.289 163.26,126.814 167.958,127.5 C 177.075,128.831 173.68,129.202 163.243,128.015 Z&#10;M 279.742,154.729 C 276.79200000000003,150.227 267.93100000000004,142.137 260.617,137.268 C 254.69600000000003,133.326 252.49099999999999,132.43599999999998 247.5,131.974 C 247.5,131.974 241.5,131.419 241.5,131.419 C 241.5,131.419 247,130.944 247,130.944 C 252.23,130.492 252.848,130.701 259.569,135.186 C 268.231,140.966 282.426,154.222 281.839,155.984 C 281.562,156.81400000000002 280.81600000000003,156.36800000000002 279.742,154.729 Z&#10;M 0,157.23 C 0,154.213 13.361999999999998,141.31 23.586,134.455 C 33.286,127.95100000000001 49.551,120.03899999999999 61.574,115.975 C 74.589,111.576 72.904,113.09100000000001 59.292,118.028 C 37.261,126.018 19.668,136.36800000000002 8.938,147.651 C 5.8790000000000004,150.86800000000002 2.616,154.613 1.688,155.973 C 0.7599999999999999,157.33300000000003 0,157.898 0,157.23 Z" style="fill-opacity:1.0;fill:rgb(28, 136, 119)" /></g></g><g id="g_8"><use style="stroke:rgb(69, 46, 84);stroke-opacity:1.0;stroke-width:1.0;stroke-miterlimit:0.0;stroke-linecap:round;stroke-linejoin:round" xlink:href="#g_7" /><g id="g_7" style="fill-opacity:1.0;fill:rgb(69, 46, 84)" transform="matrix(1.0, 0.0, 0.0, 1.0, 0.0, 0.0)"><path d="M 263,22.231 C 263,22.231 266.488,21.602 270.75,21.774 C 282.677,22.255000000000003 283.519,22.714000000000002 272.75,22.864 C 267.387,22.939 263,22.231 263,22.231 Z&#10;M 243.287,22.26 C 246.47,22.061 251.42000000000002,22.063 254.287,22.264 C 257.154,22.465 254.55,22.628 248.5,22.626 C 242.45,22.624000000000002 240.104,22.459000000000003 243.287,22.26 Z&#10;M 118.25,22.261 C 121.412,22.063 126.587,22.063 129.75,22.261 C 132.912,22.459 130.325,22.622 124,22.622 C 117.675,22.622 115.087,22.459 118.25,22.261 Z&#10;M 28.292,22.258 C 32.027,22.064999999999998 37.877,22.066 41.292,22.261 C 44.707,22.456 41.65,22.613 34.5,22.611 C 27.35,22.609 24.557000000000002,22.451 28.292,22.258 Z&#10;M 19.183,30.8 C 19.183,30.8 19,23.1 19,23.1 C 19,23.1 13.25,22.739 13.25,22.739 C 13.25,22.739 7.5,22.378 7.5,22.378 C 7.5,22.378 13.217,22.189 13.217,22.189 C 13.217,22.189 18.934,22 18.934,22 C 18.934,22 19.221,10.75 19.221,10.75 C 19.221,10.75 19.508,-0.5 19.508,-0.5 C 19.508,-0.5 20.004,11 20.004,11 C 20.277,17.325 20.245,26.1 19.933,30.5 C 19.933,30.5 19.367,38.5 19.367,38.5 C 19.367,38.5 19.183,30.8 19.183,30.8 Z&#10;M 171.965,53.111 C 171.663,47.87 172.14399999999998,0.522 172.503,0.163 C 172.503,0.163 173,4.654 173,10.75 C 173,18.681 173.356,21.977 174.25,22.338 C 175.25,22.742 175.25,22.858 174.25,22.921 C 173.311,22.98 173,26.594 173,37.43 C 173,51.625 173.037,51.866 175.25,52.21 C 177.304,52.529 177.261,52.61 174.75,53.141 C 173.238,53.461 171.965,53.111 171.965,53.111 Z&#10;M 141.365,67.5 C 141.368,62.0 141.535,59.878 141.738,62.784 C 141.941,65.69 141.93900000000002,70.19000000000001 141.734,72.784 C 141.529,75.378 141.36200000000002,73.0 141.365,67.5 Z&#10;M 60.75,83.26 C 64.188,83.06500000000001 69.812,83.06500000000001 73.25,83.26 C 76.688,83.455 73.875,83.615 67,83.615 C 60.125,83.615 57.312,83.455 60.75,83.26 Z&#10;M 79.965,80.917 C 79.891,20.759 80.024,0.642 80.503,0.163 C 80.503,0.163 81,4.691 81,10.833 C 81,10.833 81,22 81,22 C 81,22 95.967,22 95.967,22 C 95.967,22 110.934,22 110.934,22 C 110.934,22 111.253,10.75 111.253,10.75 C 111.428,4.562 111.668,22.863000000000003 111.786,51.417 C 111.904,79.971 111.495,102.828 111.495,102.828 C 111.495,102.828 110.978,84.475 110.964,62.661 C 110.964,62.661 110.938,23 110.938,23 C 110.938,23 96.001,23 96.001,23 C 96.001,23 81.063,23 81.063,23 C 81.063,23 81.034,65.664 81.034,65.664 C 81.018,89.129 80.502,108.831 80.502,108.831 C 80.502,108.831 79.98400000000001,96.546 79.965,80.917 Z&#10;M 233,117.23 C 233,114.47800000000001 232.632,114.081 229.75,113.723 C 229.75,113.723 226.5,113.32 226.5,113.32 C 226.5,113.32 229.75,113.16 229.75,113.16 C 229.75,113.16 233,113 233,113 C 233,113 233,98.5 233,98.5 C 233,98.5 233,84 233,84 C 233,84 218,84 218,84 C 218,84 203,84 203,84 C 203,84 203,96.667 203,96.667 C 203,103.634 202.474,108.807 202.474,108.807 C 202.474,108.807 201.952,89.106 201.956,65.67 C 201.956,65.67 201.963,23.058 201.963,23.058 C 201.963,23.058 188.732,22.747 188.732,22.747 C 188.732,22.747 175.5,22.437 175.5,22.437 C 175.5,22.437 188.75,22.218 188.75,22.218 C 188.75,22.218 202,22 202,22 C 202,22 202,10.833 202,10.833 C 202,4.691 202.528,0.194 202.528,0.194 C 202.528,0.194 203.041,19.234999999999996 203.023,41.861 C 203.023,41.861 202.991,83 202.991,83 C 202.991,83 217.98,83 217.98,83 C 217.98,83 232.97,83 232.97,83 C 232.97,83 232.968,53.028 232.968,53.028 C 232.968,53.028 232.967,23.056 232.967,23.056 C 232.967,23.056 219.233,22.747 219.233,22.747 C 219.233,22.747 205.5,22.439 205.5,22.439 C 205.5,22.439 219.25,22.219 219.25,22.219 C 219.25,22.219 233,22 233,22 C 233,22 233,10.833 233,10.833 C 233,4.691 233.509,0.176 233.509,0.176 C 234.194,0.861 234.224,119.11 233.539,119.795 C 233.539,119.795 233,118.937 233,117.23 Z&#10;M 0.425,103 C 0.425,91.175 0.569,86.338 0.746,92.25 C 0.923,98.162 0.923,107.837 0.746,113.75 C 0.569,119.663 0.425,114.825 0.425,103 Z&#10;M 175,125.981 C 175,125.981 176.012,124.827 177.25,124.451 C 183.07,122.68299999999999 191.97799999999998,112.488 192.015,107.554 C 192.02599999999998,106.025 192.25,105.846 192.888,106.852 C 195.019,110.215 184.873,123.121 178.1,125.663 C 176.39499999999998,126.303 175,125.981 175,125.981 Z" style="fill-opacity:1.0;fill:rgb(69, 46, 84)" /></g></g><g id="g_10"><use style="stroke:rgb(15, 123, 111);stroke-opacity:1.0;stroke-width:1.0;stroke-miterlimit:0.0;stroke-linecap:round;stroke-linejoin:round" xlink:href="#g_9" /><g id="g_9" style="fill-opacity:1.0;fill:rgb(15, 123, 111)" transform="matrix(1.0, 0.0, 0.0, 1.0, 0.0, 0.0)"><path d="M 199.5,130.888 C 183.957,129.931 165.731,127.327 173.167,127.126 C 175.734,127.05600000000001 177.99,126.53 178.181,125.956 C 178.372,125.382 179.505,124.83800000000001 180.696,124.748 C 181.887,124.658 182.71,124.042 182.71,124.042 C 182.71,124.042 184.457,121.605 186.779,119.289 C 189.101,116.973 191,114.584 191,113.98 C 191,113.376 191.45,113.16 192,113.5 C 192.55,113.84 193,113.628 193,113.028 C 193,112.4 194.51100000000002,112.039 196.562,112.177 C 198.52100000000002,112.30900000000001 200.445,111.89699999999999 200.838,111.261 C 201.273,110.557 202.09300000000002,110.439 202.936,110.96 C 203.697,111.42999999999999 204.995,111.556 205.823,111.238 C 206.80200000000002,110.862 207.076,111.06899999999999 206.606,111.829 C 206.148,112.57 206.54600000000002,112.93900000000001 207.692,112.84 C 208.686,112.754 210.625,112.761 212,112.857 C 214.056,113.0 214.233,113.22 213,114.094 C 211.825,114.92599999999999 212.09,115.063 214.22,114.723 C 215.716,114.484 216.702,114.673 216.412,115.143 C 216.122,115.613 216.698,115.926 217.692,115.84 C 218.686,115.754 220.4,115.761 221.5,115.857 C 223.199,116.005 223.274,116.19200000000001 222,117.102 C 220.795,117.96300000000001 220.942,118.07600000000001 222.751,117.68 C 223.989,117.409 224.75,117.59400000000001 224.442,118.093 C 223.871,119.01700000000001 225.908,119.44500000000001 229.5,119.155 C 230.861,119.045 231.09900000000002,119.25399999999999 230.245,119.809 C 228.44,120.981 235.647,124.247 238.23,123.427 C 239.563,123.004 240.02,123.158 239.573,123.881 C 239.149,124.568 239.475,124.75500000000001 240.448,124.382 C 241.469,123.99000000000001 242,124.358 242,125.456 C 242,126.49300000000001 242.664,127.01299999999999 243.75,126.829 C 244.713,126.666 245.644,126.97500000000001 245.821,127.516 C 246.299,128.979 248.87300000000002,130.196 250.008,129.495 C 250.554,129.15800000000002 251,129.293 251,129.796 C 251,131.95399999999998 225.583,132.493 199.5,130.888 Z&#10;M 165,279.035 C 165,277.427 168.27,276.192 174.032,275.623 C 179.167,275.116 192.794,272.155 199.5,270.089 C 201.15,269.581 204.075,268.843 206,268.451 C 210.052,267.625 222.816,263.033 231.5,259.278 C 250.297,251.15000000000003 265.298,241.494 275.419,231.011 C 275.419,231.011 282,224.194 282,224.194 C 282,224.194 282,252.097 282,252.097 C 282,252.097 282,280 282,280 C 282,280 223.5,280 223.5,280 C 186.589,280 165,279.644 165,279.035 Z" style="fill-opacity:1.0;fill:rgb(15, 123, 111)" /></g></g><g id="g_12"><use style="stroke:rgb(56, 37, 76);stroke-opacity:1.0;stroke-width:1.0;stroke-miterlimit:0.0;stroke-linecap:round;stroke-linejoin:round" xlink:href="#g_11" /><g id="g_11" style="fill-opacity:1.0;fill:rgb(56, 37, 76)" transform="matrix(1.0, 0.0, 0.0, 1.0, 0.0, 0.0)"><path d="M 213.287,21.26 C 216.47,21.061 221.42000000000002,21.063 224.287,21.264 C 227.154,21.465 224.55,21.628 218.5,21.626 C 212.45,21.624000000000002 210.104,21.459000000000003 213.287,21.26 Z&#10;M 81.212,10.75 C 81.212,10.75 81.425,-0.5 81.425,-0.5 C 81.425,-0.5 81.746,10.25 81.746,10.25 C 81.746,10.25 82.068,21 82.068,21 C 82.068,21 96,21 96,21 C 96,21 109.932,21 109.932,21 C 109.932,21 110.254,10.25 110.254,10.25 C 110.254,10.25 110.575,-0.5 110.575,-0.5 C 110.575,-0.5 110.788,10.75 110.788,10.75 C 110.788,10.75 111,22 111,22 C 111,22 96,22 96,22 C 96,22 81,22 81,22 C 81,22 81.212,10.75 81.212,10.75 Z&#10;M 5,21.985 C 9.548,21.139 19.686,20.689 18.917,21.367 C 18.917,21.367 14.45,21.979 9.5,22.278 C 3.157,22.660999999999998 1.8279999999999998,22.575 5,21.985 Z&#10;M 78.677,23.343 C 78.316,22.982 72.35799999999999,22.786 65.439,22.907 C 56.90599999999999,23.057 52.399,22.746 51.429,21.941 C 50.410000000000004,21.095 49.631,21.061 48.716,21.82 C 47.862,22.529 46.942,22.556 45.966,21.901 C 44.789,21.111 44.894,20.973999999999997 46.5,21.208 C 48.379,21.482 48.516999999999996,20.852 48.784,10.75 C 49.153,-3.215 51,-3.474 51,10.439 C 51,10.439 51,20.877 51,20.877 C 51,20.877 55.331,21.527 55.331,21.527 C 57.713,21.884 64.164,21.932 69.665,21.633 C 78.00200000000001,21.18 79.667,21.332 79.667,22.545 C 79.667,24.195 79.59,24.256 78.677,23.343 Z&#10;M 0.365,39.5 C 0.368,34.0 0.5349999999999999,31.878 0.738,34.784 C 0.9410000000000001,37.69 0.939,42.19 0.734,44.784 C 0.529,47.378 0.362,45.0 0.365,39.5 Z&#10;M 140.777,37.759 C 140.777,37.759 140.5,23.517 140.5,23.517 C 140.5,23.517 137.5,22.923 137.5,22.923 C 137.5,22.923 134.5,22.329 134.5,22.329 C 134.5,22.329 137.5,21.915 137.5,21.915 C 137.5,21.915 140.5,21.5 140.5,21.5 C 140.5,21.5 140.784,10.75 140.784,10.75 C 141.16199999999998,-3.5489999999999995 143,-3.3409999999999993 143,11 C 143,17.05 142.25,21.75 142.25,21.75 C 142.25,21.75 141.5,21.95 141.5,22.5 C 141.5,23.05 142.25,23.25 142.25,23.25 C 142.25,23.25 143,29.525 143,37.5 C 143,56.66 141.149,56.876000000000005 140.777,37.759 Z&#10;M 0.392,69 C 0.392,61.575 0.55,58.538 0.742,62.25 C 0.9339999999999999,65.963 0.9339999999999999,72.037 0.742,75.75 C 0.55,79.463 0.392,76.425 0.392,69 Z&#10;M 231.768,74.252 C 232.243,58.717999999999996 232.646,57.191 232.825,70.25 C 232.921,77.263 232.25,83.002 232.25,83.002 C 232.25,83.002 231.621,79.066 231.768,74.252 Z&#10;M 203.22,41.25 C 203.346,18.287 203.59,4.199 203.762,9.942 C 203.934,15.685 204.563,20.973 205.16,21.692 C 205.944,22.637 205.93300000000002,23 205.122,23 C 204.34400000000002,23 204,27.453 204,37.528 C 204,37.528 204,52.056 204,52.056 C 204,52.056 217.75,51.778 217.75,51.778 C 217.75,51.778 231.5,51.5 231.5,51.5 C 231.5,51.5 232.113,47.5 232.113,47.5 C 232.608,44.269 232.724,44.75 232.713,50 C 232.70499999999998,53.575 232.504,55.937 232.266,55.25 C 231.94799999999998,54.331 228.153,54 217.917,54 C 217.917,54 204,54 204,54 C 204,54 204,67.937 204,67.937 C 204,67.937 204,81.873 204,81.873 C 204,81.873 207.25,82.277 207.25,82.277 C 210.447,82.674 210.43800000000002,82.683 206.746,82.84 C 206.746,82.84 202.992,83 202.992,83 C 202.992,83 203.22,41.25 203.22,41.25 Z&#10;M 143.019,82.523 C 142.154,81.481 141.71200000000002,76.80199999999999 141.626,67.749 C 141.626,67.749 141.5,54.5 141.5,54.5 C 141.5,54.5 126.75,54.223 126.75,54.223 C 115.941,54.019999999999996 111.99900000000001,53.619 111.998,52.723 C 111.99600000000001,51.125 138.792,51.582 140.758,53.214 C 141.727,54.018 142.396,54.004 143.242,53.158 C 144.003,52.397 148.959,52 157.7,52 C 157.7,52 171,52 171,52 C 171,52 171,37.528 171,37.528 C 171,37.528 171,23.056 171,23.056 C 171,23.056 157.25,22.748 157.25,22.748 C 157.25,22.748 143.5,22.439 143.5,22.439 C 143.5,22.439 157.217,22.219 157.217,22.219 C 157.217,22.219 170.934,22 170.934,22 C 170.934,22 171.256,10.75 171.256,10.75 C 171.433,4.562 171.65300000000002,11.65 171.746,26.5 C 171.881,48.063 172.176,53.416 173.208,53.083 C 173.919,52.854 180.601,52.403999999999996 188.058,52.083 C 199.673,51.583 201.632,51.715 201.729,53 C 201.82500000000002,54.282 199.74599999999998,54.457 187.421,54.199 C 187.421,54.199 173,53.897 173,53.897 C 173,53.897 173,63.449 173,63.449 C 173,69.14999999999999 172.597,73 172,73 C 171.404,73 171,69.167 171,63.5 C 171,63.5 171,54 171,54 C 171,54 157,54 157,54 C 157,54 143,54 143,54 C 143,54 143,67.917 143,67.917 C 143,78.146 143.331,81.952 144.25,82.28 C 144.938,82.526 144.893,83.387 144.893,83.387 C 144.893,83.387 143.715,83.362 143.019,82.523 Z&#10;M 194.5,84.073 C 190.65,83.758 187.75,82.75 187.75,82.75 C 187.75,82.75 188.5,82 188.5,82 C 188.5,82 191.85,82 195.333,82 C 200.296,82 201.667,82.325 201.667,83.5 C 201.667,84.325 201.583,84.823 201.583,84.823 C 201.583,84.823 198.35,84.38799999999999 194.5,84.073 Z&#10;M 112,83.55 C 112,82.63199999999999 112.75,82.334 112.75,82.334 C 112.75,82.334 119.688,82.497 127.251,82.143 C 134.814,81.789 141.001,82.25 141.001,82.25 C 141.001,82.25 139.312,83.035 137.25,83.079 C 127.497,83.28599999999999 119.164,83.834 115.75,84.494 C 112.625,85.098 112,84.94 112,83.55 Z&#10;M 234.3,82.81 C 234.29600000000002,80.989 234.484,80.27799999999999 234.716,81.228 C 235.101,82.80099999999999 236.38799999999998,82.89999999999999 249.069,82.323 C 258.346,81.901 263,82.032 263,82.716 C 263,83.36099999999999 257.895,83.805 249.286,83.909 C 241.209,84.007 235.311,84.496 234.939,85.098 C 234.59199999999998,85.66 234.304,84.631 234.3,82.81 Z&#10;M 110,68.5 C 110,68.5 110,54 110,54 C 110,54 96,54 96,54 C 96,54 82,54 82,54 C 82,54 82,67.971 82,67.971 C 82,67.971 82,81.942 82,81.942 C 82,81.942 95.25,82.253 95.25,82.253 C 102.537,82.424 109.25,82.782 109.25,82.782 C 109.25,82.782 110,76.475 110,68.5 Z&#10;M 80.443,109.092 C 80.752,108.592 81.11,88.905 81.239,65.342 C 81.36800000000001,41.778999999999996 81.60499999999999,29.137 81.764,37.25 C 81.764,37.25 82.053,52 82.053,52 C 82.053,52 96,52 96,52 C 96,52 109.947,52 109.947,52 C 109.947,52 110.237,37.25 110.237,37.25 C 110.39699999999999,29.137 110.631,40.34400000000001 110.758,62.154 C 110.88499999999999,83.964 111.265,102.526 111.602,103.404 C 112.03200000000001,104.524 111.66,104.97600000000001 110.357,104.921 C 109.336,104.878 108.95,104.65400000000001 109.5,104.424 C 110.119,104.165 110.31,100.292 110,94.253 C 110,94.253 109.5,84.5 109.5,84.5 C 109.5,84.5 101,83.849 101,83.849 C 96.325,83.491 90.138,83.15400000000001 87.25,83.099 C 87.25,83.099 82,83 82,83 C 82,83 82,96.5 82,96.5 C 82,105.33500000000001 81.634,110 80.941,110 C 80.35900000000001,110 80.134,109.592 80.443,109.092 Z&#10;M 201.667,110.333 C 201.3,109.966 201.00699999999998,108.954 201.015,108.083 C 201.028,106.696 201.151,106.686 202,108 C 202.654,109.012 202.97500000000002,105.351 202.985,96.75 C 202.99300000000002,89.737 203.75,83.998 203.75,83.998 C 204.609,83.99600000000001 203.804,109.54100000000001 202.917,110.421 C 202.917,110.421 202.034,110.7 201.667,110.333 Z&#10;M 234.279,113.921 C 234.374,112.679 235.158,112.468 237.95,112.933 C 239.903,113.25800000000001 246.33800000000002,113.295 252.252,113.013 C 260.22700000000003,112.63300000000001 263.003,112.81 263.002,113.699 C 263.00100000000003,114.56099999999999 258.95,114.982 248.579,115.199 C 235.93800000000002,115.463 234.173,115.305 234.279,113.921 Z&#10;M 221,115.013 C 222.235,114.045 222.059,113.92399999999999 220,114.324 C 218.625,114.591 216.6,114.434 215.5,113.975 C 212.766,112.83399999999999 224.195,112.835 229.5,113.976 C 229.5,113.976 233.5,114.836 233.5,114.836 C 233.5,114.836 228.5,114.761 228.5,114.761 C 225.75,114.72 222.6,115.024 221.5,115.437 C 219.84,116.06099999999999 219.755,115.988 221,115.013 Z&#10;M 48.498,117.623 C 48.5,115.39200000000001 48.079,114.593 47.028,114.824 C 45.866,115.08 45.918,114.748 47.278,113.245 C 48.73,111.64 49,109.203 49,97.671 C 49,87.40100000000001 49.311,84.0 50.25,83.999 C 51.203,83.99799999999999 51.422000000000004,87.09700000000001 51.17,97.049 C 50.929,106.57900000000001 51.184,110.51599999999999 52.116,111.639 C 53.167,112.905 53.135999999999996,113.141 51.946,112.97 C 48.846999999999994,112.526 47.565000000000005,112.96499999999999 48.685,114.085 C 49.465,114.865 50.631,114.725 52.835,113.585 C 55.980000000000004,111.95899999999999 60.613,111.531 63.418,112.607 C 66.243,113.691 65.089,114.88900000000001 61.743,114.346 C 56.785000000000004,113.541 51.56,115.21499999999999 51.192,117.725 C 50.68,121.22099999999999 48.495999999999995,121.138 48.498,117.623 Z&#10;M 48.78,68.269 C 48.969,59.026 49.446,54.342 50.251,53.845 C 50.906,53.44 51.056000000000004,52.746 50.584,52.304 C 50.112,51.862 49.526,52.062 49.28,52.75 C 48.717,54.325 21,54.57 21,53 C 21,52.45 20.212,52.01499999999999 19.25,52.032 C 17.583,52.062 17.583,52.127 19.25,53.392 C 20.771,54.547000000000004 21,56.565999999999995 21,68.853 C 21,68.853 21,82.986 21,82.986 C 21,82.986 34.75,82.472 34.75,82.472 C 34.75,82.472 48.5,81.957 48.5,81.957 C 48.5,81.957 48.78,68.269 48.78,68.269 Z&#10;M 19.128,128.206 C 19.481,122.83999999999999 19.371,118.351 18.883,118.167 C 18.397,117.984 18,117.196 18,116.417 C 18,115.368 16.587,115 12.559,115 C 4.834,115 4.5520000000000005,113.163 12.221,112.798 C 12.221,112.798 18.5,112.5 18.5,112.5 C 18.5,112.5 18.5,98.5 18.5,98.5 C 18.5,98.5 18.5,84.5 18.5,84.5 C 18.5,84.5 12.722,84.199 12.722,84.199 C 9.401,84.026 7.194,83.495 7.531,82.949 C 8.219,81.836 19.119,81.643 18.75,82.75 C 18.75,82.75 18.95,83.5 19.5,83.5 C 20.05,83.5 20.294,83.05 20.043,82.5 C 19.791999999999998,81.95 19.56,75.875 19.529,69 C 19.498,62.125 19.116,55.938 18.678,55.25 C 18.219,54.529 15.815,54 13,54 C 5.987,54 5.755,52.164 12.722,51.801 C 12.722,51.801 18.5,51.5 18.5,51.5 C 18.5,51.5 19.18,43.5 19.18,43.5 C 19.554,39.1 19.988999999999997,27.4 20.147,17.5 C 20.363999999999997,3.9019999999999992 20.511,2.1899999999999995 20.746,10.5 C 20.746,10.5 21.057,21.5 21.057,21.5 C 21.057,21.5 32.778,21.417 32.778,21.417 C 32.778,21.417 44.5,21.334 44.5,21.334 C 44.5,21.334 33,21.917 33,21.917 C 33,21.917 21.5,22.5 21.5,22.5 C 21.5,22.5 21.223,37.25 21.223,37.25 C 21.223,37.25 20.947,52 20.947,52 C 20.947,52 34.973,52 34.973,52 C 34.973,52 49,52 49,52 C 49,52 49,37.5 49,37.5 C 49,28.5 49.379,23 50,23 C 50.62,23 51,28.467 51,37.399 C 51,37.399 51,51.797 51,51.797 C 51,51.797 57.75,52.408 57.75,52.408 C 61.462,52.744 67.899,52.665 72.054,52.231 C 78.487,51.56 79.625,51.669 79.724,52.971 C 79.825,54.29 77.86099999999999,54.458 65.392,54.198 C 65.392,54.198 50.943,53.897 50.943,53.897 C 50.943,53.897 51.221,67.698 51.221,67.698 C 51.221,67.698 51.5,81.5 51.5,81.5 C 51.5,81.5 64.5,82.013 64.5,82.013 C 64.5,82.013 77.5,82.527 77.5,82.527 C 77.5,82.527 65.5,83.016 65.5,83.016 C 58.9,83.28500000000001 52.702999999999996,83.14699999999999 51.729,82.707 C 50.755,82.267 49.416,82.243 48.754,82.652 C 47.323,83.537 46.739000000000004,83.577 32.25,83.815 C 32.25,83.815 21,84 21,84 C 21,84 21,98.404 21,98.404 C 21,98.404 21,112.808 21,112.808 C 21,112.808 31.75,113.475 31.75,113.475 C 46.409,114.386 46.714,114.82700000000001 32.75,114.921 C 32.75,114.921 21,115 21,115 C 21,115 20.815,123.25 20.815,123.25 C 20.542,135.43 20.496,135.904 19.45,136.95 C 18.835,137.565 18.719,134.41299999999998 19.128,128.206 Z&#10;M 263,136.891 C 261.625,135.756 261.062,135.11700000000002 261.75,135.472 C 262.71,135.96800000000002 263,133.784 263,126.059 C 263,120.452 263.415,116 263.939,116 C 264.456,116 265.01800000000003,121.176 265.189,127.502 C 265.36,133.828 265.5,138.98 265.5,138.98 C 265.5,138.98 264.375,138.02599999999998 263,136.891 Z&#10;M 282,37.071 C 282,37.071 282,22.142 282,22.142 C 282,22.142 272.75,21.821 272.75,21.821 C 263.827,21.511000000000003 261.121,21.781 263.75,22.72 C 264.672,23.049 265,26.954 265,37.583 C 265,37.583 265,52 265,52 C 265,52 273.5,52 273.5,52 C 273.5,52 282,52 282,52 C 282,52 282,37.071 282,37.071 Z&#10;M 282,212.454 C 282,212.454 282,144.908 282,144.908 C 282,144.908 277.488,145.141 277.488,145.141 C 274.885,145.27599999999998 272.452,144.842 271.738,144.116 C 271.057,143.424 270.95,142.94299999999998 271.5,143.047 C 272.05,143.151 274.637,143.183 277.25,143.118 C 277.25,143.118 282,143 282,143 C 282,143 282,129 282,129 C 282,129 282,115 282,115 C 282,115 273.441,115 273.441,115 C 267.98999999999995,115 265.106,114.637 265.5,114 C 265.84,113.45 269.69100000000003,113 274.059,113 C 274.059,113 282,113 282,113 C 282,113 282,98.5 282,98.5 C 282,98.5 282,84 282,84 C 282,84 273.5,84 273.5,84 C 273.5,84 265,84 265,84 C 265,84 264.937,98.75 264.937,98.75 C 264.899,107.636 264.54299999999995,112.684 264.042,111.447 C 262.83799999999997,108.474 262.84299999999996,87.161 264.049,84.908 C 264.92999999999995,83.261 266.23,83 273.535,83 C 273.535,83 282,83 282,83 C 282,83 282,68.5 282,68.5 C 282,68.5 282,54 282,54 C 282,54 273.5,54 273.5,54 C 273.5,54 265,54 265,54 C 265,54 265,68.059 265,68.059 C 265,77.17699999999999 264.649,81.901 264,81.5 C 263.414,81.138 263,75.32300000000001 263,67.441 C 263,67.441 263,54 263,54 C 263,54 249.083,54 249.083,54 C 238.885,54 235.032,54.334 234.662,55.25 C 234.38500000000002,55.937 234.121,55.375 234.077,54 C 234.077,54 233.997,51.5 233.997,51.5 C 233.997,51.5 248.224,51.805 248.224,51.805 C 257.67699999999996,52.008 262.692,52.502 263.171,53.276 C 263.567,53.917 264.223,54.11 264.629,53.704 C 265.035,53.298 264.834,52.434000000000005 264.183,51.783 C 263.387,50.987 263,46.120999999999995 263,36.925 C 263,36.925 263,23.25 263,23.25 C 263,23.25 259.75,22.45 259.75,22.45 C 259.75,22.45 256.5,21.649 256.5,21.649 C 256.5,21.649 259.75,21.261 259.75,21.261 C 259.75,21.261 263,20.873 263,20.873 C 263,20.873 263,10.437 263,10.437 C 263,4.145999999999999 263.397,0 264,0 C 264.603,0 265,4.167 265,10.5 C 265,10.5 265,21 265,21 C 265,21 273.448,21 273.448,21 C 273.448,21 281.895,21 281.895,21 C 281.895,21 282.263,15.75 282.263,15.75 C 282.465,12.862 282.713,71.137 282.815,145.25 C 282.917,219.363 282.5,280 282.5,280 C 282.5,280 282,249.604 282,212.454 Z" style="fill-opacity:1.0;fill:rgb(56, 37, 76)" /></g></g><g id="g_14"><use style="stroke:rgb(41, 19, 10);stroke-opacity:1.0;stroke-width:1.0;stroke-miterlimit:0.0;stroke-linecap:round;stroke-linejoin:round" xlink:href="#g_13" /><g id="g_13" style="fill-opacity:1.0;fill:rgb(41, 19, 10)" transform="matrix(1.0, 0.0, 0.0, 1.0, 0.0, 0.0)"><path d="M 82,10.5 C 82,10.5 82,0 82,0 C 82,0 96,0 96,0 C 96,0 110,0 110,0 C 110,0 110,10.5 110,10.5 C 110,10.5 110,21 110,21 C 110,21 96,21 96,21 C 96,21 82,21 82,21 C 82,21 82,10.5 82,10.5 Z&#10;M 234.423,21.083 C 234.423,21.083 234,16.016 234,10.333 C 234,10.333 234,0 234,0 C 234,0 248.5,0 248.5,0 C 248.5,0 263,0 263,0 C 263,0 263,10.402 263,10.402 C 263,10.402 263,20.804 263,20.804 C 263,20.804 257.131,21.485 257.131,21.485 C 251.29299999999998,22.163 235.231,21.878 234.423,21.083 Z&#10;M 204.415,21.083 C 204.415,21.083 204,16.016 204,10.333 C 204,10.333 204,0 204,0 C 204,0 218.5,0 218.5,0 C 218.5,0 233,0 233,0 C 233,0 233,10.5 233,10.5 C 233,18.227 232.67,21.003 231.75,21.012 C 231.062,21.019000000000002 224.724,21.131 217.665,21.262 C 210.606,21.393 204.415,21.083 204.415,21.083 Z&#10;M 173.694,21.36 C 173.313,20.979 173,16.016 173,10.333 C 173,10.333 173,0 173,0 C 173,0 187.534,0 187.534,0 C 187.534,0 202.068,0 202.068,0 C 202.068,0 201.784,10.75 201.784,10.75 C 201.784,10.75 201.5,21.5 201.5,21.5 C 201.5,21.5 187.944,21.777 187.944,21.777 C 180.488,21.929000000000002 174.075,21.741 173.694,21.36 Z&#10;M 143,11 C 143,11 143,0 143,0 C 143,0 157,0 157,0 C 157,0 171,0 171,0 C 171,0 171,11 171,11 C 171,11 171,22 171,22 C 171,22 157,22 157,22 C 157,22 143,22 143,22 C 143,22 143,11 143,11 Z&#10;M 113.046,21.167 C 112.40700000000001,20.963 112,16.785 112,10.417 C 112,10.417 112,0 112,0 C 112,0 126.534,0 126.534,0 C 126.534,0 141.068,0 141.068,0 C 141.068,0 140.784,10.75 140.784,10.75 C 140.784,10.75 140.5,21.5 140.5,21.5 C 140.5,21.5 127.296,21.5 127.296,21.5 C 120.034,21.5 113.62100000000001,21.35 113.046,21.167 Z&#10;M 53.25,21.343 C 51.091,20.881 51,20.436999999999998 51,10.43 C 51,10.43 51,0 51,0 C 51,0 65.5,0 65.5,0 C 65.5,0 80,0 80,0 C 80,0 80,10.5 80,10.5 C 80,16.275 79.75,21.047 79.75,21.047 C 77.682,21.44 54.89,21.694 53.25,21.343 Z&#10;M 21.001,10.75 C 21.001,10.75 21,0 21,0 C 21,0 35.034,0 35.034,0 C 35.034,0 49.068,0 49.068,0 C 49.068,0 48.784,10.629 48.784,10.629 C 48.784,10.629 48.5,21.258 48.5,21.258 C 48.5,21.258 34.751,21.379 34.751,21.379 C 34.751,21.379 21.002,21.5 21.002,21.5 C 21.002,21.5 21.001,10.75 21.001,10.75 Z&#10;M 1,18.79 C 1,16.871 0.709,11.859 0.353,7.651 C 0.353,7.651 -0.293,0 -0.293,0 C -0.293,0 9.353,0 9.353,0 C 9.353,0 19,0 19,0 C 19,0 19,10.5 19,10.5 C 19,10.5 19,21 19,21 C 19,21 15.25,21.009 15.25,21.009 C 13.188,21.014 9.138,21.301 6.25,21.648 C 6.25,21.648 1,22.279 1,22.279 C 1,22.279 1,18.79 1,18.79 Z&#10;M 265,37.5 C 265,37.5 265,23 265,23 C 265,23 273.5,23 273.5,23 C 273.5,23 282,23 282,23 C 282,23 282,37.5 282,37.5 C 282,37.5 282,52 282,52 C 282,52 273.5,52 273.5,52 C 273.5,52 265,52 265,52 C 265,52 265,37.5 265,37.5 Z&#10;M 234.667,51.333 C 233.834,50.5 233.78,26.736 234.607,24.582 C 235.12,23.245 237.361,23 249.107,23 C 249.107,23 263,23 263,23 C 263,23 263,37.5 263,37.5 C 263,37.5 263,52 263,52 C 263,52 249.167,52 249.167,52 C 241.559,52 235.034,51.699999999999996 234.667,51.333 Z&#10;M 204,37.5 C 204,37.5 204,23 204,23 C 204,23 217.893,23 217.893,23 C 228.555,23 231.905,23.311 232.298,24.335 C 232.947,26.025000000000002 232.176,49.906 231.434,51.106 C 231.13,51.597 224.834,52 217.441,52 C 217.441,52 204,52 204,52 C 204,52 204,37.5 204,37.5 Z&#10;M 173.448,50.725 C 173.167,49.993 173.064,43.568000000000005 173.219,36.447 C 173.219,36.447 173.5,23.5 173.5,23.5 C 173.5,23.5 187.5,23.5 187.5,23.5 C 187.5,23.5 201.5,23.5 201.5,23.5 C 201.5,23.5 201.5,37.5 201.5,37.5 C 201.5,37.5 201.5,51.5 201.5,51.5 C 201.5,51.5 187.729,51.778 187.729,51.778 C 176.988,51.995 173.846,51.763 173.448,50.725 Z&#10;M 143,37.5 C 143,37.5 143,23 143,23 C 143,23 157,23 157,23 C 157,23 171,23 171,23 C 171,23 171,37.5 171,37.5 C 171,37.5 171,52 171,52 C 171,52 157,52 157,52 C 157,52 143,52 143,52 C 143,52 143,37.5 143,37.5 Z&#10;M 112.437,50.697 C 112.16199999999999,49.980000000000004 112.064,43.568000000000005 112.219,36.447 C 112.219,36.447 112.5,23.5 112.5,23.5 C 112.5,23.5 126.5,23.5 126.5,23.5 C 126.5,23.5 140.5,23.5 140.5,23.5 C 140.5,23.5 140.777,37.75 140.777,37.75 C 140.777,37.75 141.055,52 141.055,52 C 141.055,52 126.996,52 126.996,52 C 116.36699999999999,52 112.815,51.682 112.437,50.697 Z&#10;M 82,37.5 C 82,37.5 82,23 82,23 C 82,23 96,23 96,23 C 96,23 110,23 110,23 C 110,23 110,37.5 110,37.5 C 110,37.5 110,52 110,52 C 110,52 96,52 96,52 C 96,52 82,52 82,52 C 82,52 82,37.5 82,37.5 Z&#10;M 51,37.5 C 51,37.5 51,22.945 51,22.945 C 51,22.945 65.25,23.223 65.25,23.223 C 65.25,23.223 79.5,23.5 79.5,23.5 C 79.5,23.5 79.5,37.5 79.5,37.5 C 79.5,37.5 79.5,51.5 79.5,51.5 C 79.5,51.5 65.25,51.777 65.25,51.777 C 65.25,51.777 51,52.055 51,52.055 C 51,52.055 51,37.5 51,37.5 Z&#10;M 21,37.5 C 21,37.5 21,23 21,23 C 21,23 35,23 35,23 C 35,23 49,23 49,23 C 49,23 49,37.5 49,37.5 C 49,37.5 49,52 49,52 C 49,52 35,52 35,52 C 35,52 21,52 21,52 C 21,52 21,37.5 21,37.5 Z&#10;M 265,68.5 C 265,68.5 265,54 265,54 C 265,54 273.5,54 273.5,54 C 273.5,54 282,54 282,54 C 282,54 282,68.5 282,68.5 C 282,68.5 282,83 282,83 C 282,83 273.5,83 273.5,83 C 273.5,83 265,83 265,83 C 265,83 265,68.5 265,68.5 Z&#10;M 234.664,80.881 C 233.85,77.839 233.805,57.673 234.607,55.582 C 235.12,54.245 237.361,54 249.107,54 C 249.107,54 263,54 263,54 C 263,54 263,68 263,68 C 263,68 263,82 263,82 C 263,82 255.75,82.007 255.75,82.007 C 251.762,82.01100000000001 245.531,82.295 241.901,82.638 C 235.559,83.23700000000001 235.27599999999998,83.169 234.664,80.881 Z&#10;M 207.25,82.323 C 207.25,82.323 204,81.873 204,81.873 C 204,81.873 204,67.937 204,67.937 C 204,67.937 204,54 204,54 C 204,54 217.893,54 217.893,54 C 228.147,54 231.881,54.327 232.149,55.25 C 232.349,55.938 232.284,62.324000000000005 232.006,69.441 C 232.006,69.441 231.5,82.381 231.5,82.381 C 231.5,82.381 221,82.577 221,82.577 C 215.225,82.685 209.037,82.57 207.25,82.323 Z&#10;M 112.558,82.225 C 112.558,82.225 112,75.441 112,67.833 C 112,67.833 112,54 112,54 C 112,54 126.5,54 126.5,54 C 126.5,54 141,54 141,54 C 141,54 141,67.531 141,67.531 C 141,77.48100000000001 140.669,81.166 139.75,81.453 C 137.612,82.12 113.14800000000001,82.815 112.558,82.225 Z&#10;M 95.25,82.253 C 95.25,82.253 82,81.942 82,81.942 C 82,81.942 82,67.971 82,67.971 C 82,67.971 82,54 82,54 C 82,54 96,54 96,54 C 96,54 110,54 110,54 C 110,54 110,68.5 110,68.5 C 110,76.475 109.25,82.782 109.25,82.782 C 109.25,82.782 102.537,82.424 95.25,82.253 Z&#10;M 64.5,82 C 64.5,82 51.5,81.5 51.5,81.5 C 51.5,81.5 51.222,67.722 51.222,67.722 C 51.222,67.722 50.943,53.945 50.943,53.945 C 50.943,53.945 65.222,54.222 65.222,54.222 C 65.222,54.222 79.5,54.5 79.5,54.5 C 79.5,54.5 79.777,68.132 79.777,68.132 C 79.989,78.52600000000001 79.751,81.852 78.777,82.132 C 78.074,82.334 71.65,82.275 64.5,82 Z&#10;M 21,68.493 C 21,68.493 21,54 21,54 C 21,54 35.027,54 35.027,54 C 35.027,54 49.055,54 49.055,54 C 49.055,54 48.777,67.979 48.777,67.979 C 48.777,67.979 48.5,81.957 48.5,81.957 C 48.5,81.957 34.75,82.472 34.75,82.472 C 34.75,82.472 21,82.986 21,82.986 C 21,82.986 21,68.493 21,68.493 Z&#10;M 112,94.654 C 112,94.654 112,85.272 112,85.272 C 112,85.272 116.64,84.636 116.64,84.636 C 119.19200000000001,84.286 125.44399999999999,84 130.533,84 C 138.226,84 139.893,84.279 140.422,85.657 C 140.97899999999998,87.109 141.327,87.02600000000001 143.236,84.977 C 144.684,83.423 145.009,82.503 144.207,82.236 C 143.34099999999998,81.947 143,77.9 143,67.917 C 143,67.917 143,54 143,54 C 143,54 157,54 157,54 C 157,54 171,54 171,54 C 171,54 171,63.5 171,63.5 C 171,69.167 171.404,73 172,73 C 172.597,73 173,69.158 173,63.473 C 173,63.473 173,53.945 173,53.945 C 173,53.945 187.25,54.223 187.25,54.223 C 187.25,54.223 201.5,54.5 201.5,54.5 C 201.5,54.5 201.779,68.318 201.779,68.318 C 201.779,68.318 202.057,82.136 202.057,82.136 C 202.057,82.136 195.184,81.913 195.184,81.913 C 191.404,81.78999999999999 187.841,81.98 187.268,82.334 C 186.695,82.688 185.641,82.273 184.926,81.411 C 182.91799999999998,78.991 174.393,75 171.233,75 C 169.675,75 167.85999999999999,74.46 167.2,73.8 C 166.267,72.86699999999999 166,72.86699999999999 166,73.8 C 166,74.46 164.857,75 163.46,75 C 162.06300000000002,75 159.19899999999998,75.878 157.094,76.952 C 148.179,81.5 142.68,88.763 141.536,97.5 C 140.907,102.306 140.758,102.501 137.691,102.542 C 135.936,102.565 129.438,102.911 123.25,103.31 C 123.25,103.31 112,104.036 112,104.036 C 112,104.036 112,94.654 112,94.654 Z&#10;M 194.846,108.329 C 193.51,107.975 193.221,106.698 193.346,101.695 C 193.467,96.827 192.918,94.258 190.785,89.705 C 190.785,89.705 188.07,83.91 188.07,83.91 C 188.07,83.91 194.785,84.205 194.785,84.205 C 194.785,84.205 201.5,84.5 201.5,84.5 C 201.5,84.5 201.792,94.5 201.792,94.5 C 202.217,109.033 201.663,110.137 194.846,108.329 Z&#10;M 82,96.551 C 82,96.551 82,83.944 82,83.944 C 82,83.944 95.75,84.222 95.75,84.222 C 95.75,84.222 109.5,84.5 109.5,84.5 C 109.5,84.5 110,94.296 110,94.296 C 110.556,105.188 111.196,104.17399999999999 103,105.389 C 97.721,106.172 87.852,107.887 84.75,108.561 C 84.75,108.561 82,109.159 82,109.159 C 82,109.159 82,96.551 82,96.551 Z&#10;M 265,98.5 C 265,98.5 265,84 265,84 C 265,84 273.5,84 273.5,84 C 273.5,84 282,84 282,84 C 282,84 282,98.5 282,98.5 C 282,98.5 282,113 282,113 C 282,113 273.5,113 273.5,113 C 273.5,113 265,113 265,113 C 265,113 265,98.5 265,98.5 Z&#10;M 234.694,112.36 C 233.84199999999998,111.508 233.765,87.77699999999999 234.607,85.582 C 235.12,84.244 237.363,84 249.134,84 C 249.134,84 263.055,84 263.055,84 C 263.055,84 262.777,98.25 262.777,98.25 C 262.777,98.25 262.5,112.5 262.5,112.5 C 262.5,112.5 248.944,112.777 248.944,112.777 C 241.488,112.929 235.075,112.741 234.694,112.36 Z&#10;M 208.5,111.705 C 208.5,111.705 203.5,110.721 203.5,110.721 C 203.5,110.721 203.793,98.61 203.793,98.61 C 203.954,91.949 204.277,85.938 204.511,85.25 C 204.82399999999998,84.333 208.53799999999998,84 218.469,84 C 218.469,84 232,84 232,84 C 232,84 232.027,86.75 232.027,86.75 C 232.04199999999997,88.263 232.17000000000002,94.787 232.311,101.25 C 232.311,101.25 232.568,113 232.568,113 C 232.568,113 223.034,112.845 223.034,112.845 C 217.79,112.76 211.25,112.247 208.5,111.705 Z&#10;M 21,98.528 C 21,98.528 21,84 21,84 C 21,84 35.027,84 35.027,84 C 35.027,84 49.055,84 49.055,84 C 49.055,84 48.777,98.25 48.777,98.25 C 48.777,98.25 48.5,112.5 48.5,112.5 C 48.5,112.5 34.75,112.778 34.75,112.778 C 34.75,112.778 21,113.056 21,113.056 C 21,113.056 21,98.528 21,98.528 Z&#10;M 63.48,112.729 C 62.534,112.2 59.821000000000005,111.986 57.45,112.253 C 55.043000000000006,112.524 52.666000000000004,112.26599999999999 52.069,111.669 C 50.811,110.411 50.61300000000001,87.15899999999999 51.843,85.22 C 52.452000000000005,84.26 56.011,84.01 66.078,84.22 C 66.078,84.22 79.5,84.5 79.5,84.5 C 79.5,84.5 79.78,97.25 79.78,97.25 C 79.934,104.263 79.28,110.029 79.28,110.029 C 79.28,110.029 75.508,110.876 71.85,111.875 C 67.27699999999999,113.124 64.66199999999999,113.391 63.48,112.729 Z&#10;M 224,116.441 C 224,116.441 218.5,114.105 218.5,114.105 C 218.5,114.105 222.5,114.451 222.5,114.451 C 224.7,114.64099999999999 227.963,114.843 229.75,114.899 C 232.3,114.979 233,115.431 233,117 C 233,119.55799999999999 231.054,119.437 224,116.441 Z&#10;M 51.182,117.294 C 51.550000000000004,115.381 54.775999999999996,114.228 60,114.142 C 63.305,114.088 63.171,114.221 57.58,116.542 C 50.536,119.46600000000001 50.769000000000005,119.44 51.182,117.294 Z&#10;M 20.767,125.25 C 21.035,119.888 21.377,115.338 21.377,115.338 C 21.377,115.338 27.575,115.036 35,114.864 C 35,114.864 48.5,114.553 48.5,114.553 C 48.5,114.553 48.803,117.14 48.803,117.14 C 49.074999999999996,119.461 48.354,120.085 41.803,123.198 C 37.785999999999994,125.107 31.417,128.543 27.648,130.834 C 23.878999999999998,133.125 20.537,135 20.537,135 C 20.537,135 20.499,130.613 20.767,125.25 Z&#10;M 258.482,133.274 C 256.29200000000003,131.775 250.0,128.233 244.5,125.403 C 236.078,121.07000000000001 234.5,119.882 234.5,117.879 C 234.5,117.879 234.5,115.5 234.5,115.5 C 234.5,115.5 248.75,115.223 248.75,115.223 C 248.75,115.223 263,114.945 263,114.945 C 263,114.945 263,125.473 263,125.473 C 263,131.263 262.732,136 262.732,136 C 262.732,136 260.672,134.773 258.482,133.274 Z&#10;M 268.368,140.623 C 268.368,140.623 265,137.745 265,137.745 C 265,137.745 265,126.373 265,126.373 C 265,126.373 265,115 265,115 C 265,115 273.5,115 273.5,115 C 273.5,115 282,115 282,115 C 282,115 282,128.903 282,128.903 C 282,128.903 282,142.807 282,142.807 C 282,142.807 276.868,143.153 276.868,143.153 C 272.394,143.45499999999998 271.304,143.131 268.368,140.623 Z&#10;M 0.991,139.927 C 0.969,106.286 0.962,29.176000000000002 0.98,26.25 C 0.98,26.25 1,23 1,23 C 1,23 10.027,23 10.027,23 C 10.027,23 19.055,23 19.055,23 C 19.055,23 18.777,37.25 18.777,37.25 C 18.777,37.25 18.5,51.5 18.5,51.5 C 18.5,51.5 12.5,52.04 12.5,52.04 C 5.993,52.626 6.778,53.765 14,54.218 C 14,54.218 18.5,54.5 18.5,54.5 C 18.5,54.5 18.778,68.25 18.778,68.25 C 18.778,68.25 19.056,82 19.056,82 C 19.056,82 13.587,82 13.587,82 C 6.143,82 5.428,83.819 12.722,84.199 C 12.722,84.199 18.5,84.5 18.5,84.5 C 18.5,84.5 18.5,98.5 18.5,98.5 C 18.5,98.5 18.5,112.5 18.5,112.5 C 18.5,112.5 12.221,112.798 12.221,112.798 C 4.618,113.159 4.8020000000000005,115 12.442,115 C 18.817,115 18.966,115.299 18.986,128.131 C 18.986,128.131 19,136.763 19,136.763 C 19,136.763 15.471,139.454 15.471,139.454 C 13.53,140.934 9.48,144.668 6.471,147.75 C 6.471,147.75 1,153.353 1,153.353 C 1,153.353 0.991,139.927 0.991,139.927 Z&#10;M 278.25,150.044 C 276.462,147.961 275,145.628 275,145.628 C 275,145.628 276.575,145 278.5,145 C 281.981,145 282,145.024 282,149.5 C 282,151.975 281.75,153.915 281.75,153.915 C 281.75,153.915 280.038,152.127 278.25,150.044 Z&#10;M 282.815,145.25 C 282.713,71.137 282.465,12.862 282.263,15.75 C 282.263,15.75 281.895,21 281.895,21 C 281.895,21 273.448,21 273.448,21 C 273.448,21 265,21 265,21 C 265,21 265,10.545 265,10.545 C 265,10.545 265,0.091 265,0.091 C 265,0.091 274.5,0.091 274.5,0.091 C 274.5,0.091 284,0.091 284,0.091 C 284,0.091 284,140.045 284,140.045 C 284,217.01999999999998 283.5,280 283.5,280 C 283.5,280 282.917,219.363 282.815,145.25 Z" style="fill-opacity:1.0;fill:rgb(41, 19, 10)" /></g></g></g></svg>