<svg xmlns:inkscape="http://www.inkscape.org/namespaces/inkscape" xmlns:sodipodi="http://sodipodi.sourceforge.net/DTD/sodipodi-0.dtd" height="512" id="Animation" style="fill: none; stroke: none" version="1.1" viewBox="0 0 512 512" width="512" xmlns="http://www.w3.org/2000/svg" sodipodi:docname="Animation" inkscape:export-xdpi="96" inkscape:export-ydpi="96"><defs /><sodipodi:namedview bordercolor="#666666" borderlayer="true" pagecolor="#ffffff" inkscape:pagecheckerboard="true" /><g id="g_1" inkscape:groupmode="layer" inkscape:label="PreCompLayer"><g id="g_2" style="stroke:rgb(0, 0, 0);stroke-opacity:1.0;stroke-width:10.0" transform="matrix(1.0, 0.0, 0.0, 1.0, 215.0, 430.0)" inkscape:groupmode="layer" inkscape:label="ShapeLayer"><path d="M 114,36 C 114,36 0,0 0,0 C 0,0 -114,-16 -114,-16 " style="" /></g></g><g id="g_3" inkscape:groupmode="layer" inkscape:label="PreCompLayer"><g id="g_4" style="stroke:rgb(0, 0, 0);stroke-opacity:1.0;stroke-width:10.0" transform="matrix(1.0, 0.0, 0.0, 1.0, 429.0, 147.0)" inkscape:groupmode="layer" inkscape:label="ShapeLayer"><path d="M -147,186 C -147,186 0,0 0,0 C 0,0 40,189 40,189 " style="" /></g></g><g id="g_5" inkscape:groupmode="layer" inkscape:label="PreCompLayer"><g id="g_6" style="stroke:rgb(0, 0, 0);stroke-opacity:1.0;stroke-width:10.0" transform="matrix(1.0, 0.0, 0.0, 1.0, 53.0, 325.0)" inkscape:groupmode="layer" inkscape:label="ShapeLayer"><path d="M 0,0 C 0,0 0,0 0,0 C 0,0 89,-189 89,-189 " style="" /></g></g><g id="g_7" style="stroke:rgb(50, 80, 176);stroke-opacity:1.0;stroke-width:22.0;stroke-miterlimit:0.0;stroke-linecap:round;stroke-linejoin:round" transform="matrix(1.0, 0.0, 0.0, 1.0, 0.0, 0.0)" inkscape:groupmode="layer" inkscape:label="ShapeLayer"><path d="M 53,325 C 142,136 282,333 429,147 C 469,336 329,466 215,430 " id="Path" style="" inkscape:label="Path" /></g></svg>