<svg xmlns:inkscape="http://www.inkscape.org/namespaces/inkscape" xmlns:sodipodi="http://sodipodi.sourceforge.net/DTD/sodipodi-0.dtd" height="512" id="svg_1" style="fill: none; stroke: none" version="1.1" viewBox="0 0 512 512" width="512" xmlns="http://www.w3.org/2000/svg" sodipodi:docname="" inkscape:export-xdpi="96" inkscape:export-ydpi="96"><defs /><sodipodi:namedview bordercolor="#666666" borderlayer="true" pagecolor="#ffffff" inkscape:pagecheckerboard="true" /><g id="g_2" style="" transform="matrix(1.0, 0.0, 0.0, 1.0, 0.0, 0.0)" inkscape:groupmode="layer" inkscape:label="ShapeLayer"><g id="g_3" style="fill-opacity:1.0;fill:rgb(41, 41, 41);fill-rule:nonzero;stroke:rgb(41, 41, 41);stroke-opacity:1.0;stroke-width:1.0;stroke-miterlimit:0.0;stroke-linecap:round;stroke-linejoin:round" transform="matrix(1.0, 0.0, 0.0, 1.0, 0.0, 0.0)" inkscape:label="#292929"><path d="M 285.277,119.776 C 284.721,119.074 281.532,112.753 278.191,105.728 C 271.008,90.625 263.19599999999997,76.295 246.885,48.302 C 240.28799999999998,36.980000000000004 233.79,25.546 232.445,22.892 C 225.954,10.083 232.856,6.273999999999999 247.607,14.523 C 261.147,22.095 296.975,51.264 298.963,56.334 C 299.899,58.722 308,66.94500000000001 308,65.507 C 308,63.154 325.332,82.59899999999999 332.875,93.416 C 337.813,100.497 338.02000000000004,102 334.057,102 C 331.6,102 330.297,100.916 326.178,95.446 C 310.222,74.253 289.196,53.47500000000001 263.583,33.587 C 253.25200000000004,25.565000000000005 238.411,16.255 237.465,17.201 C 237.465,17.201 241.13,24.830000000000005 246.179,33.584 C 267.561,70.655 274.58000000000004,83.369 282.016,98.5 C 286.341,107.3 290.019,115.33500000000001 290.19,116.355 C 290.609,118.858 286.704,121.577 285.277,119.776 Z" id="path_4" style="fill-opacity:1.0;fill:rgb(41, 41, 41);fill-rule:nonzero" inkscape:label="" /></g><g id="g_5" style="fill-opacity:1.0;fill:rgb(58, 60, 63);fill-rule:nonzero;stroke:rgb(58, 60, 63);stroke-opacity:1.0;stroke-width:1.0;stroke-miterlimit:0.0;stroke-linecap:round;stroke-linejoin:round" transform="matrix(1.0, 0.0, 0.0, 1.0, 0.0, 0.0)" inkscape:label="#3a3c3f"><path d="M 289.36,113.807 C 286.485,106.392 270.74199999999996,76.24 260.484,58.5 C 242.14399999999998,26.782 237.042,17.625 237.47,17.197 C 237.47,17.197 240.80800000000002,18.398 244.365,20.387 C 267.972,33.589 307.766,70.48400000000001 328.273,98.183 C 329.773,100.209 331,102.433 331,102.433 C 331,102.433 329.60400000000004,103 327.898,103 C 321.745,103 301.215,110.93100000000001 293.765,116.186 C 293.765,116.186 291.03,118.115 291.03,118.115 C 291.03,118.115 289.36,113.807 289.36,113.807 Z" id="path_6" style="fill-opacity:1.0;fill:rgb(58, 60, 63);fill-rule:nonzero" inkscape:label="" /></g><g id="g_7" style="fill-opacity:1.0;fill:rgb(41, 41, 41);fill-rule:nonzero;stroke:rgb(41, 41, 41);stroke-opacity:1.0;stroke-width:1.0;stroke-miterlimit:0.0;stroke-linecap:round;stroke-linejoin:round" transform="matrix(1.0, 0.0, 0.0, 1.0, 0.0, 0.0)" inkscape:label="#292929"><path d="M 147.611,178.25 C 142.88299999999998,168.558 127.753,143.128 105.518,107.5 C 76.395,60.835 74.268,56.51 78.655,52.872 C 87.666,45.4 123.659,67.137 166.365,105.841 C 179.84,118.05399999999999 200,139.333 200,141.345 C 200,141.99 199.065,143.103 197.921,143.817 C 195.987,145.025 194.815,144.04999999999998 181.171,129.878 C 153.75,101.39699999999999 119.338,73.703 98.265,63.159 C 91.504,59.775999999999996 85.097,57.57 84.312,58.355 C 83.489,59.178 88.086,66.976 111.512,104.5 C 133.106,139.09 146.094,160.816 152.094,172.389 C 155.152,178.287 155.316,179.042 154.047,181.413 C 153.285,182.836 152.15599999999998,184 151.539,184 C 150.922,184 149.154,181.412 147.611,178.25 Z" id="path_8" style="fill-opacity:1.0;fill:rgb(41, 41, 41);fill-rule:nonzero" inkscape:label="" /></g><g id="g_9" style="fill-opacity:1.0;fill:rgb(41, 41, 41);fill-rule:nonzero;stroke:rgb(41, 41, 41);stroke-opacity:1.0;stroke-width:1.0;stroke-miterlimit:0.0;stroke-linecap:round;stroke-linejoin:round" transform="matrix(1.0, 0.0, 0.0, 1.0, 0.0, 0.0)" inkscape:label="#292929"><path d="M 303,61.5 C 300.594,59.048 299.125,56.542 299.125,56.542 C 299.125,56.542 301.594,58.048 304,60.5 C 306.406,62.952 307.875,65.458 307.875,65.458 C 307.875,65.458 305.406,63.952 303,61.5 Z" id="path_10" style="fill-opacity:1.0;fill:rgb(41, 41, 41);fill-rule:nonzero" inkscape:label="" /></g><g id="g_11" style="fill-opacity:1.0;fill:rgb(58, 60, 63);fill-rule:nonzero;stroke:rgb(58, 60, 63);stroke-opacity:1.0;stroke-width:1.0;stroke-miterlimit:0.0;stroke-linecap:round;stroke-linejoin:round" transform="matrix(1.0, 0.0, 0.0, 1.0, 0.0, 0.0)" inkscape:label="#3a3c3f"><path d="M 152.09,172.38 C 146.094,160.815 133.101,139.08100000000002 111.512,104.5 C 88.086,66.976 83.489,59.178 84.312,58.355 C 85.68599999999999,56.980999999999995 99.288,63.03500000000001 109.765,69.683 C 118.084,74.96100000000001 136.035,88.402 147,97.563 C 158.066,106.808 180.548,128.484 189.306,138.352 C 194.366,144.053 195.12,145.353 193.8,146.092 C 189.00300000000001,148.776 174.397,160.692 165.559,169.13 C 165.559,169.13 155.422,178.808 155.422,178.808 C 155.422,178.808 152.09,172.38 152.09,172.38 Z" id="path_12" style="fill-opacity:1.0;fill:rgb(58, 60, 63);fill-rule:nonzero" inkscape:label="" /></g><g id="g_13" style="fill-opacity:1.0;fill:rgb(55, 57, 59);fill-rule:nonzero;stroke:rgb(55, 57, 59);stroke-opacity:1.0;stroke-width:1.0;stroke-miterlimit:0.0;stroke-linecap:round;stroke-linejoin:round" transform="matrix(1.0, 0.0, 0.0, 1.0, 0.0, 0.0)" inkscape:label="#37393b" /><g id="g_14" style="fill-opacity:1.0;fill:rgb(43, 43, 43);fill-rule:nonzero;stroke:rgb(43, 43, 43);stroke-opacity:1.0;stroke-width:1.0;stroke-miterlimit:0.0;stroke-linecap:round;stroke-linejoin:round" transform="matrix(1.0, 0.0, 0.0, 1.0, 0.0, 0.0)" inkscape:label="#2b2b2b" /><g id="g_15" style="fill-opacity:1.0;fill:rgb(29, 40, 72);fill-rule:nonzero;stroke:rgb(29, 40, 72);stroke-opacity:1.0;stroke-width:1.0;stroke-miterlimit:0.0;stroke-linecap:round;stroke-linejoin:round" transform="matrix(1.0, 0.0, 0.0, 1.0, 0.0, 0.0)" inkscape:label="#1d2848"><path d="M 355.593,135.381 C 355.25100000000003,134.49 351.26599999999996,128.199 346.736,121.4 C 346.736,121.4 338.5,109.038 338.5,109.038 C 338.5,109.038 332.355,109.019 332.355,109.019 C 324.90200000000004,108.99600000000001 315.414,111.786 304.074,117.336 C 304.074,117.336 295.649,121.46 295.649,121.46 C 295.649,121.46 299.074,122.13 299.074,122.13 C 300.958,122.49799999999999 306.439,123.307 311.252,123.928 C 323.194,125.469 337.192,129.23100000000002 346.633,133.437 C 355.611,137.437 356.452,137.619 355.593,135.381 Z&#10;M 101.064,508.209 C 103.26899999999999,498.394 105.12599999999999,472.255 106.014,438.5 C 109.006,324.781 109.36,316.615 112.556,287.5 C 116.54599999999999,251.151 127.19700000000002,222.139 146.199,195.86 C 148.84,192.20800000000003 151,188.276 151,187.122 C 151,184.389 152.588,182.411 163.995,170.944 C 174.269,160.61499999999998 184.161,152.417 193.559,146.442 C 196.826,144.365 199.805,141.918 199.805,141.918 C 199.805,141.918 201.53799999999998,141.581 203.285,142.082 C 206.015,142.86499999999998 208.00799999999998,142.305 217.481,138.095 C 236.91899999999998,129.456 256.67100000000005,123.94 274.696,122.116 C 286.13100000000003,120.959 287.165,120.669 292.231,117.196 C 302.291,110.3 319.497,103.73100000000001 330.75,102.492 C 334.385,102.092 337.006,101.322 337.015,100.652 C 337.026,99.816 337.23199999999997,99.80499999999999 337.765,100.615 C 338.169,101.228 339.4,102.021 340.5,102.375 C 342.417,102.993 358.984,127.02 365.661,138.869 C 367.964,142.956 371.095,146.287 377.019,150.953 C 387.158,158.939 395.34499999999997,167.856 403.063,179.316 C 409.815,189.342 410.594,191.86599999999999 406.25,189.646 C 404.738,188.873 401.978,187.913 400.117,187.512 C 397.913,187.037 397.173,186.511 397.993,186.004 C 399.966,184.784 394.083,176.92200000000003 382.581,165.407 C 365.745,148.55100000000002 349.866,139.303 327.02,133.048 C 322.906,131.922 318.106,131 316.353,131 C 314.6,131 313.016,130.562 312.833,130.026 C 312.64500000000004,129.476 304.669,128.772 294.5,128.408 C 273.802,127.66699999999999 264.245,128.869 245.29,134.596 C 234.292,137.919 213.46,146.446 212.485,148.024 C 212.21300000000002,148.465 214.051,151.227 216.57,154.163 C 226.528,165.768 233.828,179.019 230.25,178.995 C 228.578,178.984 223.922,174.064 218.434,166.509 C 211.07,156.37199999999999 204.19299999999998,149 202.1,149 C 196.606,149 160.51,179.666 158.482,186.057 C 157.814,188.16199999999998 161.685,195.666 172.852,213.91 C 177.604,221.673 179.163,226 177.208,226 C 174.761,226 162.508,209.923 157.631,200.313 C 156.742,198.56 155.582,196.85899999999998 155.054,196.533 C 152.067,194.68699999999998 132.777,230.017 126.985,247.941 C 117.877,276.127 114.74000000000001,311.288 112.986,404.891 C 112.01100000000001,456.934 111.024,479.414 108.944,497 C 107.147,512.194 107.217,512 103.495,512 C 100.21300000000001,512 100.21199999999999,512.0 101.064,508.209 Z" id="path_16" style="fill-opacity:1.0;fill:rgb(29, 40, 72);fill-rule:nonzero" inkscape:label="" /></g><g id="g_17" style="fill-opacity:1.0;fill:rgb(50, 80, 176);fill-rule:nonzero;stroke:rgb(50, 80, 176);stroke-opacity:1.0;stroke-width:1.0;stroke-miterlimit:0.0;stroke-linecap:round;stroke-linejoin:round" transform="matrix(1.0, 0.0, 0.0, 1.0, 0.0, 0.0)" inkscape:label="#3250b0"><path d="M 346.633,133.437 C 337.192,129.23100000000002 323.194,125.469 311.252,123.928 C 306.439,123.307 300.958,122.49799999999999 299.074,122.13 C 299.074,122.13 295.649,121.46 295.649,121.46 C 295.649,121.46 304.074,117.336 304.074,117.336 C 315.414,111.786 324.90200000000004,108.99600000000001 332.355,109.019 C 332.355,109.019 338.5,109.038 338.5,109.038 C 338.5,109.038 346.736,121.4 346.736,121.4 C 355.247,134.175 356.822,137.02100000000002 355.357,136.971 C 355.357,136.971 350.96,135.364 346.633,133.437 Z" id="path_18" style="fill-opacity:1.0;fill:rgb(50, 80, 176);fill-rule:nonzero" inkscape:label="" /></g><g id="g_19" style="fill-opacity:1.0;fill:rgb(41, 47, 117);fill-rule:nonzero;stroke:rgb(41, 47, 117);stroke-opacity:1.0;stroke-width:1.0;stroke-miterlimit:0.0;stroke-linecap:round;stroke-linejoin:round" transform="matrix(1.0, 0.0, 0.0, 1.0, 0.0, 0.0)" inkscape:label="#292f75"><path d="M 278,191.173 C 272.775,189.03 264.896,185.464 260.492,183.249 C 250.69000000000003,178.319 243.147,176 236.911,176 C 236.911,176 232.184,176 232.184,176 C 232.184,176 226.671,167.75 226.671,167.75 C 223.63899999999998,163.213 219.095,157.09900000000002 216.574,154.163 C 214.05300000000003,151.227 212.21300000000002,148.465 212.485,148.024 C 213.46,146.446 234.292,137.919 245.29,134.596 C 264.159,128.895 273.834,127.667 294.166,128.398 C 311.508,129.021 311.89300000000003,129.083 315.158,131.766 C 331.05600000000004,144.833 337.82899999999995,160.758 333.631,175.199 C 331.654,182.0 326.73199999999997,186.815 317.123,191.349 C 311.093,194.195 309.47,194.501 299,194.772 C 287.625,195.06699999999998 287.397,195.028 278,191.173 Z" id="path_20" style="fill-opacity:1.0;fill:rgb(41, 47, 117);fill-rule:nonzero" inkscape:label="" /></g><g id="g_21" style="fill-opacity:1.0;fill:rgb(0, 0, 0);fill-rule:nonzero;stroke:rgb(0, 0, 0);stroke-opacity:1.0;stroke-width:1.0;stroke-miterlimit:0.0;stroke-linecap:round;stroke-linejoin:round" transform="matrix(1.0, 0.0, 0.0, 1.0, 0.0, 0.0)" inkscape:label="#000000"><path d="M 402.205,285.446 C 410.904,282.482 419.324,273.133 423.111,262.233 C 425.96299999999997,254.024 427.603,234.32000000000002 426.035,227.109 C 424.13000000000005,218.347 418.382,207.287 412.868,201.773 C 405.364,194.269 400.632,192.50699999999998 387.984,192.503 C 378.144,192.5 377.05199999999996,192.70700000000002 370.984,195.722 C 359.039,201.657 350.738,210.87 346.142,223.288 C 343.756,229.735 343.21999999999997,243.904 345.061,251.888 C 348.506,266.831 362.263,281.55199999999996 377,286.063 C 381.607,287.473 397.389,287.08700000000005 402.205,285.446 Z&#10;M 373.035,291.004 C 361.42900000000003,286.743 349.797,276.72499999999997 344.146,266.123 C 339.481,257.37 337.753,248.493 338.186,235.5 C 338.53,225.176 338.78499999999997,224.021 342.335,216.707 C 347.852,205.339 356.833,196.171 367.754,190.759 C 375.634,186.85399999999998 376.896,186.537 385.862,186.21 C 393.776,185.92100000000002 396.573,186.23999999999998 401.5,187.992 C 404.8,189.166 408.118,190.173 408.873,190.23 C 411.31399999999996,190.414 421.402,200.63000000000002 424.926,206.485 C 430.42199999999997,215.61800000000002 433.105,226.492 433.103,239.625 C 433.101,252.662 431.317,261.442 426.88,270.25 C 422.956,278.04 414.565,286.375 407.142,289.855 C 402.221,292.16200000000003 400.031,292.532 390,292.755 C 380.531,292.965 377.535,292.656 373.035,291.004 Z" id="path_22" style="fill-opacity:1.0;fill:rgb(0, 0, 0);fill-rule:nonzero" inkscape:label="" /></g><g id="g_23" style="fill-opacity:1.0;fill:rgb(255, 255, 255);fill-rule:nonzero;stroke:rgb(255, 255, 255);stroke-opacity:1.0;stroke-width:1.0;stroke-miterlimit:0.0;stroke-linecap:round;stroke-linejoin:round" transform="matrix(1.0, 0.0, 0.0, 1.0, 0.0, 0.0)" inkscape:label="#ffffff"><path d="M 393.66,273.022 C 399.51800000000003,269.662 402.33500000000004,266.157 405.646,258.108 C 407.545,253.49200000000002 407.956,250.643 407.975,242 C 407.99600000000004,232.51 407.72499999999997,230.923 405.155,225.5 C 401.842,218.508 395.74600000000004,212.578 390.321,211.072 C 376.225,207.15800000000002 363.853,213.422 357.232,227.826 C 355.019,232.641 354.819,234.17499999999998 355.151,243.826 C 355.464,252.93699999999998 355.912,255.305 358.21,260 C 361.09799999999996,265.899 366.643,271.921 371.5,274.435 C 373.377,275.406 377.121,275.986 381.5,275.984 C 387.424,275.981 389.29400000000004,275.526 393.66,273.022 Z&#10;M 377,286.063 C 362.263,281.55199999999996 348.506,266.831 345.061,251.888 C 343.21999999999997,243.904 343.756,229.735 346.142,223.288 C 350.738,210.87 359.039,201.657 370.984,195.722 C 377.05199999999996,192.70700000000002 378.144,192.5 387.984,192.503 C 400.632,192.50699999999998 405.364,194.269 412.868,201.773 C 418.382,207.287 424.13000000000005,218.347 426.035,227.109 C 427.603,234.32000000000002 425.96299999999997,254.024 423.111,262.233 C 419.324,273.133 410.904,282.482 402.205,285.446 C 397.389,287.08700000000005 381.607,287.473 377,286.063 Z" id="path_24" style="fill-opacity:1.0;fill:rgb(255, 255, 255);fill-rule:nonzero" inkscape:label="" /></g><g id="g_25" style="fill-opacity:1.0;fill:rgb(41, 47, 117);fill-rule:nonzero;stroke:rgb(41, 47, 117);stroke-opacity:1.0;stroke-width:1.0;stroke-miterlimit:0.0;stroke-linecap:round;stroke-linejoin:round" transform="matrix(1.0, 0.0, 0.0, 1.0, 0.0, 0.0)" inkscape:label="#292f75"><path d="M 117.075,309.924 C 116.88600000000001,293.248 121.333,265.431 126.985,247.941 C 132.661,230.37800000000001 152.057,194.681 154.952,196.47 C 155.424,196.761 157.25400000000002,199.588 159.019,202.75 C 160.784,205.912 163.325,209.963 164.665,211.75 C 166.005,213.537 166.68499999999997,215 166.176,215 C 165.667,215 162.498,218.557 159.135,222.904 C 142.08999999999997,244.937 128.051,274.602 119.969,305.662 C 119.969,305.662 117.149,316.5 117.149,316.5 C 117.149,316.5 117.075,309.924 117.075,309.924 Z" id="path_26" style="fill-opacity:1.0;fill:rgb(41, 47, 117);fill-rule:nonzero" inkscape:label="" /></g><g id="g_27" style="fill-opacity:1.0;fill:rgb(0, 0, 0);fill-rule:nonzero;stroke:rgb(0, 0, 0);stroke-opacity:1.0;stroke-width:1.0;stroke-miterlimit:0.0;stroke-linecap:round;stroke-linejoin:round" transform="matrix(1.0, 0.0, 0.0, 1.0, 0.0, 0.0)" inkscape:label="#000000"><path d="M 243.5,314.183 C 235.872,310.932 232.478,308.665 226.169,302.607 C 219.286,295.997 214.111,287.651 211.533,279 C 208.982,270.441 208.399,253.828 210.379,246.137 C 215.79899999999998,225.079 234.28099999999998,205.32500000000002 253.932,199.586 C 260.795,197.58200000000002 277.56800000000004,197.51 284.869,199.453 C 302.64500000000004,204.184 316.67400000000004,217.905 322.588,236.343 C 324.961,243.74099999999999 325.149,245.478 324.61,255 C 323.683,271.35699999999997 319.586,283.113 311.082,293.808 C 306.37,299.735 305.108,300.495 301.49,299.587 C 299.002,298.962 299.021,298.91499999999996 304.334,292.652 C 313.43,281.93 317.487,271.511 318.641,255.911 C 319.41700000000003,245.424 318.094,239.079 313.141,229.535 C 308.228,220.06799999999998 300.618,212.674 291.115,208.136 C 283.516,204.507 283.473,204.5 269.934,204.5 C 269.934,204.5 256.367,204.5 256.367,204.5 C 256.367,204.5 247.719,208.781 247.719,208.781 C 233.09199999999998,216.02100000000002 222.515,228.426 217.076,244.718 C 213.29999999999998,256.03 214.925,274.306 220.745,285.976 C 224.84300000000002,294.193 235.006,303.915 243.25,307.505 C 249.868,310.387 250.617,311.229 249.393,314.418 C 248.659,316.332 248.529,316.327 243.5,314.183 Z" id="path_28" style="fill-opacity:1.0;fill:rgb(0, 0, 0);fill-rule:nonzero" inkscape:label="" /></g><g id="g_29" style="fill-opacity:1.0;fill:rgb(255, 255, 255);fill-rule:nonzero;stroke:rgb(255, 255, 255);stroke-opacity:1.0;stroke-width:1.0;stroke-miterlimit:0.0;stroke-linecap:round;stroke-linejoin:round" transform="matrix(1.0, 0.0, 0.0, 1.0, 0.0, 0.0)" inkscape:label="#ffffff"><path d="M 288.409,287.606 C 293.485,284.631 298.057,279.08 301.26,272 C 302.824,268.544 303.40500000000003,264.694 303.764,255.405 C 304.176,244.752 303.986,242.758 302.179,238.672 C 297.066,227.112 289.48299999999995,221.98499999999999 277.554,222.022 C 269.03299999999996,222.04899999999998 263.861,224.139 258.123,229.877 C 255.893,232.107 252.815,236.31 251.284,239.216 C 248.68599999999998,244.14700000000002 248.5,245.30400000000003 248.5,256.523 C 248.5,268.023 248.63799999999998,268.827 251.694,275.032 C 255.206,282.163 258.432,285.673 264.5,288.965 C 270.326,292.126 281.811,291.473 288.409,287.606 Z&#10;M 242.107,306.974 C 234.307,303.284 224.686,293.815 220.745,285.95 C 214.928,274.34 213.299,256.032 217.076,244.718 C 222.515,228.426 233.09199999999998,216.02100000000002 247.719,208.781 C 247.719,208.781 256.367,204.5 256.367,204.5 C 256.367,204.5 269.934,204.5 269.934,204.5 C 283.473,204.5 283.516,204.507 291.115,208.136 C 300.618,212.674 308.228,220.06799999999998 313.141,229.535 C 318.094,239.079 319.41700000000003,245.424 318.641,255.911 C 317.466,271.786 312.702,283.657 303.563,293.477 C 303.563,293.477 298.378,299.049 298.378,299.049 C 298.378,299.049 290.939,298.275 290.939,298.275 C 286.848,297.849 279.151,297.5 273.834,297.5 C 264.68,297.5 263.938,297.66200000000003 259.834,300.543 C 257.451,302.216 254.6,305.011 253.5,306.754 C 252.4,308.497 250.825,309.94 250,309.961 C 249.175,309.982 245.623,308.637 242.107,306.974 Z" id="path_30" style="fill-opacity:1.0;fill:rgb(255, 255, 255);fill-rule:nonzero" inkscape:label="" /></g><g id="g_31" style="fill-opacity:1.0;fill:rgb(240, 29, 10);fill-rule:nonzero;stroke:rgb(240, 29, 10);stroke-opacity:1.0;stroke-width:1.0;stroke-miterlimit:0.0;stroke-linecap:round;stroke-linejoin:round" transform="matrix(1.0, 0.0, 0.0, 1.0, 0.0, 0.0)" inkscape:label="#f01d0a"><path d="M 387.888,263.62 C 391.358,259.926 393.002,252.80800000000002 392.978,241.591 C 392.961,233.858 392.514,230.525 391.062,227.328 C 388.695,222.115 385.001,219.522 381.248,220.439 C 379.73699999999997,220.808 377.412,221.085 376.082,221.053 C 370.74399999999997,220.925 367,227.242 367,236.378 C 367,242.064 367.299,243.09 369.455,244.786 C 371.298,246.236 372.158,248.251 372.901,252.866 C 373.983,259.583 374.32099999999997,260.415 377.323,263.75 C 380.06899999999996,266.8 384.95599999999996,266.74 387.888,263.62 Z&#10;M 371.5,274.435 C 366.643,271.921 361.09799999999996,265.899 358.21,260 C 355.912,255.305 355.464,252.93699999999998 355.151,243.826 C 354.819,234.17499999999998 355.019,232.641 357.232,227.826 C 360.51000000000005,220.694 364.23999999999995,216.477 370.388,212.951 C 375.998,209.733 383.091,209.064 390.321,211.072 C 395.74600000000004,212.578 401.842,218.508 405.155,225.5 C 407.72499999999997,230.923 407.99600000000004,232.51 407.975,242 C 407.956,250.643 407.545,253.49200000000002 405.646,258.108 C 402.33500000000004,266.157 399.51800000000003,269.662 393.66,273.022 C 389.29400000000004,275.526 387.424,275.981 381.5,275.984 C 377.121,275.986 373.377,275.406 371.5,274.435 Z" id="path_32" style="fill-opacity:1.0;fill:rgb(240, 29, 10);fill-rule:nonzero" inkscape:label="" /></g><g id="g_33" style="fill-opacity:1.0;fill:rgb(0, 0, 0);fill-rule:nonzero;stroke:rgb(0, 0, 0);stroke-opacity:1.0;stroke-width:1.0;stroke-miterlimit:0.0;stroke-linecap:round;stroke-linejoin:round" transform="matrix(1.0, 0.0, 0.0, 1.0, 0.0, 0.0)" inkscape:label="#000000"><path d="M 376.674,263.024 C 374.21799999999996,260.105 373.726,258.623 372.497,250.436 C 371.949,246.785 372.142,246.25699999999998 374.395,245.23 C 379.719,242.804 382.964,229.64700000000002 379.531,224.407 C 378.097,222.21900000000002 378.029,221.59699999999998 379.145,220.89 C 383.09999999999997,218.384 388.278,221.20000000000002 391.086,227.383 C 393.447,232.583 393.721,249.287 391.562,256.461 C 388.68,266.038 381.772,269.083 376.674,263.024 Z" id="path_34" style="fill-opacity:1.0;fill:rgb(0, 0, 0);fill-rule:nonzero" inkscape:label="" /></g><g id="g_35" style="fill-opacity:1.0;fill:rgb(240, 29, 10);fill-rule:nonzero;stroke:rgb(240, 29, 10);stroke-opacity:1.0;stroke-width:1.0;stroke-miterlimit:0.0;stroke-linecap:round;stroke-linejoin:round" transform="matrix(1.0, 0.0, 0.0, 1.0, 0.0, 0.0)" inkscape:label="#f01d0a"><path d="M 282.353,276.75 C 285.671,272.357 287.806,264.608 288.601,254.081 C 289.632,240.417 286.24899999999997,233 278.986,233 C 276.858,233 274.877,233.39000000000001 274.583,233.866 C 274.28900000000004,234.342 272.96200000000005,234.52499999999998 271.636,234.271 C 268.15700000000004,233.606 265.294,235.504 263.003,239.994 C 259.736,246.398 260.63100000000003,258 264.391,258 C 265.315,258 265.87899999999996,260.215 266.27,265.383 C 266.827,272.75 268.822,278.363 271.229,279.331 C 271.928,279.612 274.164,279.878 276.199,279.921 C 279.249,279.986 280.329,279.429 282.353,276.75 Z&#10;M 264.5,288.965 C 258.432,285.673 255.206,282.163 251.694,275.032 C 248.63799999999998,268.827 248.5,268.023 248.5,256.523 C 248.5,245.30400000000003 248.68599999999998,244.14700000000002 251.284,239.216 C 252.815,236.31 255.893,232.107 258.123,229.877 C 263.861,224.139 269.03299999999996,222.04899999999998 277.554,222.022 C 289.48299999999995,221.98499999999999 297.066,227.112 302.179,238.672 C 303.986,242.758 304.176,244.752 303.764,255.405 C 303.25600000000003,268.551 302.003,272.71299999999997 296.154,280.683 C 291.379,287.19 285.24800000000005,290.268 276.117,290.741 C 269.71700000000004,291.072 267.861,290.78799999999995 264.5,288.965 Z" id="path_36" style="fill-opacity:1.0;fill:rgb(240, 29, 10);fill-rule:nonzero" inkscape:label="" /></g><g id="g_37" style="fill-opacity:1.0;fill:rgb(255, 255, 255);fill-rule:nonzero;stroke:rgb(255, 255, 255);stroke-opacity:1.0;stroke-width:1.0;stroke-miterlimit:0.0;stroke-linecap:round;stroke-linejoin:round" transform="matrix(1.0, 0.0, 0.0, 1.0, 0.0, 0.0)" inkscape:label="#ffffff"><path d="M 368.655,244.171 C 366.69599999999997,242.006 366.346,231.138 368.125,227.684 C 369.956,224.129 373.222,221 375.102,221 C 377.82099999999997,221 381.0,225.795 380.994,229.885 C 380.98600000000005,235.315 379.122,240.969 376.463,243.628 C 373.622,246.469 370.905,246.65699999999998 368.655,244.171 Z" id="path_38" style="fill-opacity:1.0;fill:rgb(255, 255, 255);fill-rule:nonzero" inkscape:label="" /></g><g id="g_39" style="fill-opacity:1.0;fill:rgb(0, 0, 0);fill-rule:nonzero;stroke:rgb(0, 0, 0);stroke-opacity:1.0;stroke-width:1.0;stroke-miterlimit:0.0;stroke-linecap:round;stroke-linejoin:round" transform="matrix(1.0, 0.0, 0.0, 1.0, 0.0, 0.0)" inkscape:label="#000000"><path d="M 271.229,279.331 C 268.842,278.37100000000004 266.829,272.77299999999997 266.302,265.633 C 265.803,258.871 265.897,258.448 268.113,257.5 C 273.481,255.204 277.85799999999995,242.34 275.054,237.101 C 273.448,234.1 274.502,233 278.986,233 C 286.24899999999997,233 289.632,240.417 288.601,254.081 C 287.806,264.608 285.671,272.357 282.353,276.75 C 280.329,279.429 279.249,279.986 276.199,279.921 C 274.164,279.878 271.928,279.612 271.229,279.331 Z" id="path_40" style="fill-opacity:1.0;fill:rgb(0, 0, 0);fill-rule:nonzero" inkscape:label="" /></g><g id="g_41" style="fill-opacity:1.0;fill:rgb(255, 255, 255);fill-rule:nonzero;stroke:rgb(255, 255, 255);stroke-opacity:1.0;stroke-width:1.0;stroke-miterlimit:0.0;stroke-linecap:round;stroke-linejoin:round" transform="matrix(1.0, 0.0, 0.0, 1.0, 0.0, 0.0)" inkscape:label="#ffffff"><path d="M 262.035,256.066 C 259.15900000000005,250.69299999999998 262.222,237.557 266.938,235.033 C 272.755,231.92 276.649,236.053 275.569,244.191 C 274.81300000000005,249.892 273.76000000000005,252.391 270.701,255.75 C 268.129,258.574 263.468,258.74399999999997 262.035,256.066 Z" id="path_42" style="fill-opacity:1.0;fill:rgb(255, 255, 255);fill-rule:nonzero" inkscape:label="" /></g><g id="g_43" style="fill-opacity:1.0;fill:rgb(29, 40, 72);fill-rule:nonzero;stroke:rgb(29, 40, 72);stroke-opacity:1.0;stroke-width:1.0;stroke-miterlimit:0.0;stroke-linecap:round;stroke-linejoin:round" transform="matrix(1.0, 0.0, 0.0, 1.0, 0.0, 0.0)" inkscape:label="#1d2848"><path d="M 148.557,296.777 C 145.14,291.899 148.202,278.628 153.917,273.542 C 161.266,267.00199999999995 162.147,286.514 154.899,295.307 C 151.352,299.611 150.654,299.772 148.557,296.777 Z" id="path_44" style="fill-opacity:1.0;fill:rgb(29, 40, 72);fill-rule:nonzero" inkscape:label="" /></g><g id="g_45" style="fill-opacity:1.0;fill:rgb(29, 40, 72);fill-rule:nonzero;stroke:rgb(29, 40, 72);stroke-opacity:1.0;stroke-width:1.0;stroke-miterlimit:0.0;stroke-linecap:round;stroke-linejoin:round" transform="matrix(1.0, 0.0, 0.0, 1.0, 0.0, 0.0)" inkscape:label="#1d2848"><path d="M 399.726,424.81 C 399.42,422.99 398.83000000000004,420.639 398.415,419.586 C 397.91400000000004,418.31600000000003 398.02299999999997,417.89599999999996 398.741,418.34 C 400.19399999999996,419.238 407.305,411.016 412.009,403 C 412.009,403 415.823,396.5 415.823,396.5 C 415.823,396.5 407.162,395.852 407.162,395.852 C 402.39799999999997,395.49499999999995 390.175,393.50600000000003 380,391.432 C 365.62,388.50100000000003 359.05,387.644 350.5,387.581 C 350.5,387.581 339.5,387.5 339.5,387.5 C 339.5,387.5 325.5,393.155 325.5,393.155 C 302.174,402.577 302.512,402.5 284.5,402.5 C 268.58,402.5 268.446,402.481 257.572,398.718 C 229.131,388.87600000000003 199.984,368.76 182.679,347.032 C 175.74,338.31899999999996 172.26799999999997,331.373 171.378,324.419 C 171.378,324.419 170.748,319.5 170.748,319.5 C 170.748,319.5 177.776,330 177.776,330 C 181.64100000000002,335.775 187.495,343.59499999999997 190.786,347.378 C 207.718,366.84 235.961,385.424 261,393.577 C 267.931,395.834 271.82599999999996,396.423 282.099,396.769 C 297.383,397.283 301.348,396.406 323,387.719 C 323,387.719 338.5,381.5 338.5,381.5 C 338.5,381.5 350,381.556 350,381.556 C 359.288,381.601 365.603,382.419 382.833,385.806 C 394.56600000000003,388.113 406.94100000000003,389.994 410.333,389.987 C 418.08500000000004,389.97 432.918,386.951 439.806,383.988 C 446.26,381.211 453.60200000000003,373.427 454.718,368.177 C 455.148,366.15500000000003 455.5,355.275 455.5,344 C 455.5,325.635 455.27,322.771 453.292,316.5 C 448.768,302.161 442.411,295.554 431.503,293.856 C 425.025,292.848 424.45399999999995,292.943 411.667,297.152 C 399.229,301.246 397.863,301.486 387,301.493 C 377.571,301.49899999999997 374.78,301.146 371.5,299.531 C 371.5,299.531 367.5,297.561 367.5,297.561 C 367.5,297.561 372.5,297.295 372.5,297.295 C 386.841,296.53000000000003 399.416,294.71999999999997 406.566,292.39 C 417.07099999999997,288.967 417.533,288.694 415.839,286.91 C 414.711,285.72200000000004 414.928,285.082 417.212,282.853 C 417.212,282.853 419.924,280.205 419.924,280.205 C 419.924,280.205 421.928,283.603 421.928,283.603 C 423.796,286.769 424.28400000000005,287 429.1,287 C 436.857,287 441.71799999999996,288.89 447.462,294.139 C 457.763,303.553 463.209,321.687 463.189,346.5 C 463.172,367.432 461.168,374.869 453.466,382.581 C 448.279,387.77500000000003 440.753,391.449 429.719,394.173 C 422.634,395.922 421,396.67600000000004 421,398.196 C 421,402.58700000000005 411.31,417.515 403.723,424.81 C 403.723,424.81 400.281,428.12 400.281,428.12 C 400.281,428.12 399.726,424.81 399.726,424.81 Z" id="path_46" style="fill-opacity:1.0;fill:rgb(29, 40, 72);fill-rule:nonzero" inkscape:label="" /></g><g id="g_47" style="fill-opacity:1.0;fill:rgb(50, 80, 176);fill-rule:nonzero;stroke:rgb(50, 80, 176);stroke-opacity:1.0;stroke-width:1.0;stroke-miterlimit:0.0;stroke-linecap:round;stroke-linejoin:round" transform="matrix(1.0, 0.0, 0.0, 1.0, 0.0, 0.0)" inkscape:label="#3250b0"><path d="M 154.899,295.307 C 162.147,286.514 161.266,267.00199999999995 153.917,273.542 C 148.202,278.628 145.14,291.899 148.557,296.777 C 150.654,299.772 151.352,299.611 154.899,295.307 Z&#10;M 412,321.712 C 414.813,320.296 415.881,315.767 413.95,313.44 C 410.49399999999997,309.276 394,315.12899999999996 394,320.52 C 394,322.948 394.163,322.999 401.75,322.985 C 406.012,322.97700000000003 410.625,322.404 412,321.712 Z&#10;M 299.068,328.398 C 305.453,326.51500000000004 307,325.434 307,322.853 C 307,320.306 303.23699999999997,319 295.9,319 C 286.38399999999996,319 282.215,323.215 287,328 C 289.419,330.419 291.935,330.502 299.068,328.398 Z&#10;M 254.307,330.75 C 254.307,330.75 253.868,317.5 253.868,317.5 C 253.868,317.5 256.946,312.264 256.946,312.264 C 259.10200000000003,308.59700000000004 261.289,306.383 264.245,304.875 C 268.193,302.861 269.211,302.779 279.983,303.599 C 286.317,304.081 297.82099999999997,304.481 305.546,304.488 C 317.861,304.499 319.956,304.257 322.546,302.532 C 322.546,302.532 325.5,300.564 325.5,300.564 C 325.5,300.564 322.5,299.9 322.5,299.9 C 320.85,299.53499999999997 316.913,299.183 313.75,299.118 C 310.587,299.053 308,298.457 308,298.457 C 308,298.457 309.779,295.556 311.955,292.675 C 319.98699999999997,282.03700000000003 323.706,270.967 324.61,255 C 325.149,245.478 324.961,243.74099999999999 322.588,236.343 C 316.67400000000004,217.905 302.64500000000004,204.184 284.869,199.453 C 277.56800000000004,197.51 260.795,197.58200000000002 253.932,199.586 C 234.28099999999998,205.32500000000002 215.79899999999998,225.079 210.379,246.137 C 208.399,253.828 208.982,270.441 211.533,279 C 216.153,294.505 229.284,308.81100000000004 244,314.374 C 244,314.374 248.5,316.075 248.5,316.075 C 248.5,316.075 248.176,325.173 248.176,325.173 C 247.786,336.103 248.28300000000002,338.43199999999996 251.686,341.585 C 253.119,342.91299999999995 254.519,344 254.519,344 C 254.519,344 254.54899999999998,338.038 254.307,330.75 Z&#10;M 107.407,508.646 C 109.485,497.569 111.078,473.81 111.977,440.5 C 114.611,342.881 116.13000000000001,303.769 116.909,313.5 C 117.07100000000001,315.53 118.06099999999999,312.995 119.969,305.662 C 128.051,274.602 142.08999999999997,244.937 159.135,222.904 C 162.498,218.557 165.699,215 165.699,215 C 165.699,215 168.40900000000002,217.475 171.174,220.5 C 179.77100000000002,229.907 180.615,226.593 172.852,213.91 C 161.685,195.666 157.814,188.16199999999998 158.482,186.057 C 160.51,179.666 196.606,149 202.1,149 C 204.19299999999998,149 211.07,156.37199999999999 218.434,166.509 C 223.922,174.064 228.578,178.984 230.25,178.995 C 230.25,178.995 231,178.192 231,177.203 C 231,175.572 231.672,175.472 238.25,176.127 C 246.625,176.96 250.518,178.233 261.529,183.744 C 265.913,185.938 273.722,189.416 278.883,191.471 C 288.078,195.133 288.489,195.2 299.383,194.837 C 309.325,194.505 311.2,194.136 317.123,191.345 C 330.747,184.925 335.82899999999995,176.916 334.756,163.553 C 333.976,153.838 326.11899999999997,140.202 317.756,134.052 C 317.756,134.052 313.606,131 313.606,131 C 313.606,131 316.573,131 316.573,131 C 319.90099999999995,131 331.788,134.095 339.753,137.035 C 354.03299999999996,142.307 368.505,151.6 380.77,163.374 C 388.186,170.494 398.963,183.37 398.99,185.142 C 398.99,185.142 393.902,185.946 387.671,186.144 C 376.686,186.493 376.084,186.63199999999998 367.813,190.73 C 356.83,196.173 347.864,205.314 342.335,216.707 C 338.78499999999997,224.021 338.53,225.176 338.186,235.5 C 337.416,258.594 345.14099999999996,274.379 362.796,285.79 C 371.96999999999997,291.72 378.002,293.24 390.765,292.839 C 400.645,292.529 402.13399999999996,292.216 408.395,289.13 C 413.85999999999996,286.437 415.401,286.031 416.071,287.115 C 417.11,288.797 416.565,289.105 406.5,292.516 C 399.617,294.84900000000005 396.196,295.32199999999995 382,295.905 C 382,295.905 365.5,296.583 365.5,296.583 C 365.5,296.583 370.5,299.042 370.5,299.042 C 374.935,301.222 376.8,301.49899999999997 387,301.493 C 397.863,301.486 399.229,301.246 411.667,297.152 C 424.45399999999995,292.943 425.025,292.848 431.503,293.856 C 442.411,295.554 448.768,302.161 453.292,316.5 C 455.27,322.771 455.5,325.635 455.5,344 C 455.5,355.275 455.148,366.15500000000003 454.718,368.177 C 453.60200000000003,373.427 446.26,381.211 439.806,383.988 C 432.918,386.951 418.08500000000004,389.97 410.333,389.987 C 406.94100000000003,389.994 394.56600000000003,388.113 382.833,385.806 C 365.603,382.419 359.288,381.601 350,381.556 C 350,381.556 338.5,381.5 338.5,381.5 C 338.5,381.5 323,387.719 323,387.719 C 301.348,396.406 297.383,397.283 282.099,396.769 C 271.82599999999996,396.423 267.931,395.834 261,393.577 C 235.961,385.424 207.718,366.84 190.786,347.378 C 187.495,343.59499999999997 181.73,335.775 177.974,330 C 166.266,311.996 164.939,311.006 152.5,311.015 C 146.066,311.019 137.947,314.053 134.854,317.608 C 128.77900000000002,324.591 128.44,344.574 134.084,362.966 C 140.675,384.445 156.633,404.95 175.114,415.688 C 179.451,418.20799999999997 183,420.408 183,420.408 C 183,420.408 181.875,424.981 180.5,430.401 C 178.248,439.277 178.002,442.20599999999996 178.019,459.878 C 178.032,473.514 178.636,484.076 180,494.5 C 181.079,502.75 181.971,510.062 181.981,510.75 C 181.99599999999998,511.728 173.821,512 144.389,512 C 144.389,512 106.777,512 106.777,512 C 106.777,512 107.407,508.646 107.407,508.646 Z" id="path_48" style="fill-opacity:1.0;fill:rgb(50, 80, 176);fill-rule:nonzero" inkscape:label="" /></g><g id="g_49" style="fill-opacity:1.0;fill:rgb(43, 66, 141);fill-rule:nonzero;stroke:rgb(43, 66, 141);stroke-opacity:1.0;stroke-width:1.0;stroke-miterlimit:0.0;stroke-linecap:round;stroke-linejoin:round" transform="matrix(1.0, 0.0, 0.0, 1.0, 0.0, 0.0)" inkscape:label="#2b428d" /><g id="g_50" style="fill-opacity:1.0;fill:rgb(42, 64, 135);fill-rule:nonzero;stroke:rgb(42, 64, 135);stroke-opacity:1.0;stroke-width:1.0;stroke-miterlimit:0.0;stroke-linecap:round;stroke-linejoin:round" transform="matrix(1.0, 0.0, 0.0, 1.0, 0.0, 0.0)" inkscape:label="#2a4087" /><g id="g_51" style="fill-opacity:1.0;fill:rgb(29, 40, 72);fill-rule:nonzero;stroke:rgb(29, 40, 72);stroke-opacity:1.0;stroke-width:1.0;stroke-miterlimit:0.0;stroke-linecap:round;stroke-linejoin:round" transform="matrix(1.0, 0.0, 0.0, 1.0, 0.0, 0.0)" inkscape:label="#1d2848"><path d="M 252.367,342.228 C 248.833,339.365 248,336.54400000000004 248,327.432 C 248,319.451 249.325,311.991 251.184,309.5 C 255.2,304.12 258.825,300.78000000000003 262.662,298.922 C 266.964,296.84000000000003 267.986,296.755 279.868,297.504 C 286.816,297.942 294.3,298.50600000000003 296.5,298.757 C 298.7,299.008 305.45,299.40000000000003 311.5,299.629 C 326.061,300.18 326.078,300.18399999999997 322.546,302.534 C 319.95799999999997,304.256 317.854,304.499 305.546,304.488 C 297.82099999999997,304.481 286.317,304.081 279.983,303.599 C 269.211,302.779 268.193,302.861 264.245,304.875 C 261.289,306.383 259.10200000000003,308.59700000000004 256.946,312.264 C 256.946,312.264 253.868,317.5 253.868,317.5 C 253.868,317.5 254.307,330.75 254.307,330.75 C 254.54899999999998,338.038 254.623,343.978 254.623,343.978 C 254.623,343.978 253.54,343.178 252.367,342.228 Z" id="path_52" style="fill-opacity:1.0;fill:rgb(29, 40, 72);fill-rule:nonzero" inkscape:label="" /></g><g id="g_53" style="fill-opacity:1.0;fill:rgb(45, 70, 148);fill-rule:nonzero;stroke:rgb(45, 70, 148);stroke-opacity:1.0;stroke-width:1.0;stroke-miterlimit:0.0;stroke-linecap:round;stroke-linejoin:round" transform="matrix(1.0, 0.0, 0.0, 1.0, 0.0, 0.0)" inkscape:label="#2d4694" /><g id="g_54" style="fill-opacity:1.0;fill:rgb(29, 40, 72);fill-rule:nonzero;stroke:rgb(29, 40, 72);stroke-opacity:1.0;stroke-width:1.0;stroke-miterlimit:0.0;stroke-linecap:round;stroke-linejoin:round" transform="matrix(1.0, 0.0, 0.0, 1.0, 0.0, 0.0)" inkscape:label="#1d2848"><path d="M 394,320.52 C 394,315.12899999999996 410.49399999999997,309.276 413.95,313.44 C 415.881,315.767 414.813,320.296 412,321.712 C 410.625,322.404 406.012,322.97700000000003 401.75,322.985 C 394.163,322.999 394,322.948 394,320.52 Z" id="path_55" style="fill-opacity:1.0;fill:rgb(29, 40, 72);fill-rule:nonzero" inkscape:label="" /></g><g id="g_56" style="fill-opacity:1.0;fill:rgb(29, 40, 72);fill-rule:nonzero;stroke:rgb(29, 40, 72);stroke-opacity:1.0;stroke-width:1.0;stroke-miterlimit:0.0;stroke-linecap:round;stroke-linejoin:round" transform="matrix(1.0, 0.0, 0.0, 1.0, 0.0, 0.0)" inkscape:label="#1d2848"><path d="M 287,328 C 282.215,323.215 286.38399999999996,319 295.9,319 C 303.23699999999997,319 307,320.306 307,322.853 C 307,325.434 305.453,326.51500000000004 299.068,328.398 C 291.935,330.502 289.419,330.419 287,328 Z" id="path_57" style="fill-opacity:1.0;fill:rgb(29, 40, 72);fill-rule:nonzero" inkscape:label="" /></g><g id="g_58" style="fill-opacity:1.0;fill:rgb(181, 49, 71);fill-rule:nonzero;stroke:rgb(181, 49, 71);stroke-opacity:1.0;stroke-width:1.0;stroke-miterlimit:0.0;stroke-linecap:round;stroke-linejoin:round" transform="matrix(1.0, 0.0, 0.0, 1.0, 0.0, 0.0)" inkscape:label="#b53147"><path d="M 371.604,426.5 C 366.863,413.996 359.13100000000003,401.526 350.627,392.676 C 350.627,392.676 345.173,387 345.173,387 C 345.173,387 350.509,387 350.509,387 C 355.636,387 356.00399999999996,387.186 359.919,391.75 C 368.294,401.513 374.29400000000004,416.172 373.802,425.666 C 373.802,425.666 373.5,431.5 373.5,431.5 C 373.5,431.5 371.604,426.5 371.604,426.5 Z" id="path_59" style="fill-opacity:1.0;fill:rgb(181, 49, 71);fill-rule:nonzero" inkscape:label="" /></g><g id="g_60" style="fill-opacity:1.0;fill:rgb(232, 77, 102);fill-rule:nonzero;stroke:rgb(232, 77, 102);stroke-opacity:1.0;stroke-width:1.0;stroke-miterlimit:0.0;stroke-linecap:round;stroke-linejoin:round" transform="matrix(1.0, 0.0, 0.0, 1.0, 0.0, 0.0)" inkscape:label="#e84d66"><path d="M 373.855,464.533 C 372.064,463.526 369.70099999999996,459.89300000000003 366.53,453.273 C 356.30199999999996,431.91900000000004 337.867,409.377 323.75,400.961 C 320.587,399.076 318,396.842 318,396.842 C 318,396.01099999999997 337.70599999999996,388.208 341.948,387.36 C 344.614,386.827 345.556,387.399 350.512,392.557 C 359.477,401.887 364.1,409.461 372.757,429 C 373.725,431.185 373.873,430.73199999999997 373.932,425.407 C 374.041,415.554 368.776,402.714 360.418,392.452 C 357.303,388.627 356.413,386.974 357.66,387.322 C 358.672,387.605 364.053,388.60600000000005 369.617,389.547 C 369.617,389.547 379.734,391.259 379.734,391.259 C 379.734,391.259 382.824,396.379 382.824,396.379 C 392.807,412.925 395.573,426.429 392.923,445.678 C 391.641,454.991 389.107,461.228 385.699,463.461 C 382.118,465.807 376.95500000000004,466.27500000000003 373.855,464.533 Z" id="path_61" style="fill-opacity:1.0;fill:rgb(232, 77, 102);fill-rule:nonzero" inkscape:label="" /></g><g id="g_62" style="fill-opacity:1.0;fill:rgb(181, 49, 71);fill-rule:nonzero;stroke:rgb(181, 49, 71);stroke-opacity:1.0;stroke-width:1.0;stroke-miterlimit:0.0;stroke-linecap:round;stroke-linejoin:round" transform="matrix(1.0, 0.0, 0.0, 1.0, 0.0, 0.0)" inkscape:label="#b53147"><path d="M 370.328,470.059 C 367.426,468.28900000000004 362,461.59000000000003 362,459.776 C 362,457.067 350.702,436.951 344.873,429.283 C 335.036,416.34000000000003 325.852,408.35900000000004 313.878,402.345 C 313.878,402.345 308.684,399.736 308.684,399.736 C 308.684,399.736 312.879,398.318 312.879,398.318 C 317.021,396.918 317.152,396.94699999999995 323.287,400.655 C 338.01599999999996,409.558 356.18399999999997,431.675 366.556,453.329 C 370.457,461.474 371.849,463.437 374.674,464.784 C 377.719,466.236 378.529,466.255 382.259,464.955 C 389.80400000000003,462.32599999999996 392.63,455.279 393.666,436.5 C 394.07099999999997,429.165 393.788,424.683 392.607,419.681 C 390.898,412.44399999999996 385.529,399.957 381.991,394.988 C 379.892,392.04 379.891,392 381.867,392 C 386.391,392 388.607,393.84499999999997 391.644,400.145 C 399.27,415.96099999999996 401.839,429.319 400.063,443.923 C 398.262,458.733 394.84499999999997,466.033 387.881,469.947 C 383.04999999999995,472.662 374.685,472.716 370.328,470.059 Z" id="path_63" style="fill-opacity:1.0;fill:rgb(181, 49, 71);fill-rule:nonzero" inkscape:label="" /></g><g id="g_64" style="fill-opacity:1.0;fill:rgb(196, 217, 245);fill-rule:nonzero;stroke:rgb(196, 217, 245);stroke-opacity:1.0;stroke-width:1.0;stroke-miterlimit:0.0;stroke-linecap:round;stroke-linejoin:round" transform="matrix(1.0, 0.0, 0.0, 1.0, 0.0, 0.0)" inkscape:label="#c4d9f5"><path d="M 398.693,418 C 396.661,411.552 394.231,405.486 391.334,399.631 C 389.154,395.22499999999997 388.449,392.959 389.369,393.312 C 391.29900000000004,394.053 405.367,395.953 411.163,396.256 C 411.163,396.256 415.826,396.5 415.826,396.5 C 415.826,396.5 411.937,403.127 411.937,403.127 C 407.007,411.527 399.35999999999996,420.115 398.693,418 Z" id="path_65" style="fill-opacity:1.0;fill:rgb(196, 217, 245);fill-rule:nonzero" inkscape:label="" /></g><g id="g_66" style="fill-opacity:1.0;fill:rgb(196, 217, 245);fill-rule:nonzero;stroke:rgb(196, 217, 245);stroke-opacity:1.0;stroke-width:1.0;stroke-miterlimit:0.0;stroke-linecap:round;stroke-linejoin:round" transform="matrix(1.0, 0.0, 0.0, 1.0, 0.0, 0.0)" inkscape:label="#c4d9f5"><path d="M 265.008,439.934 C 238.20799999999997,434.576 209.274,425.528 188.554,416.028 C 168.066,406.634 153.50699999999998,392.166 144.093,371.844 C 139.191,361.262 137.45399999999998,354.26700000000005 134.968,335.095 C 133.058,320.36400000000003 133.04700000000003,319.604 134.735,317.704 C 137.98700000000002,314.043 146.016,311.02 152.5,311.015 C 164.969,311.006 170.315,314.643 171.333,323.827 C 172.139,331.099 175.559,338.092 182.679,347.032 C 199.943,368.709 229.726,389.282 257.072,398.421 C 272.503,403.578 280.236,404.61499999999995 292.169,403.126 C 297.56899999999996,402.452 303.35499999999996,401.424 305.025,400.842 C 308.75399999999996,399.542 311.852,400.646 321,406.531 C 330.448,412.609 336.301,418.163 344.618,428.942 C 344.618,428.942 351.993,438.5 351.993,438.5 C 351.993,438.5 347.247,439.184 347.247,439.184 C 337.548,440.581 308.951,441.99399999999997 292,441.914 C 279.09,441.853 272.01,441.334 265.008,439.934 Z" id="path_67" style="fill-opacity:1.0;fill:rgb(196, 217, 245);fill-rule:nonzero" inkscape:label="" /></g><g id="g_68" style="fill-opacity:1.0;fill:rgb(73, 87, 118);fill-rule:nonzero;stroke:rgb(73, 87, 118);stroke-opacity:1.0;stroke-width:1.0;stroke-miterlimit:0.0;stroke-linecap:round;stroke-linejoin:round" transform="matrix(1.0, 0.0, 0.0, 1.0, 0.0, 0.0)" inkscape:label="#495776" /><g id="g_69" style="fill-opacity:1.0;fill:rgb(29, 40, 72);fill-rule:nonzero;stroke:rgb(29, 40, 72);stroke-opacity:1.0;stroke-width:1.0;stroke-miterlimit:0.0;stroke-linecap:round;stroke-linejoin:round" transform="matrix(1.0, 0.0, 0.0, 1.0, 0.0, 0.0)" inkscape:label="#1d2848"><path d="M 180.502,499.75 C 179.395,492.117 178.55200000000002,478.83 178.264,464.5 C 177.793,441.07 178.123,437.817 182.545,422.426 C 183.04899999999998,420.67 181.921,419.643 175.185,415.729 C 148.351,400.138 130.022,367.989 130.013,336.5 C 130.011,329.355 131.617,321.284 132.804,322.471 C 133.166,322.833 134.209,329.063 135.12,336.315 C 137.266,353.392 139.335,361.592 144.089,371.844 C 153.516,392.175 168.062,406.62899999999996 188.554,416.03 C 209.425,425.604 239.312,434.883 266.089,440.102 C 282.22,443.246 313.107,442.96999999999997 346.064,439.388 C 351.307,438.818 351.73,438.93899999999996 353.394,441.479 C 354.365,442.961 354.519,444.815 354.519,444.815 C 354.519,444.815 351.543,445.69100000000003 348.689,445.978 C 348.689,445.978 343.5,446.5 343.5,446.5 C 343.5,446.5 342.706,453 342.706,453 C 341.772,460.646 342.57800000000003,479.62 344.555,496.5 C 346.459,512.756 346.535,512 343,512 C 341.35,512 339.98,511.25 339.98,511.25 C 339.98,511.25 339.286,504.65 338.461,497.5 C 337.636,490.35 336.675,476.052 336.324,465.726 C 336.324,465.726 335.686,446.953 335.686,446.953 C 335.686,446.953 306.093,447.607 306.093,447.607 C 280.582,448.17100000000005 275.259,448.02799999999996 267.5,446.566 C 245.487,442.419 214.172,433.379 197.593,426.387 C 193.191,424.53 189.262,423.347 188.863,423.756 C 188.464,424.16499999999996 187.207,428.072 186.069,432.438 C 182.635,445.614 183.262,476.098 187.609,507.25 C 187.609,507.25 188.272,512 188.272,512 C 188.272,512 185.275,512 185.275,512 C 185.275,512 182.279,512 182.279,512 C 182.279,512 180.502,499.75 180.502,499.75 Z" id="path_70" style="fill-opacity:1.0;fill:rgb(29, 40, 72);fill-rule:nonzero" inkscape:label="" /></g><g id="g_71" style="fill-opacity:1.0;fill:rgb(73, 87, 118);fill-rule:nonzero;stroke:rgb(73, 87, 118);stroke-opacity:1.0;stroke-width:1.0;stroke-miterlimit:0.0;stroke-linecap:round;stroke-linejoin:round" transform="matrix(1.0, 0.0, 0.0, 1.0, 0.0, 0.0)" inkscape:label="#495776"><path d="M 289.28,442.264 C 291.909,442.057 295.95899999999995,442.059 298.28,442.269 C 300.601,442.479 298.45,442.64799999999997 293.5,442.645 C 288.55,442.642 286.65099999999995,442.471 289.28,442.264 Z" id="path_72" style="fill-opacity:1.0;fill:rgb(73, 87, 118);fill-rule:nonzero" inkscape:label="" /></g><g id="g_73" style="fill-opacity:1.0;fill:rgb(196, 217, 245);fill-rule:nonzero;stroke:rgb(196, 217, 245);stroke-opacity:1.0;stroke-width:1.0;stroke-miterlimit:0.0;stroke-linecap:round;stroke-linejoin:round" transform="matrix(1.0, 0.0, 0.0, 1.0, 0.0, 0.0)" inkscape:label="#c4d9f5"><path d="M 186.518,499.75 C 185.445,492.285 184.565,478.488 184.265,464.429 C 183.809,443.054 183.934,440.739 185.951,432.929 C 187.149,428.29299999999995 188.45600000000002,424.16499999999996 188.858,423.756 C 189.26,423.347 193.191,424.53 197.593,426.387 C 214.172,433.379 245.487,442.419 267.5,446.566 C 275.259,448.02799999999996 280.582,448.17100000000005 306.093,447.607 C 306.093,447.607 335.686,446.953 335.686,446.953 C 335.686,446.953 336.324,465.726 336.324,465.726 C 336.675,476.052 337.636,490.35 338.461,497.5 C 339.286,504.65 339.98,511.25 339.98,511.25 C 339.98,511.25 305.862,512 264.139,512 C 264.139,512 188.279,512 188.279,512 C 188.279,512 186.518,499.75 186.518,499.75 Z" id="path_74" style="fill-opacity:1.0;fill:rgb(196, 217, 245);fill-rule:nonzero" inkscape:label="" /></g></g></svg>