<svg xmlns:inkscape="http://www.inkscape.org/namespaces/inkscape" xmlns:sodipodi="http://sodipodi.sourceforge.net/DTD/sodipodi-0.dtd" xmlns:xlink="http://www.w3.org/1999/xlink" height="276" style="fill: none; stroke: none" version="1.1" viewBox="0 0 277 276" width="277" xmlns="http://www.w3.org/2000/svg" inkscape:export-xdpi="96" inkscape:export-ydpi="96"><defs /><sodipodi:namedview bordercolor="#666666" borderlayer="true" pagecolor="#ffffff" inkscape:pagecheckerboard="true" /><g id="g_1" style="" transform="matrix(1.0, 0.0, 0.0, 1.0, 0.0, 0.0)" inkscape:groupmode="layer" inkscape:label="ShapeLayer"><g id="stroke"><use style="stroke:rgb(218, 217, 217);stroke-opacity:1.0;stroke-width:1.0;stroke-miterlimit:0.0;stroke-linecap:round;stroke-linejoin:round" xlink:href="#g_2" /><g id="g_2" style="fill-opacity:1.0;fill:rgb(218, 217, 217)" transform="matrix(1.0, 0.0, 0.0, 1.0, 0.0, 0.0)"><path d="M 231.625,271.124 C 232.908,268.442 234.08,264.73 234.229,262.874 C 234.37800000000001,261.01800000000003 234.93200000000002,259.19 235.46,258.811 C 236.02800000000002,258.40299999999996 235.722,257.35 234.71,256.232 C 233.274,254.64500000000004 233.029,252.434 233.18,242.421 C 233.354,230.89999999999998 233.38400000000001,230.752 234.054,238 C 234.482,242.625 234.606,239.175 234.378,229 C 234.17499999999998,219.925 233.737,209.858 233.405,206.629 C 232.935,202.05599999999998 233.07899999999998,200.931 234.058,201.536 C 235.0,202.118 235.129,201.71 234.572,199.906 C 234.16400000000002,198.582 233.00500000000002,194.35 231.997,190.5 C 229.68300000000002,181.664 225.527,171.24 223.367,168.853 C 222.328,167.705 221.598,164.869 221.411,161.26 C 220.899,151.357 218.98399999999998,143.959 214.504,134.57 C 207.2,119.262 198.696,112.605 186.5,112.647 C 183.2,112.658 176.72400000000002,113.036 172.109,113.486 C 172.109,113.486 163.718,114.305 163.718,114.305 C 163.718,114.305 167.795,108.403 167.795,108.403 C 170.03699999999998,105.15700000000001 176.21300000000002,98.0 181.52,92.5 C 186.827,87.0 192.03,80.831 193.084,78.79 C 196.541,72.09400000000001 195.384,65.056 189.011,54.016 C 185.29399999999998,47.577 186.96,40.371 193.249,35.677 C 202.191,29.003 209.15699999999998,26.009 242.5,14.51 C 255.7,9.958 268.675,5.279999999999999 271.333,4.116 C 273.99100000000004,2.952 276.583,2 276.583,2 C 276.583,2 277,63.650000000000006 277,139 C 277,139 277,276 277,276 C 277,276 253.146,276 253.146,276 C 253.146,276 229.292,276 229.292,276 C 229.292,276 231.625,271.124 231.625,271.124 Z&#10;M 0,139.2 C 0,34.132999999999996 0.2779999999999999,2.122 1.2,1.2 C 2.0709999999999997,0.32899999999999996 9.466000000000001,0 28.196,0 C 51.814,0 54.52,0.17799999999999994 60.246,2.113 C 67.181,4.457 70.551,7.159 71.523,11.154 C 72.339,14.508 67.804,19.776999999999997 57.301,27.682 C 48.160000000000004,34.562 42.015,41.589 42.006,45.173 C 41.998,48.634 46.161,53.531 51.376,56.193 C 53.644,57.351 63.471,60.92 73.214,64.123 C 101.689,73.485 106.858,76.48899999999999 110.561,85.823 C 112.296,90.198 112.206,96.711 110.218,110.473 C 110.218,110.473 109.5,115.447 109.5,115.447 C 109.5,115.447 100.994,116.572 100.994,116.572 C 91.786,117.79 87.01,119.721 84.561,123.217 C 82.798,125.734 82.532,130.63899999999998 83.956,134.384 C 84.482,135.767 85.42200000000001,140.73299999999998 86.046,145.42 C 87.02600000000001,152.786 86.952,154.63 85.495,159.015 C 83.753,164.259 79.449,172.60500000000002 78.035,173.479 C 77.592,173.75300000000001 75.294,178.594 72.929,184.238 C 70.56400000000001,189.882 68.276,194.743 67.845,195.04 C 67.414,195.337 66.12100000000001,201.41199999999998 64.971,208.54 C 62.17400000000001,225.87699999999998 60.035000000000004,230.326 49.124,241.5 C 37.055,253.86 30.303,262.348 26.657,269.741 C 26.657,269.741 23.571,276 23.571,276 C 23.571,276 11.785,276 11.785,276 C 11.785,276 0,276 0,276 C 0,276 0,139.2 0,139.2 Z" style="fill-opacity:1.0;fill:rgb(218, 217, 217)" /></g></g><g id="g_4"><use style="stroke:rgb(245, 190, 30);stroke-opacity:1.0;stroke-width:1.0;stroke-miterlimit:0.0;stroke-linecap:round;stroke-linejoin:round" xlink:href="#g_3" /><g id="g_3" style="fill-opacity:1.0;fill:rgb(245, 190, 30)" transform="matrix(1.0, 0.0, 0.0, 1.0, 0.0, 0.0)"><path d="M 109.486,114.796 C 109.867,111.33300000000001 110.578,106.7 111.065,104.5 C 112.54899999999999,97.798 112.149,89.508 110.115,84.833 C 106.336,76.14699999999999 101.432,73.402 73.012,64.057 C 63.38,60.89 53.644,57.351 51.376,56.193 C 46.161,53.531 41.998,48.634 42.006,45.173 C 42.015,41.589 48.160000000000004,34.562 57.301,27.682 C 67.804,19.776999999999997 72.339,14.508 71.523,11.154 C 70.564,7.21 67.21,4.4719999999999995 60.5,2.155 C 60.5,2.155 54.5,0.083 54.5,0.083 C 54.5,0.083 88.595,0.042 88.595,0.042 C 121.026,0.0020000000000000018 122.775,0.09399999999999986 124.435,1.928 C 125.462,3.0629999999999997 125.935,4.631 125.583,5.739 C 124.334,9.674 114.651,17.229 101,24.921 C 91.148,30.472 83,38.845 83,43.42 C 83,48.729 92.128,55.786 107.81,62.603 C 118.339,67.18 124.478,71.66399999999999 126.925,76.564 C 129.48499999999999,81.69 129.478,85.716 126.888,98.5 C 125.774,104.0 124.55499999999999,111.2 124.181,114.5 C 124.181,114.5 123.5,120.5 123.5,120.5 C 123.5,120.5 116.146,120.796 116.146,120.796 C 116.146,120.796 108.793,121.092 108.793,121.092 C 108.793,121.092 109.486,114.796 109.486,114.796 Z" style="fill-opacity:1.0;fill:rgb(245, 190, 30)" /></g></g><g id="g_6"><use style="stroke:rgb(155, 67, 152);stroke-opacity:1.0;stroke-width:1.0;stroke-miterlimit:0.0;stroke-linecap:round;stroke-linejoin:round" xlink:href="#g_5" /><g id="g_5" style="fill-opacity:1.0;fill:rgb(155, 67, 152)" transform="matrix(1.0, 0.0, 0.0, 1.0, 0.0, 0.0)"><path d="M 149,119.172 C 149,116.905 158.392,96.146 159.936,95 C 159.936,95 162.78799999999998,90.694 165.451,86.043 C 173.218,72.476 172.749,67.266 162.787,56.454 C 159.77,53.179 156.812,49.571000000000005 156.214,48.435 C 154.959,46.049 155.971,40.308 158.21,37.111 C 161.197,32.846 172.793,26.153 187.5,20.206 C 216.697,8.399 227.21,3.657 229.02,1.476 C 229.69400000000002,0.6639999999999999 230.977,0.009999999999999998 231.872,0.022 C 234.233,0.054 229.875,3.2740000000000005 222.5,6.945 C 215.517,10.421 192.96,20 191.757,20 C 189.348,20 165.889,32.271 162.287,35.415 C 154.853,41.903999999999996 155.581,47.197 165.256,57 C 170.664,62.480000000000004 172.281,66.429 171.806,72.999 C 171.39000000000001,78.752 169.34300000000002,83.021 158.639,100.455 C 156.62800000000001,103.73 153.999,109.468 152.795,113.205 C 151.59099999999998,116.942 149.803,120 149.803,120 C 149.803,120 149,119.172 149,119.172 Z&#10;M 211.868,146.28 C 209.048,143.643 207.35399999999998,141.38199999999998 208.027,141.158 C 208.69,140.93699999999998 210.54899999999998,142.273 212.158,144.128 C 212.158,144.128 215.084,147.5 215.084,147.5 C 215.084,147.5 216.924,145.285 216.924,145.285 C 216.924,145.285 218.764,143.07 218.764,143.07 C 218.764,143.07 219.382,146.16 219.382,146.16 C 220.264,150.569 220.18099999999998,151 218.457,151 C 217.608,151 214.643,148.876 211.868,146.28 Z&#10;M 232.591,265.75 C 233.03400000000002,263.123 232.857,262 232.004,262 C 231.334,262 231.039,262.661 231.349,263.468 C 231.659,264.27500000000003 231.52700000000002,265.174 231.056,265.465 C 230.585,265.756 230.29899999999998,264.56 230.42,262.807 C 230.541,261.05400000000003 231.171,259.443 231.82,259.227 C 232.469,259.01099999999997 232.99300000000002,258.08399999999995 232.985,257.167 C 232.97400000000002,255.94999999999996 232.754,255.84 232.17,256.759 C 231.73,257.451 231.54500000000002,255.201 231.758,251.759 C 232.268,243.51 232.822,242.15699999999998 232.921,248.921 C 232.97299999999998,252.49099999999999 233.57000000000002,254.972 234.669,256.187 C 236.233,257.915 236.217,258.13 234.419,259.59 C 233.363,260.447 233.111,260.834 233.857,260.449 C 234.931,259.89500000000004 235.063,260.453 234.492,263.125 C 233.42499999999998,268.115 231.81900000000002,270.333 232.591,265.75 Z&#10;M 220.556,269.5 C 220.79600000000002,267.3 221.184,264.6 221.419,263.5 C 221.65400000000002,262.4 221.923,261.128 221.923,261.128 C 221.923,261.128 222.604,261.25600000000003 223.342,261.869 C 224.08,262.482 225.00400000000002,262.663 225.395,262.272 C 225.786,261.881 225.795,262.37199999999996 225.414,263.364 C 224.939,264.601 224.495,264.80100000000004 224,263.999 C 223.528,263.235 223.089,263.553 222.732,264.917 C 222.432,266.06399999999996 222.594,266.75 223.093,266.442 C 224.759,265.413 224.025,268.748 222.06,271.139 C 222.06,271.139 220.12,273.5 220.12,273.5 C 220.12,273.5 220.556,269.5 220.556,269.5 Z" style="fill-opacity:1.0;fill:rgb(155, 67, 152)" /></g></g><g id="g_8"><use style="stroke:rgb(245, 39, 43);stroke-opacity:1.0;stroke-width:1.0;stroke-miterlimit:0.0;stroke-linecap:round;stroke-linejoin:round" xlink:href="#g_7" /><g id="g_7" style="fill-opacity:1.0;fill:rgb(245, 39, 43)" transform="matrix(1.0, 0.0, 0.0, 1.0, 0.0, 0.0)"><path d="M 151.421,117.459 C 152.94,111.405 156.35799999999998,103.757 160.182,97.854 C 162.446,94.359 166.031,88.216 168.149,84.202 C 174.159,72.814 173.349,65.2 165.256,57 C 155.581,47.197 154.853,41.903999999999996 162.287,35.415 C 165.889,32.271 189.348,20 191.757,20 C 192.672,20 214.001,11.09 221,7.784 C 223.475,6.615 227.381,4.385 229.68,2.829 C 229.68,2.829 233.86,0 233.86,0 C 233.86,0 255.43,0 255.43,0 C 267.293,0 277,0.859 277,0.859 C 277,1.97 265.96,6.2989999999999995 243.5,13.994 C 214.69,23.865000000000002 214.132,24.075 205.09,28.509 C 194.5,33.702 190.25099999999998,37.178 187.843,42.622 C 185.726,47.408 185.768,47.613 191.211,58.785 C 197.81400000000002,72.34 196.599,76.40199999999999 181.1,92.576 C 172.141,101.925 164,112.415 164,114.61 C 164,117.579 160.134,120 155.392,120 C 150.956,120 150.807,119.905 151.421,117.459 Z" style="fill-opacity:1.0;fill:rgb(245, 39, 43)" /></g></g><g id="g_10"><use style="stroke:rgb(8, 158, 146);stroke-opacity:1.0;stroke-width:1.0;stroke-miterlimit:0.0;stroke-linecap:round;stroke-linejoin:round" xlink:href="#g_9" /><g id="g_9" style="fill-opacity:1.0;fill:rgb(8, 158, 146)" transform="matrix(1.0, 0.0, 0.0, 1.0, 0.0, 0.0)"><path d="M 126.391,120.235 C 125.275,119.496 125.677,114.559 127.876,102 C 131.08700000000002,83.657 131.094,79.342 127.923,74.185 C 125.651,70.49000000000001 117.692,65.287 106.27,60.031 C 89.822,52.461999999999996 85,48.359 85,41.935 C 85,38.29 96.216,29.096 110,21.443 C 113.816,19.324 119.922,14.887 124.25,11.085 C 127.216,8.48 128.011,3.4109999999999996 125.8,1.2 C 124.86699999999999,0.2669999999999999 130.756,0 152.3,0 C 167.53500000000003,0 180,0.592 180,0.592 C 180,0.592 179.068,2.38 177.93,3.842 C 175.632,6.793 169.173,10.649000000000001 155.131,17.449 C 129.997,29.621000000000002 122,35.827999999999996 122,43.166 C 122,46.69499999999999 122.59899999999999,47.835 126.323,51.382 C 128.701,53.647 132.334,56.625 134.397,58 C 147.511,66.74 149.656,70.04899999999999 148.49,79.734 C 147.89700000000002,84.661 145.053,94.06700000000001 143.024,97.813 C 141.572,100.494 137.02200000000002,119.228 137.597,120.158 C 138.235,121.19 127.93900000000001,121.26 126.391,120.235 Z" style="fill-opacity:1.0;fill:rgb(8, 158, 146)" /></g></g><g id="g_12"><use style="stroke:rgb(66, 157, 101);stroke-opacity:1.0;stroke-width:1.0;stroke-miterlimit:0.0;stroke-linecap:round;stroke-linejoin:round" xlink:href="#g_11" /><g id="g_11" style="fill-opacity:1.0;fill:rgb(66, 157, 101)" transform="matrix(1.0, 0.0, 0.0, 1.0, 0.0, 0.0)"><path d="M 124.169,114.75 C 124.562,111.312 125.791,104.0 126.899,98.5 C 129.478,85.703 129.483,81.68499999999999 126.925,76.564 C 124.478,71.66399999999999 118.339,67.18 107.81,62.603 C 92.128,55.786 83,48.729 83,43.42 C 83,38.845 91.148,30.472 101,24.921 C 114.651,17.229 124.334,9.674 125.583,5.739 C 125.935,4.631 125.462,3.0629999999999997 124.435,1.928 C 122.562,-0.14100000000000001 123.79899999999999,-0.8009999999999999 125.8,1.2 C 128.011,3.4109999999999996 127.216,8.48 124.25,11.085 C 119.922,14.887 113.816,19.324 110,21.443 C 96.216,29.096 85,38.29 85,41.935 C 85,48.359 89.822,52.461999999999996 106.27,60.031 C 112.09899999999999,62.713 119.035,66.47399999999999 121.684,68.389 C 131.315,75.35 131.943,78.76599999999999 127.876,102 C 125.677,114.559 125.275,119.496 126.391,120.235 C 127.051,120.672 126.681,120.976 125.477,120.985 C 123.58500000000001,120.999 123.50099999999999,120.595 124.169,114.75 Z" style="fill-opacity:1.0;fill:rgb(66, 157, 101)" /></g></g><g id="g_14"><use style="stroke:rgb(55, 82, 240);stroke-opacity:1.0;stroke-width:1.0;stroke-miterlimit:0.0;stroke-linecap:round;stroke-linejoin:round" xlink:href="#g_13" /><g id="g_13" style="fill-opacity:1.0;fill:rgb(55, 82, 240)" transform="matrix(1.0, 0.0, 0.0, 1.0, 0.0, 0.0)"><path d="M 137.628,120.207 C 137.03099999999998,119.241 141.529,100.57300000000001 143.024,97.813 C 145.053,94.06700000000001 147.89700000000002,84.661 148.49,79.734 C 149.656,70.04899999999999 147.511,66.74 134.397,58 C 132.334,56.625 128.701,53.647 126.323,51.382 C 122.59899999999999,47.835 122,46.69499999999999 122,43.166 C 122,35.827999999999996 129.997,29.621000000000002 155.131,17.449 C 170.274,10.115000000000002 175.841,6.698 178.241,3.265 C 178.241,3.265 180.5,0.035 180.5,0.035 C 180.5,0.035 205.372,0.017 205.372,0.017 C 227.19000000000003,0.0020000000000000018 230.095,0.18100000000000005 229.02,1.476 C 227.21,3.657 216.697,8.399 187.5,20.206 C 172.793,26.153 161.197,32.846 158.21,37.111 C 155.971,40.308 154.959,46.049 156.214,48.435 C 156.812,49.571000000000005 159.77,53.179 162.787,56.454 C 172.749,67.266 173.218,72.476 165.451,86.043 C 162.78799999999998,90.694 159.939,95 159.939,95 C 158.846,95.815 154.90200000000002,103.931 151.435,112.5 C 151.435,112.5 148.198,120.5 148.198,120.5 C 148.198,120.5 143.188,120.799 143.188,120.799 C 140.433,120.96400000000001 137.93099999999998,120.69699999999999 137.628,120.207 Z" style="fill-opacity:1.0;fill:rgb(55, 82, 240)" /></g></g><g id="g_16"><use style="stroke:rgb(82, 80, 82);stroke-opacity:1.0;stroke-width:1.0;stroke-miterlimit:0.0;stroke-linecap:round;stroke-linejoin:round" xlink:href="#g_15" /><g id="g_15" style="fill-opacity:1.0;fill:rgb(82, 80, 82)" transform="matrix(1.0, 0.0, 0.0, 1.0, 0.0, 0.0)"><path d="M 84.999,137.258 C 82.533,127.19500000000001 82.578,126.55000000000001 86.029,122.62 C 88.321,120.009 89.589,119.245 90.446,119.956 C 91.107,120.50500000000001 94.921,121.257 98.921,121.629 C 104.628,122.159 106.384,122.004 107.081,120.903 C 108.461,118.724 108.164,117.195 106.25,116.631 C 104.887,116.229 104.942,116.16 106.5,116.318 C 107.686,116.438 108.623,117.378 108.802,118.628 C 109.08600000000001,120.61 109.90299999999999,120.778 122.52,121.447 C 129.899,121.83800000000001 136.345,121.905 136.844,121.596 C 137.343,121.287 144.895,120.795 153.626,120.501 C 162.357,120.20700000000001 171.0,119.721 172.833,119.422 C 176.978,118.746 181.005,121.142 180.986,124.273 C 180.94299999999998,131.31199999999998 177.998,132.858 172.862,128.537 C 170.38899999999998,126.456 169.51600000000002,126.23400000000001 167.24,127.099 C 165.758,127.662 162.736,128.054 160.523,127.969 C 154.552,127.74 154.454,127.781 154.217,130.649 C 153.836,135.257 152.439,136.066 147.733,134.406 C 145.459,133.604 142.81199999999998,132.235 141.849,131.364 C 140.59799999999998,130.232 138.231,129.808 133.546,129.878 C 126.869,129.97799999999998 123.813,130.964 116.223,135.464 C 113.871,136.859 111.316,138 110.545,138 C 109.774,138 108.548,138.593 107.821,139.319 C 105.479,141.65699999999998 102.168,141.92000000000002 99.683,139.965 C 98.396,138.952 96.235,137.847 94.882,137.507 C 92.025,136.79 86.608,138.557 87.456,139.929 C 87.773,140.442 87.613,141.12199999999999 87.099,141.439 C 86.58500000000001,141.756 85.64,139.875 84.999,137.258 Z&#10;M 88,194.5 C 88,193.627 88.908,193 90.174,193 C 90.174,193 92.349,193 92.349,193 C 92.349,193 90,190.5 90,190.5 C 86.769,187.061 86,187.349 86,192 C 86,194.2 86.45,196 87,196 C 87.55,196 88,195.325 88,194.5 Z&#10;M 86.5,202.235 C 85.95,201.83100000000002 85.345,200.6 85.155,199.5 C 84.658,196.62 84.413,196.511 78.166,196.392 C 66.911,196.177 67.553,197.307 72.402,186.25 C 74.754,180.887 78.272,174.018 80.22,170.984 C 84.49,164.334 86.964,157.407 87.102,151.715 C 87.203,147.543 87.213,147.533 87.975,150.744 C 88.399,152.528 89.279,154.632 89.932,155.418 C 90.864,156.54000000000002 90.711,157.671 89.224,160.674 C 88.182,162.77800000000002 86.541,167.2 85.576,170.5 C 84.61099999999999,173.8 83.241,177.785 82.532,179.355 C 81.187,182.332 81.545,186 83.182,186 C 85.31400000000001,186 87.807,183.90800000000002 88.376,181.639 C 88.786,180.007 90.302,178.696 93.057,177.594 C 95.298,176.697 97.497,176.189 97.943,176.465 C 99.55199999999999,177.46 97.47500000000001,183.485 95.173,184.5 C 93.467,185.252 93.078,185.996 93.604,187.5 C 94.842,191.037 94.538,199.646 93.115,201.361 C 91.70599999999999,203.059 88.244,203.51600000000002 86.5,202.235 Z&#10;M 222.535,191.932 C 224.78199999999998,187.588 223.89600000000002,186.297 221.185,189.964 C 219.933,191.658 219.18,193.48299999999998 219.513,194.021 C 220.437,195.515 220.81799999999998,195.25199999999998 222.535,191.932 Z&#10;M 214.558,204.348 C 214.935,202.23100000000002 215.241,200 215.241,200 C 215.21,195.75900000000001 214.864,194.839 213.5,195.362 C 212.52,195.738 212.012,195.34199999999998 212.035,194.219 C 212.07399999999998,192.31799999999998 214.885,186.904 215.004,188.5 C 215.045,189.05 215.742,187.97 216.554,186.099 C 217.366,184.22799999999998 218.634,183.301 218.634,183.301 C 219.39,184.057 221.39100000000002,182.085 222.299,179.687 C 222.677,178.69 223.392,178.12400000000002 223.888,178.431 C 224.38400000000001,178.738 225.049,178.316 225.364,177.494 C 225.679,176.672 225.50199999999998,176 224.969,176 C 224.436,176 223.998,174.988 223.995,173.75 C 223.99200000000002,172.512 222.938,170.185 221.652,168.578 C 221.652,168.578 219.314,165.656 219.314,165.656 C 219.314,165.656 217.029,168.747 217.029,168.747 C 215.72299999999998,170.513 214.155,171.613 213.372,171.312 C 212.454,170.96 211.989,171.565 211.966,173.143 C 211.93200000000002,175.506 208.09799999999998,184.498 208.034,182.364 C 208.015,181.739 208.65200000000002,179.972 209.449,178.436 C 210.246,176.9 210.604,175.169 210.246,174.589 C 209.34900000000002,173.137 209.19,170.071 210.024,170.307 C 210.024,170.307 212.347,168.545 214.353,166.155 C 216.359,163.76500000000001 218,162.577 218,162.577 C 218,162.577 217.255,164.165 216.345,165.171 C 215.435,166.177 215.155,167 215.723,167 C 217.57100000000003,167 219.18099999999998,164.145 218.515,162.048 C 218.088,160.703 216.944,159.96 215.183,159.882 C 215.183,159.882 212.5,159.763 212.5,159.763 C 212.5,159.763 215.5,158.916 215.5,158.916 C 218.442,158.085 218.432,158.075 215,158.446 C 210.958,158.883 205.488,160.821 206.223,161.556 C 206.223,161.556 207.972,161.581 209.5,161 C 211.028,160.419 212.643,160.31 212.643,160.31 C 213.422,161.089 209.79,166.987 208.878,166.424 C 207.71599999999998,165.70600000000002 203.52100000000002,168.334 200.324,171.784 C 200.324,171.784 198,174.292 198,174.292 C 198,174.292 198.015,171.396 198.015,171.396 C 198.02499999999998,169.47099999999998 198.309,168.939 198.861,169.81 C 199.487,170.797 200.105,170.489 201.369,168.56 C 203.123,165.883 202.352,165.101 200.078,167.25 C 198.023,169.193 200.76999999999998,164.02800000000002 203.23,161.324 C 205.35,158.99300000000002 204.762,156.494 202.315,157.433 C 201.406,157.78199999999998 200.99599999999998,157.518 201.253,156.751 C 201.48399999999998,156.06300000000002 202.49599999999998,155.49800000000002 203.504,155.496 C 204.512,155.494 205.55300000000003,154.81900000000002 205.818,153.996 C 206.083,153.173 206.727,152.222 207.248,151.881 C 207.76899999999998,151.54 208.264,150.13500000000002 208.348,148.758 C 208.453,147.03300000000002 208.966,146.398 210,146.715 C 211.433,147.155 209.447,145.15 202.2,138.844 C 197.54399999999998,134.792 199.115,133.444 204.809,136.605 C 204.809,136.605 209.5,139.21 209.5,139.21 C 209.5,139.21 207.076,136.605 207.076,136.605 C 204.11499999999998,133.423 205.684,133.17700000000002 209.549,136.217 C 209.549,136.217 212.367,138.434 212.367,138.434 C 212.367,138.434 209.679,134.467 209.679,134.467 C 208.201,132.28500000000003 205.33700000000002,129.263 203.317,127.75 C 200.52700000000002,125.661 200.108,125.008 201.572,125.032 C 202.632,125.04899999999999 204.373,125.72399999999999 205.441,126.532 C 208.585,128.91 209.224,128.221 206.851,125.012 C 205.636,123.369 205.153,121.514 205.153,121.514 C 206.429,120.238 216.524,137.344 215.486,139.023 C 215.486,139.023 215.692,140.32899999999998 216.511,141.009 C 218.43099999999998,142.60199999999998 218.403,144.42100000000002 216.433,146.056 C 215.09799999999998,147.16400000000002 214.447,146.868 212.048,144.057 C 210.499,142.242 208.71,140.93 208.072,141.143 C 207.434,141.356 209.716,144.22299999999998 213.142,147.515 C 216.56799999999998,150.807 219.037,152.938 218.627,152.25 C 218.217,151.562 218.3,151 218.81,151 C 219.876,151 220.973,156.713 220.989,162.346 C 220.995,164.52100000000002 221.835,167.364 222.922,168.891 C 226.843,174.398 235.51999999999998,201.058 232.855,199.411 C 232.385,199.12 231.941,199.921 231.869,201.191 C 231.74699999999999,203.335 231.114,200.052 229.232,187.5 C 229.232,187.5 228.482,182.5 228.482,182.5 C 228.482,182.5 222.229,194.699 222.229,194.699 C 215.38000000000002,208.06 213.468,210.46300000000002 214.558,204.348 Z&#10;M 225.37,205.524 C 225.507,199.212 226.194,193.472 226.194,193.472 C 227.43699999999998,192.229 228.832,199.185 228.344,204.198 C 227.803,209.75900000000001 226.207,217 225.522,217 C 225.522,217 225.233,211.836 225.37,205.524 Z&#10;M 202.403,232.229 C 201.797,231.82600000000002 201.349,228.923 201.403,225.75 C 201.457,222.587 200.844,220 200.844,220 C 200.844,220 200.441,219.03 200.751,217.844 C 201.097,216.519 200.923,215.929 200.299,216.315 C 199.008,217.113 200.679,207.409 202.33,204.522 C 203.417,202.62099999999998 203.513,202.679 203.946,205.5 C 204.334,208.031 204.506,207.718 205.046,203.5 C 205.046,203.5 205.686,198.5 205.686,198.5 C 205.686,198.5 205.858,203.5 205.858,203.5 C 205.983,207.136 206.295,208.091 207,207 C 207.701,205.915 207.97400000000002,206.815 207.985,210.25 C 208.0,214.895 206.59799999999998,216.727 205.689,213.25 C 205.33599999999998,211.899 205.20600000000002,211.999 205.116,213.691 C 205.05200000000002,214.89600000000002 204.595,216.13199999999998 204.1,216.438 C 203.605,216.744 203.21300000000002,218.68300000000002 203.229,220.747 C 203.229,220.747 203.258,224.5 203.258,224.5 C 203.258,224.5 204.475,221 204.475,221 C 205.546,217.921 205.773,217.75 206.359,219.577 C 207.25,222.356 203.85999999999999,233.198 202.403,232.229 Z&#10;M 230.935,231.879 C 230.06,230.244 230.077,229.93 231.009,230.506 C 231.93599999999998,231.079 232.13400000000001,228.425 231.859,219.126 C 231.662,212.45600000000002 232.25,207 232.25,207 C 232.983,207 233.126,208.06099999999998 233.571,216.754 C 233.691,219.094 234.06900000000002,221.738 234.412,222.631 C 234.755,223.524 234.56500000000003,224.82 233.991,225.511 C 233.417,226.202 232.887,228.39499999999998 232.812,230.384 C 232.65400000000002,234.588 232.465,234.738 230.935,231.879 Z&#10;M 230.035,242.066 C 228.712,239.594 228.688,235.689 230,236.5 C 230.55,236.84 231.053,238.554 231.118,240.309 C 231.118,240.309 231.237,243.5 231.237,243.5 C 231.237,243.5 232,240.5 232,240.5 C 232,240.5 232.763,237.5 232.763,237.5 C 232.763,237.5 232.882,240.75 232.882,240.75 C 233.014,244.374 231.61599999999999,245.02 230.035,242.066 Z&#10;M 219.842,274.306 C 220.485,273.099 221.446,271.842 221.978,271.513 C 222.51000000000002,271.18399999999997 223.486,269.02200000000005 224.147,266.708 C 225.596,261.632 226.227,246.473 224.863,249.5 C 224.189,250.997 224.093,250.651 224.481,248.125 C 224.767,246.269 225,244.131 225,243.375 C 225,242.619 225.498,242 226.107,242 C 226.716,242 226.98299999999998,242.604 226.7,243.341 C 226.417,244.078 226.58599999999998,245.316 227.077,246.091 C 227.763,247.174 227.973,247.197 227.985,246.191 C 227.99300000000002,245.471 228.40800000000002,245.13400000000001 228.906,245.442 C 229.404,245.75 229.58999999999997,246.851 229.319,247.888 C 229.048,248.925 229.392,250.124 230.083,250.551 C 230.942,251.082 231.156,250.851 230.762,249.823 C 230.444,248.995 230.58599999999998,247.684 231.077,246.909 C 231.658,245.99099999999999 231.94,247.418 231.885,251 C 231.825,254.941 231.601,255.792 231.094,254 C 230.414,251.596 230.365,251.58200000000002 229.816,253.639 C 229.502,254.816 229.614,256.37600000000003 230.066,257.107 C 230.518,257.838 230.718,260.13800000000003 230.511,262.218 C 230.084,266.511 230.61,267.035 232.05,263.75 C 232.822,261.989 232.905,262.369 232.429,265.5 C 232.095,267.7 231.45000000000002,269.95 230.996,270.5 C 230.542,271.05 230.132,271.95 230.085,272.5 C 229.993,273.585 228,274.573 228,273.534 C 228,273.534 228.687,271.573 229.526,269.95 C 231.452,266.226 230.605,266.066 228.468,269.75 C 227.59,271.262 227.19,271.6 227.578,270.5 C 229.191,265.925 229.143,263.364 227.421,261.943 C 225.815,260.61699999999996 225.765,260.67499999999995 226.815,262.645 C 227.721,264.346 227.65200000000002,265.044 226.479,266.017 C 224.673,267.516 224.554,271.12 226.25,272.947 C 227.093,273.855 227.11499999999998,274.077 226.319,273.63 C 225.67,273.265 224.851,273.432 224.5,274 C 224.149,274.568 223.423,274.761 222.887,274.43 C 222.351,274.099 221.183,274.429 220.292,275.164 C 218.842,276.36 218.79500000000002,276.27099999999996 219.842,274.306 Z" style="fill-opacity:1.0;fill:rgb(82, 80, 82)" /></g></g><g id="g_18"><use style="stroke:rgb(47, 45, 47);stroke-opacity:1.0;stroke-width:1.0;stroke-miterlimit:0.0;stroke-linecap:round;stroke-linejoin:round" xlink:href="#g_17" /><g id="g_17" style="fill-opacity:1.0;fill:rgb(47, 45, 47)" transform="matrix(1.0, 0.0, 0.0, 1.0, 0.0, 0.0)"><path d="M 94.5,121.273 C 92.85,121.038 91.118,120.476 90.651,120.024 C 89.667,119.071 92.838,118.28500000000001 102.131,117.177 C 102.131,117.177 108.761,116.386 108.761,116.386 C 108.761,116.386 107.783,119.193 107.783,119.193 C 106.888,121.761 106.408,121.987 102.152,121.85 C 99.593,121.768 96.15,121.508 94.5,121.273 Z&#10;M 205.168,126.405 C 203.916,125.528 201.904,125.035 200.696,125.31 C 199.488,125.58500000000001 197.6,125.451 196.5,125.012 C 194.642,124.271 194.627,124.164 196.281,123.489 C 197.26000000000002,123.09 199.398,123.029 201.031,123.356 C 204.451,124.03999999999999 204.905,123.04599999999999 202,121.232 C 200.9,120.545 200,119.301 200,118.468 C 200,117.14800000000001 200.321,117.16499999999999 202.5,118.592 C 203.875,119.493 205,120.792 205,121.48 C 205,122.168 205.93300000000002,123.916 207.073,125.365 C 209.40800000000002,128.333 208.572,128.789 205.168,126.405 Z&#10;M 143,178.842 C 143,178.3 143.687,177.17 144.526,176.331 C 146.208,174.649 149.4,175.3 148.768,177.196 C 148.267,178.7 143,180.203 143,178.842 Z&#10;M 86,192 C 86,187.349 86.769,187.061 90,190.5 C 90,190.5 92.349,193 92.349,193 C 92.349,193 90.174,193 90.174,193 C 88.908,193 88,193.627 88,194.5 C 88,195.325 87.55,196 87,196 C 86.45,196 86,194.2 86,192 Z&#10;M 78.125,199.983 C 74.069,198.388 70.394,196.728 70.394,196.728 C 70.394,196.728 73.146,196.404 76.944,196.444 C 84.491,196.524 84.652,196.584 85.155,199.5 C 85.345,200.6 85.95,201.83100000000002 86.5,202.235 C 88.466,203.68 85.49,202.879 78.125,199.983 Z&#10;M 109.851,208.517 C 109.851,208.517 107.823,207.835 105.934,207.591 C 104.045,207.347 99.125,206.361 95,205.402 C 89.091,204.028 88.02900000000001,203.526 89.992,203.036 C 94.378,201.941 95.957,195.034 93.544,187.5 C 93.072,186.025 93.5,185.237 95.173,184.5 C 97.47500000000001,183.485 99.55199999999999,177.46 97.943,176.465 C 97.497,176.189 95.298,176.697 93.057,177.594 C 90.302,178.696 88.786,180.007 88.376,181.639 C 87.807,183.90800000000002 85.31400000000001,186 83.182,186 C 81.545,186 81.187,182.332 82.532,179.355 C 83.241,177.785 84.61099999999999,173.8 85.576,170.5 C 86.541,167.2 88.166,162.81199999999998 89.187,160.748 C 90.841,157.405 90.884,156.75099999999998 89.585,154.748 C 88.78299999999999,153.512 87.915,150.611 87.656,148.303 C 87.397,145.995 86.91099999999999,143.663 86.576,143.122 C 86.241,142.58100000000002 86.432,141.851 87,141.5 C 87.568,141.149 87.773,140.442 87.456,139.929 C 86.608,138.557 92.025,136.79 94.882,137.507 C 96.235,137.847 98.396,138.952 99.683,139.965 C 102.168,141.92000000000002 105.479,141.65699999999998 107.821,139.319 C 108.548,138.593 109.774,138 110.545,138 C 111.316,138 113.871,136.859 116.223,135.464 C 123.813,130.964 126.869,129.97799999999998 133.546,129.878 C 138.231,129.808 140.59799999999998,130.232 141.849,131.364 C 142.81199999999998,132.235 145.459,133.604 147.733,134.406 C 152.439,136.066 153.836,135.257 154.217,130.649 C 154.454,127.781 154.552,127.74 160.523,127.969 C 162.736,128.054 165.758,127.662 167.24,127.099 C 169.51600000000002,126.23400000000001 170.38899999999998,126.456 172.862,128.537 C 176.557,131.64600000000002 179.571,131.732 180.37,128.75 C 182.469,120.916 179.957,119.03699999999999 168.353,119.761 C 168.353,119.761 159.824,120.293 159.824,120.293 C 159.824,120.293 162.4,117.514 162.4,117.514 C 164.573,115.169 165.529,114.825 168.52,115.31 C 170.47,115.626 174.07500000000002,115.28 176.531,114.541 C 178.987,113.80199999999999 180.745,113.602 180.439,114.098 C 180.13299999999998,114.594 180.359,115 180.941,115 C 181.523,115 182,115.81 182,116.8 C 182,117.78999999999999 182.44899999999998,119.049 182.999,119.599 C 183.549,120.149 184.071,122.447 184.16,124.706 C 184.277,127.686 184.688,128.673 185.66,128.3 C 186.397,128.01700000000002 187,128.26600000000002 187,128.854 C 187,129.442 185.194,130.41 182.987,131.004 C 178.214,132.289 172,137.436 172,140.104 C 172,142.29700000000003 172.389,142.397 175.16,140.914 C 176.986,139.93699999999998 177.121,140.06099999999998 176.512,142.164 C 175.48,145.72299999999998 172.508,149.459 170.394,149.853 C 169.352,150.047 167.725,150.893 166.778,151.733 C 165.42399999999998,152.933 163.28699999999998,153.15800000000002 156.795,152.782 C 148.79999999999998,152.31900000000002 139.86,153.74 137.8,155.8 C 137.304,156.29600000000002 136.83700000000002,157.782 136.763,159.101 C 136.689,160.42 136.037,162.388 135.314,163.473 C 133.65099999999998,165.97000000000003 133.616,168.99499999999998 135.25,169.015 C 135.938,169.023 137.175,169.47299999999998 138,170.015 C 139.333,170.89 139.333,171.11 138,171.985 C 136.716,172.828 136.752,172.972 138.25,172.985 C 140.415,173.00400000000002 140.554,174.85000000000002 138.452,175.657 C 137.567,175.997 136.34400000000002,175.48499999999999 135.597,174.463 C 134.84300000000002,173.432 133.62800000000001,172.929 132.728,173.274 C 130.263,174.22 133.75799999999998,185.071 137.058,186.716 C 139.136,187.752 139.59799999999998,187.678 140.178,186.216 C 140.814,184.612 140.864,184.615 140.93,186.25 C 141.024,188.602 142.68,188.467 144,186 C 145.458,183.276 148.00400000000002,183.436 147.985,186.25 C 147.966,189.076 147.098,190.385 144.25,191.885 C 141.267,193.456 141.391,195 144.5,195 C 145.875,195 147,195.45 147,196 C 147,197.64 139.845,197.136 134.288,195.105 C 125.63300000000001,191.94199999999998 119.675,186.569 118.851,181.184 C 118.54899999999999,179.212 118.274,179.075 116.87,180.197 C 115.973,180.91400000000002 114.971,182.66600000000003 114.641,184.092 C 114.162,186.163 114.542,186.952 116.532,188.017 C 119.327,189.513 119.116,191.887 115.878,195.362 C 114.836,196.48 114,198.831 114,200.642 C 114,205.594 111.56,210.226 109.851,208.517 Z&#10;M 206.359,219.577 C 205.773,217.75 205.546,217.921 204.475,221 C 204.475,221 203.258,224.5 203.258,224.5 C 203.258,224.5 203.229,220.747 203.229,220.747 C 203.21300000000002,218.68300000000002 203.605,216.744 204.1,216.438 C 204.595,216.13199999999998 205.05200000000002,214.89600000000002 205.116,213.691 C 205.20600000000002,211.999 205.33599999999998,211.899 205.689,213.25 C 206.59799999999998,216.727 208.0,214.895 207.985,210.25 C 207.97400000000002,206.815 207.701,205.915 207,207 C 206.295,208.091 205.983,207.136 205.858,203.5 C 205.858,203.5 205.686,198.5 205.686,198.5 C 205.686,198.5 205.046,203.5 205.046,203.5 C 204.506,207.718 204.334,208.031 203.946,205.5 C 203.513,202.679 203.417,202.62099999999998 202.33,204.522 C 200.679,207.409 199.008,217.113 200.299,216.315 C 200.923,215.929 201.097,216.519 200.751,217.844 C 200.441,219.03 200.844,220 200.844,220 C 200.844,220 201.457,222.587 201.403,225.75 C 201.349,228.923 201.797,231.82600000000002 202.403,232.229 C 203.85999999999999,233.198 207.25,222.356 206.359,219.577 Z&#10;M 185.543,269.25 C 184.229,257.675 184.46800000000002,251.245 186.288,249.234 C 187.23000000000002,248.19400000000002 188,246.645 188,245.793 C 188,244.941 188.701,242.565 189.558,240.514 C 190.668,237.858 190.929,235.279 190.464,231.558 C 189.981,227.688 190.178,225.964 191.227,224.915 C 192.006,224.136 193.114,220.8 193.689,217.5 C 195.221,208.706 199.642,196.66 201.023,197.514 C 202.228,198.25900000000001 202.909,188.611 201.751,187.208 C 200.991,186.287 201.01700000000002,185.583 201.842,184.758 C 203.292,183.30800000000002 203.361,180 201.941,180 C 201.359,180 201.165,179.543 201.51,178.984 C 201.855,178.425 202.63400000000001,178.274 203.239,178.648 C 203.947,179.08599999999998 204.112,178.73499999999999 203.701,177.664 C 203.35,176.749 203.49800000000002,176 204.031,176 C 204.564,176 205,175.55 205,175 C 205,174.45 204.325,174 203.5,174 C 202.675,174 201.99300000000002,174.562 201.985,175.25 C 201.97400000000002,176.178 201.75,176.154 201.117,175.155 C 200.49599999999998,174.175 200.07500000000002,174.582 199.567,176.655 C 199.184,178.22 197.774,181.83499999999998 196.435,184.688 C 195.096,187.541 194,190.429 194,191.105 C 194,191.78099999999998 193.362,191.695 193.362,191.695 C 193.362,191.695 193.297,189.01000000000002 193.998,186.508 C 195.111,182.53300000000002 195.065,181.729 193.636,180.15 C 191.686,177.995 191.522,176.87900000000002 193.253,177.543 C 194.48399999999998,178.01500000000001 197.622,170.289 196.61,169.277 C 195.799,168.46599999999998 194,170.039 194,171.559 C 194,172.352 193.167,173 193.167,173 C 191.405,173 191.268,171.76999999999998 192.711,168.878 C 193.53500000000003,167.22699999999998 193.919,165.585 193.565,165.231 C 193.21099999999998,164.87699999999998 192.668,165.552 192.36,166.731 C 191.894,168.51399999999998 186,171.928 186,170.415 C 186,170.415 187.15099999999998,167.663 188.557,164.888 C 189.963,162.113 190.899,159.315 190.636,158.671 C 190.307,157.86499999999998 190.133,157.908 190.079,158.809 C 190.036,159.529 189.577,159.857 189.06,159.537 C 187.928,158.838 184,162.838 184,164.689 C 184,165.41 183.1,166 182,166 C 179.528,166 179.52800000000002,165.822 181.996,161.774 C 185.53900000000002,155.963 183.624,155.068 178.736,160.25 C 175.66899999999998,163.501 175.39100000000002,162.875 177.555,157.589 C 178.213,155.981 177.994,155.769 176.169,156.246 C 174.976,156.55800000000002 174.033,156.156 174.033,156.156 C 174.147,153.90300000000002 183.535,147.202 184.802,148.469 C 184.802,148.469 184.696,149.00699999999998 183.917,149.015 C 182.751,149.028 182.765,149.202 184,150 C 185,150.646 185.083,150.97500000000002 184.25,150.985 C 183.562,150.99300000000002 183,151.708 183,152.573 C 183,153.542 183.672,154.008 184.75,153.787 C 185.819,153.567 186.37400000000002,152.708 186.175,151.578 C 185.93900000000002,150.234 186.281,149.90200000000002 187.425,150.364 C 188.29100000000003,150.714 189.675,151.273 190.5,151.607 C 191.471,152.0 192,151.634 192,150.569 C 192,149.47299999999998 192.75,148.989 194.25,149.118 C 195.488,149.224 198.45499999999998,149.24200000000002 200.844,149.156 C 204.273,149.03300000000002 205.297,148.579 205.71,147 C 205.99800000000002,145.9 206.744,144.99800000000002 207.367,144.996 C 207.98999999999998,144.994 207.15,144.154 205.5,143.129 C 199.224,139.231 196.10899999999998,134.03699999999998 198.974,132.248 C 200.191,131.488 200.595,130.331 200.258,128.57 C 199.625,125.25699999999999 200.686,125.35999999999999 205,129.034 C 208.198,131.75799999999998 208.354,132.129 206.798,133.333 C 205.214,134.559 205.249,134.808 207.298,136.909 C 209.392,139.05599999999998 209.27,139.04 204.809,136.584 C 199.109,133.446 197.54899999999998,134.797 202.2,138.844 C 209.447,145.15 211.433,147.155 210,146.715 C 208.966,146.398 208.453,147.03300000000002 208.348,148.758 C 208.264,150.13500000000002 207.76899999999998,151.54 207.248,151.881 C 206.727,152.222 206.083,153.173 205.818,153.996 C 205.55300000000003,154.81900000000002 204.512,155.494 203.504,155.496 C 202.49599999999998,155.49800000000002 201.48399999999998,156.06300000000002 201.253,156.751 C 200.99599999999998,157.518 201.406,157.78199999999998 202.315,157.433 C 204.762,156.494 205.35,158.99300000000002 203.23,161.324 C 200.76999999999998,164.02800000000002 198.023,169.193 200.078,167.25 C 202.352,165.101 203.123,165.883 201.369,168.56 C 200.105,170.489 199.487,170.797 198.861,169.81 C 198.309,168.939 198.02499999999998,169.47099999999998 198.015,171.396 C 198.015,171.396 198,174.292 198,174.292 C 198,174.292 200.324,171.784 200.324,171.784 C 203.542,168.31199999999998 207.718,165.708 208.898,166.437 C 209.44,166.77200000000002 210.63600000000002,165.46099999999998 211.556,163.523 C 213.50300000000001,159.421 217.41799999999998,158.591 218.515,162.048 C 219.18099999999998,164.145 217.57100000000003,167 215.723,167 C 215.155,167 215.435,166.177 216.345,165.171 C 217.255,164.165 218,162.577 218,162.577 C 218,162.577 216.359,163.76500000000001 214.353,166.155 C 212.347,168.545 210.024,170.307 210.024,170.307 C 209.19,170.071 209.34900000000002,173.137 210.246,174.589 C 210.604,175.169 210.246,176.9 209.449,178.436 C 208.65200000000002,179.972 208.015,181.739 208.034,182.364 C 208.09799999999998,184.498 211.93200000000002,175.506 211.966,173.143 C 211.989,171.565 212.454,170.96 213.372,171.312 C 214.155,171.613 215.72299999999998,170.513 217.029,168.747 C 217.029,168.747 219.314,165.656 219.314,165.656 C 219.314,165.656 221.652,168.578 221.652,168.578 C 222.938,170.185 223.99200000000002,172.512 223.995,173.75 C 223.998,174.988 224.436,176 224.969,176 C 225.50199999999998,176 225.679,176.672 225.364,177.494 C 225.049,178.316 224.38400000000001,178.738 223.888,178.431 C 223.392,178.12400000000002 222.677,178.69 222.299,179.687 C 221.39100000000002,182.085 219.39,184.057 218.634,183.301 C 218.634,183.301 217.366,184.22799999999998 216.554,186.099 C 215.742,187.97 215.045,189.05 215.004,188.5 C 214.885,186.904 212.07399999999998,192.31799999999998 212.035,194.219 C 212.012,195.34199999999998 212.52,195.738 213.5,195.362 C 214.864,194.839 215.21,195.75900000000001 215.241,200 C 215.241,200 214.928,202.273 214.541,204.44 C 213.934,207.841 214.04000000000002,208.211 215.312,207.156 C 216.122,206.484 217.344,204.584 218.027,202.935 C 219.855,198.52100000000002 220.13899999999998,199.888 218.515,205.285 C 217.738,207.865 215.92499999999998,211.219 214.486,212.738 C 210.827,216.599 209.419,219.541 205.876,230.728 C 204.174,236.102 201.92999999999998,243.16199999999998 200.89,246.415 C 199.85,249.668 199,253.344 199,254.583 C 199,255.822 197.875,259.075 196.5,261.813 C 195.125,264.551 194,267.512 194,268.395 C 194,269.27799999999996 193.108,270 193.108,270 C 193.108,270 191.924,271.16400000000004 191.567,272.588 C 191.032,274.721 190.661,274.964 189.459,273.966 C 188.433,273.11400000000003 188,273.08799999999997 188,273.878 C 188,274.495 187.098,275 187.098,275 C 187.098,275 185.90200000000002,272.413 185.543,269.25 Z&#10;M 224.104,274.375 C 224.846,273.481 225.32500000000002,271.533 225.169,270.045 C 225.01000000000002,268.52700000000004 225.559,266.781 226.421,266.065 C 227.648,265.047 227.727,264.358 226.815,262.645 C 225.784,260.71 225.835,260.634 227.336,261.872 C 228.251,262.627 229,264.053 229,265.04 C 229,267.82800000000003 225.20700000000002,276 223.913,276 C 223.114,276 223.173,275.496 224.104,274.375 Z&#10;M 226.875,213.25 C 228.486,206.907 228.912,199.046 227.814,195.897 C 227.239,194.24699999999999 226.194,193.472 226.194,193.472 C 225.54899999999998,194.11700000000002 224.89499999999998,217 225.522,217 C 225.522,217 226.351,215.312 226.875,213.25 Z&#10;M 215.636,273.25 C 216.007,271.738 217.099,270.185 217.099,270.185 C 217.099,270.185 217.66699999999997,269.294 217.396,268.589 C 217.125,267.884 217.633,265.326 218.525,262.904 C 219.417,260.48199999999997 220.18900000000002,257.957 220.24,257.294 C 220.291,256.631 220.709,256.32 221.167,256.603 C 221.625,256.886 222.068,255.404 222.151,253.309 C 222.234,251.214 222.47299999999998,247.25 222.682,244.5 C 223.14399999999998,238.432 223.143,239.79299999999998 222.701,226.748 C 222.501,220.834 222.916,215.418 222.916,215.418 C 223.893,214.441 223.895,207 222.918,207 C 222.413,207 222,206.325 222,205.5 C 222,204.675 222.842,204 222.842,204 C 222.842,204 223.705,201.863 223.732,199.25 C 223.77,195.558 223.59,195.001 222.923,196.75 C 222.451,197.988 221.578,199 220.982,199 C 220.386,199 221.834,195.287 224.199,190.75 C 224.199,190.75 228.5,182.5 228.5,182.5 C 228.5,182.5 229.165,187 229.165,187 C 229.531,189.475 230.278,194.65 230.826,198.5 C 232.08499999999998,207.349 232.10299999999998,245.25799999999998 230.85,247.112 C 230.245,248.006 230.14100000000002,246.49800000000002 230.556,242.871 C 230.977,239.19400000000002 230.819,237.006 230.1,236.562 C 229.391,236.12400000000002 228.959,237.06 228.885,239.191 C 228.822,241.011 228.665,242.95 228.537,243.5 C 228.40900000000002,244.05 228.229,245.175 228.137,246 C 227.995,247.269 227.832,247.28400000000002 227.077,246.091 C 226.58599999999998,245.316 226.417,244.078 226.7,243.341 C 226.98299999999998,242.604 226.748,242 226.179,242 C 225.61,242 224.86100000000002,244.588 224.514,247.75 C 224.167,250.912 223.384,254.625 222.773,256 C 222.162,257.375 221.48600000000002,259.625 221.27,261 C 221.054,262.375 220.48000000000002,263.642 219.995,263.815 C 219.51,263.988 219.34199999999998,264.72900000000004 219.624,265.463 C 219.906,266.197 219.67499999999998,267.08299999999997 219.112,267.431 C 218.549,267.779 218.311,268.647 218.584,269.36 C 219.243,271.077 217.332,276 216.006,276 C 215.371,276 215.226,274.924 215.636,273.25 Z&#10;M 140.299,274.04 C 138.538,272.966 136.389,270.71799999999996 135.523,269.044 C 134.096,266.284 132.949,265.529 130.732,265.888 C 130.732,265.888 128.285,265.266 126.232,264.355 C 123.428,263.11 122.948,262.591 124.303,262.266 C 125.735,261.922 125.865,261.541 124.931,260.416 C 122.702,257.73 126.397,258.847 130.038,261.959 C 131.942,263.587 134.016,264.937 134.647,264.959 C 135.278,264.981 137.078,266.10499999999996 138.647,267.455 C 140.21599999999998,268.805 143.25,271.28 145.388,272.955 C 145.388,272.955 149.275,276 149.275,276 C 149.275,276 146.388,275.996 146.388,275.996 C 144.8,275.99399999999997 142.06,275.11400000000003 140.299,274.04 Z" style="fill-opacity:1.0;fill:rgb(47, 45, 47)" /></g></g><g id="g_20"><use style="stroke:rgb(11, 9, 11);stroke-opacity:1.0;stroke-width:1.0;stroke-miterlimit:0.0;stroke-linecap:round;stroke-linejoin:round" xlink:href="#g_19" /><g id="g_19" style="fill-opacity:1.0;fill:rgb(11, 9, 11)" transform="matrix(1.0, 0.0, 0.0, 1.0, 0.0, 0.0)"><path d="M 148.768,177.196 C 149.4,175.3 146.208,174.649 144.526,176.331 C 143.687,177.17 143,178.3 143,178.842 C 143,180.203 148.267,178.7 148.768,177.196 Z&#10;M 25,275.562 C 25,272.72700000000003 38.781000000000006,252.786 42.843,249.742 C 47.097,246.55499999999998 58.228,233.484 60.49,229.02 C 63.008,224.05100000000002 63.351,222.707 66.563,205.195 C 68.001,197.357 68.525,195.99800000000002 69.885,196.579 C 82.537,201.979 97.062,206.47 105.215,207.502 C 106.715,207.692 108.78,208.113 109.804,208.438 C 112.06,209.154 114,205.54999999999998 114,200.642 C 114,198.831 114.836,196.48 115.878,195.362 C 119.116,191.887 119.327,189.513 116.532,188.017 C 114.542,186.952 114.162,186.163 114.641,184.092 C 114.971,182.66600000000003 115.973,180.91400000000002 116.87,180.197 C 118.274,179.075 118.54899999999999,179.212 118.851,181.184 C 119.675,186.569 125.63300000000001,191.94199999999998 134.288,195.105 C 139.845,197.136 147,197.64 147,196 C 147,195.45 145.875,195 144.5,195 C 141.391,195 141.267,193.456 144.25,191.885 C 147.098,190.385 147.966,189.076 147.985,186.25 C 148.00400000000002,183.436 145.458,183.276 144,186 C 142.68,188.467 141.024,188.602 140.93,186.25 C 140.864,184.615 140.814,184.612 140.178,186.216 C 139.59799999999998,187.678 139.136,187.752 137.058,186.716 C 133.75799999999998,185.071 130.263,174.22 132.728,173.274 C 133.62800000000001,172.929 134.84300000000002,173.432 135.597,174.463 C 136.34400000000002,175.48499999999999 137.567,175.997 138.452,175.657 C 140.554,174.85000000000002 140.415,173.00400000000002 138.25,172.985 C 136.752,172.972 136.716,172.828 138,171.985 C 139.333,171.11 139.333,170.89 138,170.015 C 137.175,169.47299999999998 135.938,169.023 135.25,169.015 C 133.616,168.99499999999998 133.65099999999998,165.97000000000003 135.314,163.473 C 136.037,162.388 136.689,160.42 136.763,159.101 C 136.83700000000002,157.782 137.304,156.29600000000002 137.8,155.8 C 139.86,153.74 148.79999999999998,152.31900000000002 156.795,152.782 C 163.28699999999998,153.15800000000002 165.42399999999998,152.933 166.778,151.733 C 167.725,150.893 169.352,150.047 170.394,149.853 C 172.508,149.459 175.48,145.72299999999998 176.512,142.164 C 177.121,140.06099999999998 176.986,139.93699999999998 175.16,140.914 C 172.389,142.397 172,142.29700000000003 172,140.104 C 172,137.436 178.214,132.289 182.987,131.004 C 185.194,130.41 187,129.442 187,128.854 C 187,128.26600000000002 186.397,128.01700000000002 185.66,128.3 C 184.688,128.673 184.277,127.686 184.16,124.706 C 184.071,122.447 183.549,120.149 182.999,119.599 C 182.44899999999998,119.049 182,117.78999999999999 182,116.8 C 182,115.81 181.523,115 180.941,115 C 180.359,115 180.16,114.55 180.5,114 C 182.348,111.01 200,115.229 200,118.661 C 200,119.388 200.9,120.545 202,121.232 C 205.057,123.141 204.40099999999998,123.86399999999999 200.13,123.291 C 195.85999999999999,122.718 193.61,124.435 197.388,125.383 C 200.48000000000002,126.15899999999999 201.51899999999998,130.659 198.974,132.248 C 196.10899999999998,134.03699999999998 199.224,139.231 205.5,143.129 C 207.15,144.154 207.98999999999998,144.994 207.367,144.996 C 206.744,144.99800000000002 205.99800000000002,145.9 205.71,147 C 205.297,148.579 204.273,149.03300000000002 200.844,149.156 C 198.45499999999998,149.24200000000002 195.488,149.224 194.25,149.118 C 192.75,148.989 192,149.47299999999998 192,150.569 C 192,151.749 191.506,152.006 190.25,151.478 C 188.689,150.821 186.499,150.364 183.5,150.068 C 182.95,150.014 183.175,149.492 184,148.909 C 185.786,147.646 184.601,148.026 180.5,150.032 C 177.627,151.43800000000002 174.10299999999998,154.774 174.033,156.156 C 174.033,156.156 174.976,156.55800000000002 176.169,156.246 C 177.994,155.769 178.213,155.981 177.555,157.589 C 175.39100000000002,162.875 175.66899999999998,163.501 178.736,160.25 C 183.624,155.068 185.53900000000002,155.963 181.996,161.774 C 179.52800000000002,165.822 179.528,166 182,166 C 183.1,166 184,165.41 184,164.689 C 184,162.91299999999998 187.90699999999998,158.824 188.974,159.484 C 189.444,159.775 190.05700000000002,159.447 190.336,158.756 C 190.735,157.766 190.85899999999998,157.771 190.921,158.783 C 190.964,159.48899999999998 189.875,162.287 188.5,165 C 187.125,167.713 186,170.415 186,170.415 C 186,171.928 191.894,168.51399999999998 192.36,166.731 C 192.668,165.552 193.21099999999998,164.87699999999998 193.565,165.231 C 193.919,165.585 193.53500000000003,167.22699999999998 192.711,168.878 C 191.268,171.76999999999998 191.405,173 193.167,173 C 193.167,173 194,172.352 194,171.559 C 194,170.039 195.799,168.46599999999998 196.61,169.277 C 197.622,170.289 194.48399999999998,178.01500000000001 193.253,177.543 C 191.522,176.87900000000002 191.686,177.995 193.636,180.15 C 195.065,181.729 195.111,182.53300000000002 193.998,186.508 C 193.297,189.01000000000002 193.362,191.695 193.362,191.695 C 193.362,191.695 194,191.78099999999998 194,191.105 C 194,190.429 195.096,187.541 196.435,184.688 C 197.774,181.83499999999998 199.184,178.22 199.567,176.655 C 200.07500000000002,174.582 200.49599999999998,174.175 201.117,175.155 C 201.75,176.154 201.97400000000002,176.178 201.985,175.25 C 201.99300000000002,174.562 202.675,174 203.5,174 C 204.325,174 205,174.45 205,175 C 205,175.55 204.564,176 204.031,176 C 203.49800000000002,176 203.35,176.749 203.701,177.664 C 204.112,178.73499999999999 203.947,179.08599999999998 203.239,178.648 C 202.63400000000001,178.274 201.855,178.425 201.51,178.984 C 201.165,179.543 201.359,180 201.941,180 C 203.361,180 203.292,183.30800000000002 201.842,184.758 C 201.01700000000002,185.583 200.991,186.287 201.751,187.208 C 202.909,188.611 202.228,198.25900000000001 201.023,197.514 C 199.642,196.66 195.221,208.706 193.689,217.5 C 193.114,220.8 192.006,224.136 191.227,224.915 C 190.178,225.964 189.981,227.688 190.464,231.558 C 190.929,235.279 190.668,237.858 189.558,240.514 C 188.701,242.565 188,244.941 188,245.793 C 188,246.645 187.23000000000002,248.19400000000002 186.288,249.234 C 185.01500000000001,250.64100000000002 184.616,252.713 184.733,257.313 C 184.97,266.655 186.086,275 187.098,275 C 187.098,275 188,274.495 188,273.878 C 188,273.08799999999997 188.433,273.11400000000003 189.459,273.966 C 190.661,274.964 191.032,274.721 191.567,272.588 C 191.924,271.16400000000004 193.108,270 193.108,270 C 193.108,270 194,269.27799999999996 194,268.395 C 194,267.512 195.125,264.551 196.5,261.813 C 197.875,259.075 199,255.822 199,254.583 C 199,253.344 199.85,249.668 200.89,246.415 C 201.92999999999998,243.16199999999998 204.174,236.102 205.876,230.728 C 209.439,219.479 210.88099999999997,216.472 214.378,213 C 215.76299999999998,211.625 217.65400000000002,207.912 218.58,204.75 C 219.506,201.588 221.164,199 221.164,199 C 221.164,199 222.451,197.988 222.923,196.75 C 223.59,195.001 223.77,195.558 223.732,199.25 C 223.705,201.863 222.842,204 222.842,204 C 222.842,204 222,204.675 222,205.5 C 222,206.325 222.413,207 222.918,207 C 223.895,207 223.893,214.441 222.916,215.418 C 222.46,215.874 222.538,225.337 223.108,238.5 C 223.368,244.50900000000001 221.591,256.593 220.055,259.264 C 217.49800000000002,263.71000000000004 216.306,269.497 218.143,268.551 C 218.889,268.166 218.787,268.448 217.916,269.176 C 217.045,269.904 216.024,271.738 215.647,273.25 C 215.647,273.25 214.962,276 214.962,276 C 214.962,276 182.145,276 182.145,276 C 182.145,276 149.328,276 149.328,276 C 149.328,276 144.457,272.25 144.457,272.25 C 141.778,270.188 138.779,267.712 137.793,266.75 C 136.80700000000002,265.788 135.438,264.981 134.75,264.959 C 134.062,264.937 131.942,263.587 130.038,261.959 C 126.397,258.847 122.702,257.73 124.931,260.416 C 125.865,261.541 125.735,261.922 124.303,262.266 C 122.948,262.591 123.428,263.11 126.232,264.355 C 128.285,265.266 130.732,265.888 130.732,265.888 C 132.949,265.529 134.096,266.284 135.523,269.044 C 136.389,270.71799999999996 138.538,272.966 140.299,274.04 C 143.497,275.99 143.442,275.99199999999996 84.25,275.996 C 51.662,275.998 25,275.562 25,275.562 Z" style="fill-opacity:1.0;fill:rgb(11, 9, 11)" /></g></g></g></svg>