<svg xmlns:inkscape="http://www.inkscape.org/namespaces/inkscape" xmlns:sodipodi="http://sodipodi.sourceforge.net/DTD/sodipodi-0.dtd" xmlns:xlink="http://www.w3.org/1999/xlink" height="286" style="fill: none; stroke: none" version="1.1" viewBox="0 0 280 286" width="280" xmlns="http://www.w3.org/2000/svg" inkscape:export-xdpi="96" inkscape:export-ydpi="96"><defs /><sodipodi:namedview bordercolor="#666666" borderlayer="true" pagecolor="#ffffff" inkscape:pagecheckerboard="true" /><g id="g_1" style="" transform="matrix(1.0, 0.0, 0.0, 1.0, 0.0, 0.0)" inkscape:groupmode="layer" inkscape:label="ShapeLayer"><g id="stroke"><use style="stroke:rgb(252, 189, 12);stroke-opacity:1.0;stroke-width:1.0;stroke-miterlimit:0.0;stroke-linecap:round;stroke-linejoin:round" xlink:href="#g_2" /><g id="g_2" style="fill-opacity:1.0;fill:rgb(252, 189, 12)" transform="matrix(1.0, 0.0, 0.0, 1.0, 0.0, 0.0)"><path d="M 244.807,0.253 C 251.576,0.08000000000000002 262.37600000000003,0.08000000000000002 268.807,0.254 C 275.238,0.428 269.7,0.57 256.5,0.569 C 243.3,0.568 238.03799999999998,0.426 244.807,0.253 Z&#10;M 6.292,0.258 C 10.027,0.065 15.877000000000002,0.066 19.292,0.261 C 22.707,0.456 19.65,0.613 12.5,0.611 C 5.35,0.609 2.557,0.451 6.292,0.258 Z&#10;M 35.077,112.077 C 42.641999999999996,104.512 34.338,91.259 24.399,95.038 C 20.271,96.60799999999999 18.07,99.991 18.033,104.827 C 17.962,114.095 28.552999999999997,118.601 35.077,112.077 Z&#10;M 19.5,136.654 C 12.552,134.85399999999998 9.032,132.826 4.181,127.828 C 4.181,127.828 0,123.521 0,123.521 C 0,123.521 0,104.652 0,104.652 C 0,104.652 0,85.783 0,85.783 C 0,85.783 5.25,80.622 5.25,80.622 C 17.939999999999998,68.148 39.127,68.667 51.707,81.76 C 60.472,90.88300000000001 63.171,102.727 59.421,115.625 C 57.321,122.849 49.132000000000005,131.83700000000002 41.761,135.008 C 35.414,137.738 26.291,138.41299999999998 19.5,136.654 Z&#10;M 183.696,188.044 C 189.171,184.705 189.14,175.312 183.64,171.46 C 178.944,168.17100000000002 171.03,170.31 168.548,175.54 C 166.576,179.696 166.599,181.514 168.67,185.019 C 171.70899999999997,190.16400000000002 178.107,191.452 183.696,188.044 Z&#10;M 165.357,210.984 C 157.908,208.023 151.648,202.06 147.814,194.273 C 144.983,188.523 144.557,186.64000000000001 144.571,179.966 C 144.585,173.33800000000002 145.03300000000002,171.37400000000002 147.83,165.693 C 151.758,157.715 158.02200000000002,151.89000000000001 165.853,148.936 C 173.345,146.11 185.368,146.555 191.849,149.898 C 198.38799999999998,153.271 204.62800000000001,159.545 207.722,165.857 C 210.098,170.704 210.483,172.698 210.451,180 C 210.40699999999998,190.138 208.38,195.463 201.879,202.515 C 195.45399999999998,209.48499999999999 189.333,212.19799999999998 179.008,212.653 C 172.162,212.95399999999998 169.496,212.62900000000002 165.357,210.984 Z&#10;M 105.531,262 C 107.936,262 112.99000000000001,255.70299999999997 112.995,252.7 C 113.01100000000001,243.124 101.8,238.35399999999998 95.077,245.077 C 91.5,248.654 90.971,253.50099999999998 93.702,257.669 C 95.556,260.49899999999997 100.707,263.204 102.832,262.464 C 103.564,262.209 104.77900000000001,262 105.531,262 Z&#10;M 84.946,280.13 C 74.17,273.174 69.628,264.875 69.551,252 C 69.506,244.472 69.843,242.829 72.5,237.625 C 85.293,212.571 120.97299999999998,212.944 132.599,238.253 C 134.956,243.385 135.466,245.839 135.453,252 C 135.428,264.218 130.359,273.477 120.054,280.13 C 115.735,282.918 115.234,283 102.5,283 C 89.766,283 89.265,282.918 84.946,280.13 Z" style="fill-opacity:1.0;fill:rgb(252, 189, 12)" /></g></g><g id="g_4"><use style="stroke:rgb(228, 46, 42);stroke-opacity:1.0;stroke-width:1.0;stroke-miterlimit:0.0;stroke-linecap:round;stroke-linejoin:round" xlink:href="#g_3" /><g id="g_3" style="fill-opacity:1.0;fill:rgb(228, 46, 42)" transform="matrix(1.0, 0.0, 0.0, 1.0, 0.0, 0.0)"><path d="M 173,138.048 C 171.83,137.29 171.427,134.319 171.168,124.538 C 171.168,124.538 170.837,112 170.837,112 C 170.837,112 157.918,112 157.918,112 C 157.918,112 145,112 145,112 C 145,112 145,105.5 145,105.5 C 145,105.5 145,99 145,99 C 145,99 157.971,99 157.971,99 C 157.971,99 170.942,99 170.942,99 C 170.942,99 171.221,85.75 171.221,85.75 C 171.221,85.75 171.5,72.5 171.5,72.5 C 171.5,72.5 178,72.5 178,72.5 C 178,72.5 184.5,72.5 184.5,72.5 C 184.5,72.5 184.779,85.75 184.779,85.75 C 184.779,85.75 185.058,99 185.058,99 C 185.058,99 197.862,99 197.862,99 C 204.904,99 211.083,99.413 211.083,99.413 C 211.083,99.413 211.347,102.565 211.161,105.913 C 211.161,105.913 210.822,112 210.822,112 C 210.822,112 197.94,112 197.94,112 C 197.94,112 185.058,112 185.058,112 C 185.058,112 184.779,125.25 184.779,125.25 C 184.779,125.25 184.5,138.5 184.5,138.5 C 184.5,138.5 179.5,138.76 179.5,138.76 C 176.75,138.903 173.825,138.582 173,138.048 Z&#10;M 28.25,213.253 C 28.25,213.253 23,212.895 23,212.895 C 23,212.895 23,200.507 23,200.507 C 23,191.731 22.639,187.895 21.761,187.352 C 21.079,186.931 18.491999999999997,186.532 16.011,186.467 C 13.53,186.40200000000002 8.911999999999999,186.27 5.75,186.174 C 5.75,186.174 0,186 0,186 C 0,186 0,179.533 0,179.533 C 0,179.533 0,173.066 0,173.066 C 0,173.066 11.25,172.783 11.25,172.783 C 11.25,172.783 22.5,172.5 22.5,172.5 C 22.5,172.5 22.779,159.203 22.779,159.203 C 22.779,159.203 23.059,145.906 23.059,145.906 C 23.059,145.906 29.279,146.203 29.279,146.203 C 29.279,146.203 35.5,146.5 35.5,146.5 C 35.5,146.5 35.779,159.721 35.779,159.721 C 35.779,159.721 36.058,172.942 36.058,172.942 C 36.058,172.942 49.279,173.221 49.279,173.221 C 49.279,173.221 62.5,173.5 62.5,173.5 C 62.5,173.5 62.827,176.933 62.827,176.933 C 63.007,178.821 62.895,181.74599999999998 62.578,183.433 C 62.578,183.433 62.002,186.5 62.002,186.5 C 62.002,186.5 54.621,186.408 54.621,186.408 C 50.561,186.357 44.723000000000006,186.524 41.648,186.779 C 41.648,186.779 36.056,187.243 36.056,187.243 C 36.056,187.243 35.778,200.29 35.778,200.29 C 35.613,208.016 35.092,213.39200000000002 34.5,213.473 C 33.95,213.548 31.137,213.45 28.25,213.253 Z" style="fill-opacity:1.0;fill:rgb(228, 46, 42)" /></g></g><g id="g_6"><use style="stroke:rgb(35, 157, 144);stroke-opacity:1.0;stroke-width:1.0;stroke-miterlimit:0.0;stroke-linecap:round;stroke-linejoin:round" xlink:href="#g_5" /><g id="g_5" style="fill-opacity:1.0;fill:rgb(35, 157, 144)" transform="matrix(1.0, 0.0, 0.0, 1.0, 0.0, 0.0)"><path d="M 75.987,60.988 C 75.987,60.988 71.554,56.977 71.554,56.977 C 71.554,56.977 83.277,45.223 83.277,45.223 C 89.725,38.759 95,32.621 95,32.621 C 95,32.621 92.01,28.785999999999998 88.357,25.136 C 84.704,21.486 79.497,16.172 76.786,13.328 C 76.786,13.328 71.858,8.157 71.858,8.157 C 71.858,8.157 75.679,4.605 75.679,4.605 C 77.78,2.652 80.16799999999999,1.0419999999999998 80.984,1.027 C 81.8,1.012 87.52,6.0360000000000005 93.693,12.192 C 93.693,12.192 104.917,23.385 104.917,23.385 C 104.917,23.385 116.261,12.192 116.261,12.192 C 122.5,6.0360000000000005 128.27,1 129.083,1 C 130.602,1 137,7.180999999999999 137,8.649 C 137,8.649 131.82399999999998,14.659000000000002 125.499,21.001 C 125.499,21.001 113.999,32.531 113.999,32.531 C 113.999,32.531 125.499,43.999 125.499,43.999 C 131.82399999999998,50.306000000000004 137,55.946 137,56.531 C 137,57.824 129.23499999999999,65.547 128.551,64.935 C 128.551,64.935 122.844,59.363 116.463,53.085 C 116.463,53.085 104.861,41.67 104.861,41.67 C 104.861,41.67 93.166,53.335 93.166,53.335 C 86.733,59.751000000000005 80.945,65 80.945,65 C 80.945,65 78.425,63.194 75.987,60.988 Z&#10;M 227.518,207.018 C 225.38,204.828 224.065,202.591 224.065,202.591 C 224.065,202.591 229.62099999999998,196.90599999999998 235.879,190.503 C 235.879,190.503 247.257,178.862 247.257,178.862 C 247.257,178.862 235.629,167.088 235.629,167.088 C 229.233,160.613 224,154.696 224,154.696 C 224,154.696 225.87099999999998,152.22500000000002 228.158,149.961 C 228.158,149.961 232.315,145.845 232.315,145.845 C 232.315,145.845 244.423,157.923 244.423,157.923 C 244.423,157.923 256.531,170.002 256.531,170.002 C 256.531,170.002 266.612,159.751 266.612,159.751 C 281.286,144.829 280,145.258 280,155.287 C 280,155.287 280,163.82 280,163.82 C 280,163.82 273.018,170.66 273.018,170.66 C 269.178,174.422 266.02799999999996,178.0 266.018,178.611 C 266.008,179.22199999999998 269.15,182.805 273,186.571 C 273,186.571 280,193.418 280,193.418 C 280,193.418 279.989,202.459 279.989,202.459 C 279.989,202.459 279.977,211.5 279.977,211.5 C 279.977,211.5 268.367,199.75 268.367,199.75 C 261.981,193.287 256.129,188.001 256.129,188.001 C 256.129,188.001 250.38299999999998,193.17600000000002 244.128,199.501 C 237.873,205.826 232.081,211 232.081,211 C 232.081,211 229.656,209.208 227.518,207.018 Z&#10;M 74.996,207.496 C 74.996,207.496 70.558,202.974 70.558,202.974 C 70.558,202.974 82.513,190.987 82.513,190.987 C 82.513,190.987 94.469,179 94.469,179 C 94.469,179 82.516,167.016 82.516,167.016 C 82.516,167.016 70.563,155.032 70.563,155.032 C 70.563,155.032 74.484,151.016 74.484,151.016 C 76.64099999999999,148.807 78.884,147 79.469,147 C 80.05399999999999,147 85.69300000000001,152.175 92.001,158.501 C 92.001,158.501 103.469,170.002 103.469,170.002 C 103.469,170.002 115.513,157.987 115.513,157.987 C 115.513,157.987 127.557,145.972 127.557,145.972 C 127.557,145.972 131.999,150.499 131.999,150.499 C 131.999,150.499 136.442,155.026 136.442,155.026 C 136.442,155.026 124.487,167.013 124.487,167.013 C 124.487,167.013 112.531,179 112.531,179 C 112.531,179 124.487,190.987 124.487,190.987 C 124.487,190.987 136.442,202.974 136.442,202.974 C 136.442,202.974 132,207.5 132,207.5 C 132,207.5 127.557,212.027 127.557,212.027 C 127.557,212.027 116.014,200.513 116.014,200.513 C 109.66499999999999,194.181 103.97099999999999,189 103.362,189 C 102.753,189 100.452,190.912 98.249,193.25 C 96.04599999999999,195.588 90.911,200.766 86.839,204.759 C 86.839,204.759 79.434,212.018 79.434,212.018 C 79.434,212.018 74.996,207.496 74.996,207.496 Z" style="fill-opacity:1.0;fill:rgb(35, 157, 144)" /></g></g><g id="g_8"><use style="stroke:rgb(36, 79, 221);stroke-opacity:1.0;stroke-width:1.0;stroke-miterlimit:0.0;stroke-linecap:round;stroke-linejoin:round" xlink:href="#g_7" /><g id="g_7" style="fill-opacity:1.0;fill:rgb(36, 79, 221)" transform="matrix(1.0, 0.0, 0.0, 1.0, 0.0, 0.0)"><path d="M 226.474,130.973 C 226.474,130.973 222.542,126.946 222.542,126.946 C 222.542,126.946 242.771,106.834 242.771,106.834 C 253.897,95.772 263.0,86.22200000000001 263.001,85.611 C 263.00199999999995,84.85300000000001 259.904,84.59 253.251,84.784 C 247.888,84.94000000000001 242.93,84.68499999999999 242.234,84.216 C 241.53,83.74199999999999 240.864,80.95 240.734,77.931 C 240.734,77.931 240.5,72.5 240.5,72.5 C 240.5,72.5 260.25,72.229 260.25,72.229 C 260.25,72.229 280,71.958 280,71.958 C 280,71.958 280,94.979 280,94.979 C 280,94.979 280,118 280,118 C 280,118 277.032,118 277.032,118 C 277.032,118 274.063,118 274.063,118 C 274.063,118 273.782,106.25 273.782,106.25 C 273.782,106.25 273.5,94.5 273.5,94.5 C 273.5,94.5 253.18,114.75 253.18,114.75 C 242.00400000000002,125.888 232.30800000000002,135 231.633,135 C 230.958,135 228.637,133.18800000000002 226.474,130.973 Z&#10;M 75.703,134.208 C 73.666,132.12199999999999 72,129.822 72,129.822 C 72,129.822 81.058,120.146 92.129,109.044 C 103.914,97.226 111.88900000000001,88.489 111.367,87.967 C 110.87700000000001,87.477 105.756,86.946 99.988,86.788 C 99.988,86.788 89.5,86.5 89.5,86.5 C 89.5,86.5 89.5,80.5 89.5,80.5 C 89.5,80.5 89.5,74.5 89.5,74.5 C 89.5,74.5 110.5,74.217 110.5,74.217 C 122.05,74.06099999999999 132.52100000000002,74.185 133.769,74.491 C 133.769,74.491 136.037,75.047 136.037,75.047 C 136.037,75.047 135.769,97.774 135.769,97.774 C 135.769,97.774 135.5,120.5 135.5,120.5 C 135.5,120.5 129.25,120.798 129.25,120.798 C 129.25,120.798 123,121.095 123,121.095 C 123,121.095 123,109.548 123,109.548 C 123,102.856 122.59700000000001,98 122.042,98 C 121.515,98 112.204,107 101.351,118 C 90.498,129 81.12,138 80.512,138 C 79.904,138 77.74000000000001,136.294 75.703,134.208 Z&#10;M 5.844,279.745 C -0.25399999999999956,274.591 -0.3829999999999991,274.846 17.07,257.492 C 28.163,246.46200000000002 32.638,241.38799999999998 31.761,240.831 C 31.067999999999998,240.391 25.887,240.023 20.25,240.015 C 20.25,240.015 10,240 10,240 C 10,240 10,234 10,234 C 10,234 10,228 10,228 C 10,228 33,228 33,228 C 33,228 56,228 56,228 C 56,228 56,251.048 56,251.048 C 56,251.048 56,274.095 56,274.095 C 56,274.095 49.761,273.798 49.761,273.798 C 49.761,273.798 43.523,273.5 43.523,273.5 C 43.523,273.5 43.743,266 43.743,266 C 43.864000000000004,261.875 43.596000000000004,256.7 43.148,254.5 C 43.148,254.5 42.333,250.5 42.333,250.5 C 42.333,250.5 26.545,266.25 26.545,266.25 C 17.861000000000004,274.913 10.249,281.998 9.628,281.995 C 9.007,281.992 7.305000000000001,280.98 5.844,279.745 Z&#10;M 246.985,272.75 C 246.977,267.113 246.621,261.952 246.196,261.282 C 245.673,260.45799999999997 241.39000000000001,259.97299999999996 232.961,259.782 C 232.961,259.782 220.5,259.5 220.5,259.5 C 220.5,259.5 220.5,253 220.5,253 C 220.5,253 220.5,246.5 220.5,246.5 C 220.5,246.5 233.5,246.5 233.5,246.5 C 233.5,246.5 246.5,246.5 246.5,246.5 C 246.5,246.5 246.56,234.177 246.56,234.177 C 246.606,224.587 246.939,221.651 248.06,220.942 C 250.309,219.519 259.992,219.768 260.043,221.25 C 260.067,221.938 260.17900000000003,227.9 260.293,234.5 C 260.293,234.5 260.5,246.5 260.5,246.5 C 260.5,246.5 266,246.184 266,246.184 C 269.025,246.01 273.413,246.15 275.75,246.495 C 275.75,246.495 280,247.123 280,247.123 C 280,247.123 280,253.525 280,253.525 C 280,253.525 280,259.928 280,259.928 C 280,259.928 270.25,260.214 270.25,260.214 C 270.25,260.214 260.5,260.5 260.5,260.5 C 260.5,260.5 260.217,271.75 260.217,271.75 C 260.217,271.75 259.934,283 259.934,283 C 259.934,283 253.467,283 253.467,283 C 253.467,283 247,283 247,283 C 247,283 246.985,272.75 246.985,272.75 Z" style="fill-opacity:1.0;fill:rgb(36, 79, 221)" /></g></g><g id="g_10"><use style="stroke:rgb(81, 17, 8);stroke-opacity:1.0;stroke-width:1.0;stroke-miterlimit:0.0;stroke-linecap:round;stroke-linejoin:round" xlink:href="#g_9" /><g id="g_9" style="fill-opacity:1.0;fill:rgb(81, 17, 8)" transform="matrix(1.0, 0.0, 0.0, 1.0, 0.0, 0.0)"><path d="M 243.75,1.253 C 250.488,1.0799999999999998 261.512,1.0799999999999998 268.25,1.253 C 274.988,1.426 269.475,1.568 256,1.568 C 242.525,1.568 237.012,1.426 243.75,1.253 Z&#10;M 9.287,1.26 C 12.47,1.061 17.419999999999998,1.063 20.287,1.264 C 23.154,1.465 20.55,1.628 14.5,1.626 C 8.45,1.6239999999999999 6.104000000000001,1.459 9.287,1.26 Z&#10;M 139.835,54.25 C 139.651,50.538 139.744,36.925 140.043,24 C 140.043,24 140.587,0.5 140.587,0.5 C 140.587,0.5 140.793,30.75 140.793,30.75 C 140.907,47.388000000000005 140.585,61 140.585,61 C 140.585,61 140.019,57.962 139.835,54.25 Z&#10;M 124.5,64 C 124.13,63.401 116.388,62.934 105.191,62.835 C 105.191,62.835 86.5,62.67 86.5,62.67 C 86.5,62.67 102.5,61.941 102.5,61.941 C 117.993,61.236000000000004 126,61.951 126,64.039 C 126,65.286 125.283,65.267 124.5,64 Z&#10;M 0,84.573 C 0,84.573 0.6660000000000001,83.221 1.481,82.61 C 2.2960000000000003,81.999 3.135,80.375 3.347,79 C 3.624,77.201 4.33,76.52199999999999 5.866,76.579 C 7.039999999999999,76.62299999999999 8,75.829 8,75.829 C 8,75.829 8.638,75 9.417,75 C 10.196,75 10.984,74.605 11.167,74.122 C 11.35,73.639 13.075,72.964 15,72.623 C 18.374,72.025 18.339,72.07600000000001 14,74.055 C 11.525,75.18400000000001 7.362,78.20400000000001 4.75,80.766 C 2.137,83.328 0,84.573 0,84.573 Z&#10;M 58.649,91.493 C 56.039,85.145 48.872,77.557 42.967,74.888 C 40.235,73.653 38,71.853 38,71.853 C 38,70.99 40.832,71.798 42.623,73.172 C 43.241,73.646 44.556999999999995,73.72399999999999 45.547,73.344 C 46.946999999999996,72.80699999999999 47.205,73.02399999999999 46.705,74.326 C 46.352,75.246 46.906,76 46.906,76 C 46.906,76 49.45,77.55799999999999 51.529,79.463 C 53.608000000000004,81.368 55.69,82.691 56.155,82.404 C 56.620000000000005,82.11699999999999 57,82.557 57,83.382 C 57,84.20700000000001 57.45,85.16 58,85.5 C 58.645,85.898 59,82.00999999999999 59,74.559 C 59,74.559 59,63 59,63 C 59,63 29.333,63 29.333,63 C 13.015999999999998,63 0.187,62.479 0.187,62.479 C 0.187,62.479 13.823999999999998,61.917 29.854,61.865 C 29.854,61.865 59,61.771 59,61.771 C 59,61.771 59,31.385 59,31.385 C 59,11.376000000000001 59.349000000000004,1 60.021,1 C 60.703,1 61.012,16.786 60.952,48.5 C 60.902,74.625 60.681,95.996 60.681,95.996 C 60.681,95.996 59.667,93.96799999999999 58.649,91.493 Z&#10;M 24.345,114.286 C 23.703,113.849 25.147,113.5 27.599,113.5 C 31.225,113.5 32.449,112.984 34.503,110.594 C 37.05,107.63 38.044000000000004,101 35.941,101 C 35.359,101 35.129,100.601 35.43,100.114 C 36.025999999999996,99.15 32.79,98.036 29.333,98.014 C 28.141,98.006 26.997,97.49000000000001 26.789,96.867 C 26.220000000000002,95.16000000000001 22.453,96.729 22.269,98.749 C 22.180999999999997,99.71199999999999 22.0,103.347 21.867,106.827 C 21.626,113.123 21.617,113.143 19.835,110.827 C 18.787,109.465 18.035,106.775 18.022,104.339 C 18.003999999999998,100.906 18.538,99.725 21.077,97.589 C 25.490000000000002,93.876 31.165,94.011 35.077,97.923 C 39.001,101.84700000000001 39.066,106.786 35.25,111.019 C 32.457,114.11800000000001 26.651,115.857 24.345,114.286 Z&#10;M 184.779,125.25 C 184.779,125.25 185.058,112 185.058,112 C 185.058,112 197.94,112 197.94,112 C 197.94,112 210.822,112 210.822,112 C 210.822,112 211.161,105.913 211.161,105.913 C 211.347,102.565 211.083,99.413 211.083,99.413 C 211.083,99.413 204.904,99 197.862,99 C 197.862,99 185.058,99 185.058,99 C 185.058,99 184.779,85.75 184.779,85.75 C 184.779,85.75 184.5,72.5 184.5,72.5 C 184.5,72.5 178,72.5 178,72.5 C 178,72.5 171.5,72.5 171.5,72.5 C 171.5,72.5 171.221,85.75 171.221,85.75 C 171.221,85.75 170.942,99 170.942,99 C 170.942,99 157.971,99 157.971,99 C 157.971,99 145,99 145,99 C 145,99 145,105.5 145,105.5 C 145,105.5 145,112 145,112 C 145,112 157.918,112 157.918,112 C 157.918,112 170.837,112 170.837,112 C 170.837,112 171.168,124.538 171.168,124.538 C 171.548,138.891 171.708,139.165 179.5,138.76 C 179.5,138.76 184.5,138.5 184.5,138.5 C 184.5,138.5 184.779,125.25 184.779,125.25 Z&#10;M 170.516,137.75 C 170.22899999999998,136.512 169.883,130.55 169.747,124.5 C 169.747,124.5 169.5,113.5 169.5,113.5 C 169.5,113.5 157.5,113.49 157.5,113.49 C 150.9,113.484 144.938,113.11999999999999 144.25,112.681 C 142.615,111.636 142.57399999999998,99.82600000000001 144.2,98.2 C 145.003,97.397 149.46699999999998,97 157.7,97 C 157.7,97 170,97 170,97 C 170,97 170,84.607 170,84.607 C 170,70.467 169.649,71 178.959,71 C 187.091,71 187.353,71.503 186.482,85.443 C 186.482,85.443 185.764,96.94 185.764,96.94 C 185.764,96.94 199.132,97.22 199.132,97.22 C 199.132,97.22 212.5,97.5 212.5,97.5 C 212.5,97.5 212.792,105.25 212.792,105.25 C 212.792,105.25 213.084,113 213.084,113 C 213.084,113 208.292,113.057 208.292,113.057 C 195.999,113.20400000000001 187.578,114.06 186.8,115.242 C 186.345,115.934 186.26500000000001,121.10499999999999 186.622,126.734 C 187.437,139.584 187.164,140 177.897,140 C 171.606,140 170.995,139.814 170.516,137.75 Z&#10;M 139.845,140.512 C 139.273,139.94 140.022,64.699 140.605,64.083 C 140.605,64.083 141,81.066 141,102.333 C 141,123.6 140.667,141 140.667,141 C 140.667,141 139.845,140.512 139.845,140.512 Z&#10;M 210.116,171.441 C 209.95000000000002,168.488 203.756,158.579 199.837,154.994 C 195.59099999999998,151.111 189.353,148.083 183.268,146.954 C 183.268,146.954 178.5,146.069 178.5,146.069 C 178.5,146.069 184.231,146.541 184.231,146.541 C 191.388,147.13 196.05,149.661 202.728,156.582 C 205.603,159.56199999999998 207.494,162 207.494,162 C 207.494,162 207.961,163.782 209.097,165.961 C 210.233,168.14000000000001 210.953,170.727 210.697,171.711 C 210.304,173.22500000000002 210.21400000000003,173.183 210.116,171.441 Z&#10;M 144.626,171 C 144.959,169.075 145.966,166.15 146.865,164.5 C 150.678,157.502 159.505,148.99599999999998 162.944,149.004 C 163.79999999999998,149.006 162.925,149.95000000000002 161,151.103 C 153.486,155.603 149.346,160.738 145.762,170 C 144.176,174.099 144.07500000000002,174.188 144.626,171 Z&#10;M 168.708,178.678 C 167.208,174.774 172.25900000000001,170 177.889,170 C 182.032,170 181.29000000000002,171.185 176.842,171.672 C 173.64100000000002,172.022 170.99200000000002,174.641 169.954,178.48 C 169.44400000000002,180.367 169.362,180.38 168.708,178.678 Z&#10;M 179.316,189.351 C 179.673,188.994 180.98499999999999,188.196 182.232,187.576 C 185.538,185.934 186.416,176.859 183.631,173.118 C 183.631,173.118 181.682,170.5 181.682,170.5 C 181.682,170.5 184.245,173 184.245,173 C 186.747,175.441 189.313,182.93 187.2,181.624 C 186.60199999999998,181.255 186.385,181.755 186.67,182.845 C 187.15699999999998,184.709 182.046,190 179.757,190 C 179.15800000000002,190 178.959,189.708 179.316,189.351 Z&#10;M 171.699,187.978 C 169.103,185.936 166.31400000000002,180.35199999999998 167.365,179.301 C 167.365,179.301 168,179.36499999999998 168,180.218 C 168,181.071 169.164,182.53300000000002 170.587,183.465 C 172.01,184.397 172.647,185.686 172.647,185.686 C 171.76,186.573 174.40800000000002,188.781 175.745,188.268 C 176.435,188.00300000000001 177,188.286 177,188.286 C 177,189.812 173.793,189.625 171.699,187.978 Z&#10;M 224.2,204.8 C 222.254,202.854 222.893,201.807 229.867,195.528 C 229.867,195.528 236.5,189.556 236.5,189.556 C 236.5,189.556 230.083,196.224 230.083,196.224 C 224.601,201.92 223.853,203.118 224.955,204.446 C 226.47500000000002,206.277 225.932,206.532 224.2,204.8 Z&#10;M 158,208.263 C 152.562,204.04500000000002 149.418,200.707 147.636,197.262 C 145.063,192.287 145.721,192.176 148.87,197.054 C 151.787,201.573 156.50400000000002,206.36499999999998 160.973,209.349 C 162.33300000000003,210.25699999999998 163.008,210.995 162.473,210.989 C 161.93800000000002,210.983 159.925,209.756 158,208.263 Z&#10;M 191.559,210.532 C 192.627,209.72400000000002 193.965,209.049 194.534,209.032 C 195.525,209.002 204.139,200.45999999999998 206.977,196.694 C 207.726,195.701 208.906,192.77599999999998 209.601,190.194 C 209.601,190.194 210.865,185.5 210.865,185.5 C 210.865,185.5 210.933,189.691 210.933,189.691 C 210.97,191.996 210.55,194.16 210,194.5 C 209.45,194.84 209,195.685 209,196.377 C 209,197.86200000000002 198.383,209.5 197.029,209.5 C 196.518,209.5 195.53799999999998,210.062 194.85,210.75 C 194.162,211.438 192.704,212 191.609,212 C 189.644,212 189.643,211.98100000000002 191.559,210.532 Z&#10;M 260.331,222.75 C 260.329,221.813 262.793,221.579 270.164,221.816 C 275.574,221.99 280,222.553 280,223.066 C 280,223.581 275.59,224 270.167,224 C 262.96799999999996,224 260.333,223.665 260.331,222.75 Z&#10;M 0,223 C 0,222.356 10.5,222 29.5,222 C 48.5,222 59,222.356 59,223 C 59,223.644 48.5,224 29.5,224 C 10.5,224 0,223.644 0,223 Z&#10;M 8.75,239.608 C 6.8260000000000005,238.148 6.433,235.468 8,234.5 C 8.55,234.16 9,232.585 9,231 C 9,229.415 9.75,227.651 9.75,227.651 C 9.75,227.651 10.351,230.028 10.169,233.503 C 9.883000000000001,238.95 10.09,239.887 11.669,240.295 C 12.855,240.601 12.971,240.797 12,240.852 C 11.175,240.898 9.713,240.339 8.75,239.608 Z&#10;M 220,235.167 C 220,235.167 220,224 220,224 C 220,224 181.059,224 181.059,224 C 154.975,224 141.904,223.653 141.47,222.951 C 141.028,222.236 140.36599999999999,222.281 139.39,223.091 C 138.41799999999998,223.898 135.301,224.113 129.683,223.763 C 129.683,223.763 121.407,223.247 121.407,223.247 C 121.407,223.247 126.454,228.279 126.454,228.279 C 126.454,228.279 131.5,233.312 131.5,233.312 C 131.5,233.312 126,228.406 126,228.406 C 122.975,225.708 120.5,223.05 120.5,222.5 C 120.5,221.879 124.1,221.63199999999998 130,221.849 C 130,221.849 139.5,222.199 139.5,222.199 C 139.5,222.199 139.5,183.086 139.5,183.086 C 139.5,183.086 139.5,143.973 139.5,143.973 C 139.5,143.973 100.5,143.938 100.5,143.938 C 100.5,143.938 61.5,143.903 61.5,143.903 C 61.5,143.903 61,157.902 61,157.902 C 60.545,170.64 60.658,171.943 62.25,172.357 C 63.691,172.732 64,173.963 64,179.325 C 64,182.90699999999998 63.771,186.436 63.491,187.168 C 63.095,188.205 60.106,188.432 49.991,188.194 C 49.991,188.194 37,187.889 37,187.889 C 37,187.889 37,200.909 37,200.909 C 37,216.11599999999999 37.099000000000004,215.974 27.103,215.075 C 27.103,215.075 20.707,214.5 20.707,214.5 C 20.707,214.5 20.603,202 20.603,202 C 20.603,202 20.5,189.5 20.5,189.5 C 20.5,189.5 17,189.219 17,189.219 C 15.075,189.065 12.6,188.513 11.5,187.991 C 10.4,187.46900000000002 7.475,186.884 5,186.69 C 2.525,186.496 5.071999999999999,186.435 10.661,186.555 C 16.25,186.675 21.312,187.075 21.911,187.445 C 22.601000000000003,187.87099999999998 23,192.64100000000002 23,200.466 C 23,200.466 23,212.815 23,212.815 C 23,212.815 28.75,213.217 28.75,213.217 C 31.912,213.43800000000002 35.25,213.251 35.25,213.251 C 35.25,213.251 36,207.114 36,200.065 C 36,200.065 36,187.248 36,187.248 C 36,187.248 41.62,186.782 41.62,186.782 C 44.711,186.526 50.561,186.357 54.621,186.408 C 54.621,186.408 62.002,186.5 62.002,186.5 C 62.002,186.5 62.578,183.433 62.578,183.433 C 62.895,181.74599999999998 63.007,178.821 62.827,176.933 C 62.827,176.933 62.5,173.5 62.5,173.5 C 62.5,173.5 49.279,173.221 49.279,173.221 C 49.279,173.221 36.058,172.942 36.058,172.942 C 36.058,172.942 35.779,159.721 35.779,159.721 C 35.779,159.721 35.5,146.5 35.5,146.5 C 35.5,146.5 29.279,146.203 29.279,146.203 C 29.279,146.203 23.059,145.906 23.059,145.906 C 23.059,145.906 22.779,159.203 22.779,159.203 C 22.779,159.203 22.5,172.5 22.5,172.5 C 22.5,172.5 11,172.572 11,172.572 C 11,172.572 -0.5,172.644 -0.5,172.644 C -0.5,172.644 10,172.072 10,172.072 C 10,172.072 20.5,171.5 20.5,171.5 C 20.5,171.5 21,158.5 21,158.5 C 21,158.5 21.5,145.5 21.5,145.5 C 21.5,145.5 29,145.5 29,145.5 C 29,145.5 36.5,145.5 36.5,145.5 C 36.5,145.5 36.779,158.124 36.779,158.124 C 36.779,158.124 37.058,170.748 37.058,170.748 C 37.058,170.748 40.779,171.363 40.779,171.363 C 42.826,171.701 47.763,171.983 51.75,171.989 C 51.75,171.989 59,172 59,172 C 59,172 59,158 59,158 C 59,158 59,144 59,144 C 59,144 29.5,144 29.5,144 C 10.5,144 0,143.644 0,143 C 0,142.356 10.5,142 29.5,142 C 29.5,142 59,142 59,142 C 59,142 59,131.797 59,131.797 C 59,121.878 58.951,121.656 57.25,123.873 C 53.233,129.107 48.048,134 46.519,134 C 45.617999999999995,134 45.131,134.40300000000002 45.435,134.895 C 46.141000000000005,136.037 43.477000000000004,137.143 39,137.568 C 39,137.568 35.5,137.9 35.5,137.9 C 35.5,137.9 38.513,136.7 38.513,136.7 C 45.414,133.951 50.43900000000001,130.191 54.593,124.665 C 57.017,121.441 59,118.172 59,117.401 C 59,116.63 59.465999999999994,116 60.035,116 C 60.748999999999995,116 60.748999999999995,116.601 60.035,117.934 C 58.729,120.375 58.716,121.293 60,120.5 C 60.644,120.102 61,123.82300000000001 61,130.941 C 61,130.941 61,142 61,142 C 61,142 99.8,142 99.8,142 C 126.407,142 138.942,142.34199999999998 139.687,143.087 C 140.47,143.86999999999998 140.962,143.86999999999998 141.446,143.087 C 141.911,142.334 154.096,142 181.059,142 C 181.059,142 220,142 220,142 C 220,142 220,102.5 220,102.5 C 220,102.5 220,63 220,63 C 220,63 180.25,62.921 180.25,62.921 C 158.387,62.878 140.95,62.652 141.5,62.421 C 142.05,62.19 159.825,61.888 181,61.75 C 181,61.75 219.5,61.5 219.5,61.5 C 219.5,61.5 220.022,30.5 220.022,30.5 C 220.309,13.45 220.73600000000002,-0.050000000000000044 220.972,0.5 C 221.208,1.05 221.423,5.325 221.452,10 C 221.481,14.675 221.616,28.287 221.752,40.25 C 221.752,40.25 222,62 222,62 C 222,62 251.25,62.227 251.25,62.227 C 251.25,62.227 280.5,62.454 280.5,62.454 C 280.5,62.454 251,62.977 251,62.977 C 234.775,63.26499999999999 221.75,64.25 221.75,64.25 C 221.75,64.25 222,78.977 222,96.059 C 222,120.64 222.261,126.961 223.25,126.367 C 223.979,125.929 223.874,126.402 223,127.5 C 222.175,128.536 222.032,129.06599999999997 222.681,128.676 C 223.33,128.286 224.15099999999998,128.435 224.505,129.008 C 224.859,129.58100000000002 224.555,129.92600000000002 223.829,129.775 C 222.9,129.582 222.354,131.22899999999998 221.985,135.345 C 221.22600000000003,143.801 220.351,144.241 205,143.887 C 198.125,143.728 180.912,143.689 166.75,143.799 C 166.75,143.799 141,144 141,144 C 141,144 141,183 141,183 C 141,183 141,222 141,222 C 141,222 180.5,222 180.5,222 C 206.167,222 220,222.35 220,223 C 220,223.55 220.54,224 221.2,224 C 222.13299999999998,224 222.13299999999998,223.733 221.2,222.8 C 219.47699999999998,221.077 219.47699999999998,144.923 221.2,143.2 C 222.59099999999998,141.809 280,141.428 280,142.81 C 280,142.81 266.865,143.657 250.812,143.703 C 250.812,143.703 221.624,143.787 221.624,143.787 C 221.624,143.787 221.382,156.644 221.382,156.644 C 221.249,163.715 221.39600000000002,181.349 221.71,195.831 C 221.71,195.831 222.281,222.161 222.281,222.161 C 222.281,222.161 234.015,221.831 234.015,221.831 C 242.94099999999997,221.57999999999998 245.636,221.792 245.279,222.719 C 244.957,223.55599999999998 241.216,224.02599999999998 233.351,224.219 C 233.351,224.219 221.893,224.5 221.893,224.5 C 221.893,224.5 221.381,234.982 221.381,234.982 C 221.1,240.74699999999999 220.435,245.899 220.435,245.899 C 220.435,245.899 220,241.309 220,235.167 Z&#10;M 107.168,260.004 C 107.35100000000001,259.18100000000004 108.16199999999999,257.98900000000003 108.972,257.355 C 110.49199999999999,256.165 111.194,248 109.777,248 C 109.777,248 109,247.31099999999998 109,246.468 C 109,244.61499999999998 104.787,242.802 103.861,244.256 C 103.509,244.808 101.822,245.054 100.111,244.803 C 98.4,244.552 97,245.138 97,245.138 C 97,245.138 96.079,246.422 94.954,247.024 C 93.071,248.032 93.01,247.958 94.177,246.089 C 97.09800000000001,241.412 105.182,240.944 109.702,245.19 C 113.103,248.385 112.95200000000001,255.758 109.418,259.076 C 107.76400000000001,260.629 106.95500000000001,260.963 107.168,260.004 Z&#10;M 135.725,255 C 136.06799999999998,249.689 135.75099999999998,246.19 134.64,243.014 C 133.49599999999998,239.74200000000002 133.37199999999999,238.25400000000002 134.183,237.514 C 134.97,236.79600000000002 135.128,236.976 134.725,238.128 C 134.412,239.023 134.629,240.22899999999998 135.207,240.807 C 136.698,242.298 137.399,254.83 136.226,259 C 135.432,261.822 135.335,261.046 135.725,255 Z&#10;M 95.104,258.465 C 92.93599999999999,255.99599999999998 92.024,253.961 92.08,251.715 C 92.155,248.731 92.247,248.823 93.361,253 C 94.021,255.475 95.083,257.39599999999996 95.72,257.27 C 96.357,257.144 97.153,257.90599999999995 97.489,258.965 C 97.934,260.368 99.238,260.993 102.3,261.27 C 102.3,261.27 106.5,261.651 106.5,261.651 C 106.5,261.651 102.354,261.825 102.354,261.825 C 98.755,261.977 97.798,261.53299999999996 95.104,258.465 Z&#10;M 125,277.937 C 125,277.387 125.672,276.679 126.494,276.364 C 127.316,276.049 127.518,275.029 127.518,275.029 C 127.518,275.029 127.89499999999998,273.49899999999997 128.932,272.561 C 129.969,271.623 131.363,269.538 132.03,267.928 C 133.199,265.10699999999997 135,263.937 135,266 C 135,266.55 134.55,267 134,267 C 133.45,267 133,267.65700000000004 133,268.461 C 133,269.265 131.988,270.86499999999995 130.75,272.018 C 129.512,273.171 128.444,274.538 128.375,275.057 C 128.306,275.576 128.125,276.893 128.125,276.893 C 127.948,278.16099999999994 125,279.146 125,277.937 Z&#10;M 220.185,271.05 C 220.083,264.20300000000003 220.34400000000002,259.028 220.764,259.55 C 221.184,260.07300000000004 221.26700000000002,265.675 220.949,272 C 220.949,272 220.371,283.5 220.371,283.5 C 220.371,283.5 220.185,271.05 220.185,271.05 Z&#10;M 139.105,258.75 C 139.184,245.412 139.58300000000003,232.25 139.991,229.5 C 140.424,226.58 140.788,236.665 140.866,253.75 C 140.954,273.046 140.653,283 139.98,283 C 139.31099999999998,283 139.01,274.655 139.105,258.75 Z&#10;M 82.5,281.337 C 77.678,279.614 74.959,277.104 74.738,274.173 C 74.648,272.978 73.787,272 73.787,272 C 73.787,272 73.002,271.438 73.003,270.75 C 73.004,270.062 74.69200000000001,271.391 76.753,273.701 C 78.814,276.011 82.251,279.04900000000004 84.39,280.451 C 88.711,283.283 88.379,283.438 82.5,281.337 Z&#10;M 59.031,236.5 C 59.048,207.10399999999998 59.415000000000006,190 60.029,190 C 60.617000000000004,190 61,196.316 61,206 C 61,206 61,222 61,222 C 61,222 71,222 71,222 C 77,222 81,222.4 81,223 C 81,223.6 77,224 71,224 C 71,224 61,224 61,224 C 61,224 61,253.5 61,253.5 C 61,272.455 60.643,283 60.002,283 C 59.352000000000004,283 59.013999999999996,266.78 59.031,236.5 Z" style="fill-opacity:1.0;fill:rgb(81, 17, 8)" /></g></g><g id="g_12"><use style="stroke:rgb(47, 8, 4);stroke-opacity:1.0;stroke-width:1.0;stroke-miterlimit:0.0;stroke-linecap:round;stroke-linejoin:round" xlink:href="#g_11" /><g id="g_11" style="fill-opacity:1.0;fill:rgb(47, 8, 4)" transform="matrix(1.0, 0.0, 0.0, 1.0, 0.0, 0.0)"><path d="M 173.804,188.085 C 172.90200000000002,187.031 172.669,185.664 172.669,185.664 C 172.669,185.664 172.01,184.397 170.587,183.465 C 169.128,182.50900000000001 168.006,180.84 168.015,179.635 C 168.028,177.89 168.208,177.774 169,179 C 169.788,180.219 169.973,180.09 169.985,178.309 C 169.99300000000002,177.10399999999998 170.457,175.835 171.016,175.49 C 171.575,175.145 171.731,174.37300000000002 171.362,173.776 C 170.981,173.15900000000002 171.152,172.976 171.76,173.352 C 172.34799999999998,173.715 172.981,173.577 173.165,173.045 C 173.349,172.51299999999998 175.386,171.84300000000002 177.691,171.556 C 181.247,171.113 182.162,171.39 183.731,173.385 C 185.2,175.25199999999998 185.469,176.829 185.04,181.042 C 184.575,185.611 184.084,186.59 181.5,188.1 C 177.552,190.408 175.79,190.405 173.804,188.085 Z&#10;M 221.821,35.75 C 221.576,21.311999999999998 221.565,7.568 221.797,5.208 C 221.797,5.208 222.218,0.917 222.218,0.917 C 222.218,0.917 227.359,1.394 227.359,1.394 C 230.187,1.656 243.188,1.899 256.25,1.935 C 256.25,1.935 280,2 280,2 C 280,2 280,32 280,32 C 280,32 280,62 280,62 C 280,62 251.134,62 251.134,62 C 251.134,62 222.267,62 222.267,62 C 222.267,62 221.821,35.75 221.821,35.75 Z&#10;M 57.293,84.011 C 57.007,82.917 56.014,82.491 56.014,82.491 C 56.014,82.491 53.956,81.732 52.368,80.23 C 50.78,78.72800000000001 48.36,76.692 46.99,75.704 C 45.620000000000005,74.716 45.062,74.18 45.75,74.513 C 46.438,74.846 47,74.593 47,73.952 C 47,73.286 46.302,73.053 45.373,73.41 C 44.477999999999994,73.753 43.168,73.554 42.461,72.967 C 41.754,72.38 39.448,71.72 37.337,71.501 C 35.226000000000006,71.28200000000001 32.021,70.801 30.213,70.432 C 26.685000000000002,69.71300000000001 11,72.77999999999999 11,74.189 C 11,74.189 10.325,75 9.5,75 C 8.675,75 8,75.829 8,75.829 C 8,75.829 7.038,76.62299999999999 5.862,76.579 C 4.523,76.529 3.617,77.184 3.439,78.328 C 2.967,81.357 2.12,83 1.031,83 C 0.3909999999999999,83 0,79.203 0,73 C 0,73 0,63 0,63 C 0,63 29.5,63 29.5,63 C 29.5,63 59,63 59,63 C 59,63 59,74.5 59,74.5 C 59,85.406 58.454,88.44999999999999 57.293,84.011 Z&#10;M 23.468,113.096 C 21.417,112.217 21.33,111.149 22.293,98.749 C 22.45,96.73299999999999 26.218,95.155 26.789,96.867 C 26.997,97.49000000000001 28.141,98.006 29.333,98.014 C 32.79,98.036 36.025999999999996,99.15 35.43,100.114 C 35.129,100.601 35.359,101 35.941,101 C 37.95,101 37.069,107.608 34.691,110.376 C 32.192,113.284 26.901,114.566 23.468,113.096 Z&#10;M 222,96.208 C 222,79.044 221.75,64.25 221.75,64.25 C 221.75,64.25 234.662,63.381 250.75,63.235 C 250.75,63.235 280,62.97 280,62.97 C 280,62.97 280,67.485 280,67.485 C 280,67.485 280,72 280,72 C 280,72 259.952,72 259.952,72 C 259.952,72 239.905,72 239.905,72 C 239.905,72 240.202,78.25 240.202,78.25 C 240.202,78.25 240.5,84.5 240.5,84.5 C 240.5,84.5 249.5,84.771 249.5,84.771 C 254.45,84.92 259.625,85.15 261,85.284 C 263.188,85.49600000000001 260.912,88.13900000000001 242.75,106.471 C 242.75,106.471 222,127.416 222,127.416 C 222,127.416 222,96.208 222,96.208 Z&#10;M 221.395,140.25 C 221.686,139.287 222.022,136.149 222.14,133.275 C 222.378,127.49000000000001 222.34400000000002,127.489 228.633,133.28 C 228.633,133.28 231.766,136.165 231.766,136.165 C 231.766,136.165 252.633,115.333 252.633,115.333 C 252.633,115.333 273.5,94.5 273.5,94.5 C 273.5,94.5 273.782,106.25 273.782,106.25 C 273.782,106.25 274.063,118 274.063,118 C 274.063,118 277.032,118 277.032,118 C 277.032,118 280,118 280,118 C 280,118 280,130 280,130 C 280,130 280,142 280,142 C 280,142 250.433,142 250.433,142 C 222.738,142 220.899,141.889 221.395,140.25 Z&#10;M 186.013,138.484 C 186.942,137.364 187.102,134.295 186.622,126.734 C 186.26500000000001,121.10499999999999 186.345,115.934 186.8,115.242 C 187.578,114.06 195.999,113.20400000000001 208.292,113.057 C 208.292,113.057 213.084,113 213.084,113 C 213.084,113 212.792,105.25 212.792,105.25 C 212.792,105.25 212.5,97.5 212.5,97.5 C 212.5,97.5 199.132,97.22 199.132,97.22 C 199.132,97.22 185.764,96.94 185.764,96.94 C 185.764,96.94 186.482,85.443 186.482,85.443 C 187.353,71.503 187.091,71 178.959,71 C 169.649,71 170,70.467 170,84.607 C 170,84.607 170,97 170,97 C 170,97 157.7,97 157.7,97 C 149.46699999999998,97 145.003,97.397 144.2,98.2 C 142.57399999999998,99.82600000000001 142.615,111.636 144.25,112.681 C 144.938,113.11999999999999 150.9,113.484 157.5,113.49 C 157.5,113.49 169.5,113.5 169.5,113.5 C 169.5,113.5 169.747,124.5 169.747,124.5 C 170.11100000000002,140.715 169.73499999999999,140 177.897,140 C 182.80499999999998,140 185.113,139.56900000000002 186.013,138.484 Z&#10;M 141,102.5 C 141,102.5 141,63 141,63 C 141,63 180.5,63 180.5,63 C 180.5,63 220,63 220,63 C 220,63 220,102.5 220,102.5 C 220,102.5 220,142 220,142 C 220,142 180.5,142 180.5,142 C 180.5,142 141,142 141,142 C 141,142 141,102.5 141,102.5 Z&#10;M 93.063,53.438 C 93.063,53.438 104.655,41.875 104.655,41.875 C 104.655,41.875 115.346,52.086 115.346,52.086 C 121.226,57.702 125.702,62.631 125.702,62.631 C 125.702,62.631 124.048,62.588 122.434,62.126 C 120.82,61.663999999999994 112.075,61.599 103,61.982 C 103,61.982 86.5,62.678 86.5,62.678 C 86.5,62.678 105.083,62.839 105.083,62.839 C 115.304,62.927 123.976,63.309 124.354,63.687 C 126.204,65.53699999999999 129.745,64.541 133.25,61.185 C 135.312,59.21 137,57.129999999999995 137,56.562 C 137,55.994 131.82399999999998,50.341 125.499,43.999 C 125.499,43.999 113.999,32.469 113.999,32.469 C 113.999,32.469 125.499,21.001 125.499,21.001 C 131.82399999999998,14.694 137,8.68 137,8.68 C 137,7.087 130.56799999999998,1 128.885,1 C 127.96399999999998,1 122.187,6.029000000000001 116.047,12.175 C 116.047,12.175 104.883,23.351 104.883,23.351 C 104.883,23.351 93.676,12.175 93.676,12.175 C 87.512,6.029000000000001 81.64,1 80.628,1 C 79.616,1 77.874,2.162 76.756,3.583 C 75.638,5.0040000000000004 73.891,6.474 72.873,6.851 C 71.32900000000001,7.422 73.008,9.548 83.011,19.683 C 89.60499999999999,26.364 94.993,32.665 94.993,32.665 C 94.993,32.665 91.72699999999999,36.728 87.743,40.674 C 83.759,44.62 78.513,49.888 76.084,52.381 C 76.084,52.381 71.669,56.913 71.669,56.913 C 71.669,56.913 75.584,60.874 75.584,60.874 C 77.738,63.052 79.943,64.871 80.485,64.917 C 81.027,64.96300000000001 86.687,59.797000000000004 93.063,53.438 Z&#10;M 122.052,98 C 122.59400000000001,98 123,102.921 123,109.5 C 123,109.5 123,121 123,121 C 123,121 129.518,121 129.518,121 C 129.518,121 136.037,121 136.037,121 C 136.037,121 135.768,97.75 135.768,97.75 C 135.768,97.75 135.5,74.5 135.5,74.5 C 135.5,74.5 112.25,74.232 112.25,74.232 C 112.25,74.232 89,73.963 89,73.963 C 89,73.963 88.998,80.732 88.998,80.732 C 88.998,80.732 88.996,87.5 88.996,87.5 C 88.996,87.5 99.631,87.183 99.631,87.183 C 105.52,87.007 110.69200000000001,87.292 111.221,87.821 C 111.827,88.42699999999999 104.648,96.26400000000001 91.548,109.296 C 91.548,109.296 70.921,129.816 70.921,129.816 C 70.921,129.816 75.711,134.395 75.711,134.395 C 75.711,134.395 80.5,138.975 80.5,138.975 C 80.5,138.975 100.802,118.487 100.802,118.487 C 111.968,107.219 121.531,98 122.052,98 Z&#10;M 61,130.941 C 61,122.75200000000001 60.696,120.07000000000001 59.83,120.605 C 59.009,121.11200000000001 58.885999999999996,120.757 59.419,119.414 C 61.446,114.304 62.192,102.622 61.105,93 C 60.888,91.075 60.775,83.537 60.855,76.25 C 60.855,76.25 61,63 61,63 C 61,63 67.417,63 67.417,63 C 70.946,63 74.25,63.75 74.25,63.75 C 74.25,63.75 74.59400000000001,64.05 74.504,63.5 C 74.414,62.95 71.339,62.367 67.67,62.204 C 67.67,62.204 61,61.909 61,61.909 C 61,61.909 61,31.454 61,31.454 C 61,11.818000000000001 60.645,1 60,1 C 59.355,1 59,11.795000000000002 59,31.385 C 59,31.385 59,61.77 59,61.77 C 59,61.77 29.5,61.866 29.5,61.866 C 29.5,61.866 0,61.963 0,61.963 C 0,61.963 0,31.677 0,31.677 C 0,31.677 0,1.391 0,1.391 C 0,1.391 12.074,1.821 12.074,1.821 C 20.228,2.112 24.514,1.886 25.274,1.126 C 26.093,0.30699999999999994 52.78699999999999,0 123.214,0 C 123.214,0 220.029,0 220.029,0 C 220.029,0 219.764,30.75 219.764,30.75 C 219.764,30.75 219.5,61.5 219.5,61.5 C 219.5,61.5 180.25,61.752 180.25,61.752 C 180.25,61.752 141,62.003 141,62.003 C 141,62.003 140.884,31.252 140.884,31.252 C 140.82,14.338999999999999 140.596,1.175 140.387,2 C 140.178,2.825 139.892,16.546 139.753,32.491 C 139.753,32.491 139.5,61.482 139.5,61.482 C 139.5,61.482 136.5,62.123 136.5,62.123 C 136.5,62.123 133.5,62.763 133.5,62.763 C 133.5,62.763 136.842,62.882 136.842,62.882 C 136.842,62.882 140.184,63 140.184,63 C 140.184,63 139.842,102.5 139.842,102.5 C 139.842,102.5 139.5,141.999 139.5,141.999 C 139.5,141.999 100.25,142 100.25,142 C 100.25,142 61,142 61,142 C 61,142 61,130.941 61,130.941 Z&#10;M 0,135 C 0,130.05 0.3550000000000001,128.073 1.211,128.25 C 2.527,128.522 2.6629999999999994,128.612 8.385,133.01 C 10.522,134.652 14.122000000000002,136.446 16.385,136.998 C 18.648000000000003,137.54999999999998 21.881,138.451 23.569,139 C 25.662,139.681 28.526000000000003,139.647 32.569,138.893 C 35.831,138.285 39.4,137.664 40.5,137.512 C 43.75,137.064 46.028000000000006,135.85500000000002 45.435,134.895 C 45.131,134.40300000000002 45.617999999999995,134 46.519,134 C 48.048,134 53.233,129.107 57.25,123.873 C 58.951,121.656 59,121.878 59,131.797 C 59,131.797 59,142 59,142 C 59,142 29.5,142 29.5,142 C 29.5,142 0,142 0,142 C 0,142 0,135 0,135 Z&#10;M 0,158.035 C 0,158.035 0,144 0,144 C 0,144 29.5,144 29.5,144 C 29.5,144 59,144 59,144 C 59,144 59,158 59,158 C 59,158 59,172 59,172 C 59,172 51.75,171.989 51.75,171.989 C 47.763,171.983 42.826,171.701 40.779,171.363 C 40.779,171.363 37.058,170.748 37.058,170.748 C 37.058,170.748 36.779,158.124 36.779,158.124 C 36.779,158.124 36.5,145.5 36.5,145.5 C 36.5,145.5 29,145.5 29,145.5 C 29,145.5 21.5,145.5 21.5,145.5 C 21.5,145.5 21,158.5 21,158.5 C 21,158.5 20.5,171.5 20.5,171.5 C 20.5,171.5 10.25,171.785 10.25,171.785 C 10.25,171.785 0,172.07 0,172.07 C 0,172.07 0,158.035 0,158.035 Z&#10;M 274.435,187.75 C 272.245,185.412 269.44,182.33399999999997 268.201,180.908 C 268.201,180.908 265.948,178.315 265.948,178.315 C 265.948,178.315 270.374,173.908 270.374,173.908 C 272.80800000000005,171.48399999999998 275.96999999999997,168.409 277.4,167.076 C 277.4,167.076 280,164.651 280,164.651 C 280,164.651 280,178.326 280,178.326 C 280,185.84699999999998 279.208,192 279.208,192 C 279.208,192 276.625,190.088 274.435,187.75 Z&#10;M 221.71,195.831 C 221.39600000000002,181.349 221.249,163.717 221.382,156.649 C 221.382,156.649 221.624,143.798 221.624,143.798 C 221.624,143.798 250.279,143.699 250.279,143.699 C 266.039,143.645 279.25600000000003,143.922 279.649,144.315 C 280.322,144.988 263.224,163.32899999999998 258.164,167.361 C 258.164,167.361 255.829,169.223 255.829,169.223 C 255.829,169.223 244.292,157.611 244.292,157.611 C 237.947,151.225 232.086,146 232.086,146 C 232.086,146 229.523,147.93 227.208,150.288 C 222.978,154.598 221.922,157 224.258,157 C 224.95000000000002,157 230.351,161.861 236.259,167.803 C 236.259,167.803 247.001,178.606 247.001,178.606 C 247.001,178.606 235,190.458 235,190.458 C 228.4,196.977 223,202.905 223,202.905 C 223,202.905 225.181,205.37699999999998 227.845,207.671 C 227.845,207.671 232.688,211.843 232.688,211.843 C 232.688,211.843 244.505,199.995 244.505,199.995 C 244.505,199.995 256.321,188.148 256.321,188.148 C 256.321,188.148 268.161,199.824 268.161,199.824 C 268.161,199.824 280,211.5 280,211.5 C 280,211.5 280,216.75 280,216.75 C 280,216.75 280,222 280,222 C 280,222 270.469,222 270.469,222 C 263.73,222 260.796,221.631 260.454,220.741 C 260.087,219.78400000000002 258.234,219.676 252.736,220.289 C 248.756,220.73299999999998 240.27599999999998,221.33499999999998 233.891,221.628 C 233.891,221.628 222.281,222.161 222.281,222.161 C 222.281,222.161 221.71,195.831 221.71,195.831 Z&#10;M 188.391,212.875 C 191.201,212.194 194.833,210.482 196.462,209.069 C 198.62699999999998,207.191 199.05200000000002,207.038 198.044,208.5 C 197.28500000000003,209.6 199.441,207.607 202.833,204.07 C 206.225,200.533 209,197.13600000000002 209,196.52 C 209,195.904 209.502,194.898 210.115,194.285 C 210.80700000000002,193.593 211.231,188.78 211.231,181.612 C 211.231,171.81799999999998 210.91,169.441 209.131,166.028 C 207.976,163.813 207.494,162 207.494,162 C 208.863,162 196.894,150.826 193.5,148.935 C 188.129,145.943 172.089,144.95299999999997 166.916,147.295 C 165.037,148.14499999999998 162.48000000000002,149.134 161.234,149.493 C 158.255,150.35 149.63899999999998,159.15699999999998 147.218,163.82 C 140.285,177.171 142.811,194.137 153.216,204.113 C 160.25900000000001,210.865 166.754,213.675 175.881,213.917 C 179.952,214.025 185.581,213.556 188.391,212.875 Z&#10;M 141,183 C 141,183 141,144 141,144 C 141,144 166.75,143.84 166.75,143.84 C 180.912,143.752 198.686,143.639 206.246,143.59 C 206.246,143.59 219.992,143.5 219.992,143.5 C 219.992,143.5 219.996,182.75 219.996,182.75 C 219.996,182.75 220,222 220,222 C 220,222 180.5,222 180.5,222 C 180.5,222 141,222 141,222 C 141,222 141,183 141,183 Z&#10;M 260.418,246.083 C 260.418,246.083 260,240.791 260,234.833 C 260,234.833 260,224 260,224 C 260,224 270,224 270,224 C 270,224 280,224 280,224 C 280,224 280,235.253 280,235.253 C 280,235.253 280,246.505 280,246.505 C 280,246.505 270.418,246.503 270.418,246.503 C 265.148,246.50199999999998 260.418,246.083 260.418,246.083 Z&#10;M 221.851,245.903 C 221.267,245.545 221.079,241.148 221.383,234.903 C 221.383,234.903 221.89,224.5 221.89,224.5 C 221.89,224.5 233.947,224 233.947,224 C 233.947,224 246.004,223.5 246.004,223.5 C 246.004,223.5 246.118,229.5 246.118,229.5 C 246.18,232.8 246.291,237.975 246.365,241 C 246.365,241 246.5,246.5 246.5,246.5 C 246.5,246.5 234.662,246.5 234.662,246.5 C 228.151,246.5 222.386,246.231 221.851,245.903 Z&#10;M 97.512,259.037 C 97.151,257.90099999999995 96.437,257.23 95.926,257.546 C 94.866,258.20099999999996 93,253.9 93,250.8 C 93,247.67200000000003 97.01400000000001,244.43900000000002 100.412,244.83 C 101.991,245.012 103.55600000000001,244.731 103.891,244.206 C 104.79100000000001,242.795 109,244.659 109,246.468 C 109,247.31099999999998 109.777,248 109.777,248 C 111.273,248 110.483,256.174 108.873,257.351 C 108.009,257.983 107.34599999999999,258.95 107.401,259.5 C 107.456,260.05 105.4,260.635 102.834,260.801 C 98.85300000000001,261.058 98.071,260.799 97.512,259.037 Z&#10;M 98.249,193.25 C 100.452,190.912 102.753,189 103.362,189 C 103.97099999999999,189 109.66499999999999,194.181 116.014,200.513 C 116.014,200.513 127.557,212.027 127.557,212.027 C 127.557,212.027 132,207.5 132,207.5 C 132,207.5 136.442,202.974 136.442,202.974 C 136.442,202.974 124.487,190.987 124.487,190.987 C 124.487,190.987 112.531,179 112.531,179 C 112.531,179 124.501,166.999 124.501,166.999 C 124.501,166.999 136.471,154.998 136.471,154.998 C 136.471,154.998 131.971,150.498 131.971,150.498 C 131.971,150.498 127.471,145.998 127.471,145.998 C 127.471,145.998 115.501,157.999 115.501,157.999 C 115.501,157.999 103.53,170.001 103.53,170.001 C 103.53,170.001 91.487,157.987 91.487,157.987 C 91.487,157.987 79.443,145.972 79.443,145.972 C 79.443,145.972 75.001,150.499 75.001,150.499 C 75.001,150.499 70.558,155.026 70.558,155.026 C 70.558,155.026 82.513,167.013 82.513,167.013 C 82.513,167.013 94.469,179 94.469,179 C 94.469,179 82.513,190.987 82.513,190.987 C 82.513,190.987 70.558,202.974 70.558,202.974 C 70.558,202.974 74.996,207.496 74.996,207.496 C 74.996,207.496 79.434,212.018 79.434,212.018 C 79.434,212.018 86.839,204.759 86.839,204.759 C 90.911,200.766 96.04599999999999,195.588 98.249,193.25 Z&#10;M 26.686,266.25 C 26.686,266.25 42.5,250.5 42.5,250.5 C 42.5,250.5 42.781,262.166 42.781,262.166 C 42.781,262.166 43.062,273.832 43.062,273.832 C 43.062,273.832 49.533,274.166 49.533,274.166 C 49.533,274.166 56.004,274.5 56.004,274.5 C 56.004,274.5 56.002,251.25 56.002,251.25 C 56.002,251.25 56,228 56,228 C 56,228 33.5,228 33.5,228 C 21.125,228 10.25,227.75 10.25,227.75 C 10.25,227.75 9.353,228.85 9.173,230.5 C 8.993,232.15 8.431000000000001,233.928 7.923,234.45 C 7.415,234.97199999999998 7,236.048 7,236.84 C 7,239.776 10.011999999999999,240.57 20.232,240.328 C 25.789,240.196 30.909,240.409 31.611,240.802 C 32.473,241.284 27.720000000000002,246.675 16.981,257.394 C 2.681000000000001,271.668 1.1820000000000002,273.485 2.132,275.386 C 3.406,277.93600000000004 8.038,281.988 9.686,281.995 C 10.338,281.998 17.988,274.913 26.686,266.25 Z&#10;M 0,255 C 0,255 0,224 0,224 C 0,224 29.5,224 29.5,224 C 29.5,224 59,224 59,224 C 59,224 59,253.5 59,253.5 C 59,272.5 59.356,283 60,283 C 60.644,283 61,272.5 61,253.5 C 61,253.5 61,224 61,224 C 61,224 71,224 71,224 C 77,224 81,223.6 81,223 C 81,222.4 77,222 71,222 C 71,222 61,222 61,222 C 61,222 61,206 61,206 C 61,196 60.625,190 60,190 C 59.375,190 59,196 59,206 C 59,206 59,222 59,222 C 59,222 29.5,222 29.5,222 C 29.5,222 0,222 0,222 C 0,222 0,204.5 0,204.5 C 0,204.5 0,187 0,187 C 0,187 5.3,187 5.3,187 C 8.215,187 11.028,187.42 11.55,187.933 C 12.072000000000001,188.446 14.3,189.009 16.5,189.183 C 16.5,189.183 20.5,189.5 20.5,189.5 C 20.5,189.5 20.603,202 20.603,202 C 20.603,202 20.707,214.5 20.707,214.5 C 20.707,214.5 27.103,215.075 27.103,215.075 C 37.099000000000004,215.974 37,216.11599999999999 37,200.909 C 37,200.909 37,187.889 37,187.889 C 37,187.889 49.991,188.194 49.991,188.194 C 60.106,188.432 63.095,188.205 63.491,187.168 C 63.771,186.436 64,182.90699999999998 64,179.325 C 64,173.963 63.691,172.732 62.25,172.357 C 60.658,171.943 60.545,170.64 61,157.902 C 61,157.902 61.5,143.903 61.5,143.903 C 61.5,143.903 100.5,143.938 100.5,143.938 C 100.5,143.938 139.5,143.973 139.5,143.973 C 139.5,143.973 139.5,183.109 139.5,183.109 C 139.5,183.109 139.5,222.245 139.5,222.245 C 139.5,222.245 130.224,221.761 130.224,221.761 C 125.12199999999999,221.494 120.488,222.02 120.488,222.02 C 120.488,222.02 118.33399999999999,221.93 116.264,220.911 C 110.797,218.221 102.059,217.479 93.926,219.014 C 90.117,219.733 87,220.945 87,220.945 C 87,220.945 85.537,222.423 83.75,223.467 C 78.149,226.738 74.991,230.282 71.692,237 C 68.85499999999999,242.778 68.502,244.444 68.52,252 C 68.536,258.791 69.029,261.606 70.968,266 C 72.303,269.025 73.947,272 73.947,272 C 73.947,272 74.653,273.4 74.84,274.5 C 75.952,281.036 83.45599999999999,283.16200000000003 104.582,282.925 C 113.589,282.824 120.71600000000001,282.34999999999997 120.42,281.871 C 119.931,281.08 121.354,280.583 123.25,280.882 C 123.25,280.882 124,280.325 124,279.5 C 124,278.675 124.75,278.118 124.75,278.118 C 126.653,278.418 127.834,277.876 128.382,276.448 C 128.778,275.41499999999996 128.564,275.12 127.739,275.565 C 127.058,275.933 127.962,274.809 129.75,273.067 C 131.537,271.325 133,269.24600000000004 133,268.449 C 133,267.652 133.47,267 134.044,267 C 134.61800000000002,267 134.989,266.438 134.869,265.75 C 134.749,265.062 135.228,262.475 135.936,260 C 137.369,254.988 136.89499999999998,242.49499999999998 135.207,240.807 C 134.629,240.22899999999998 134.423,239.062 134.748,238.214 C 135.137,237.201 134.938,236.92000000000002 134.17,237.395 C 133.463,237.83200000000002 133,237.486 133,236.522 C 133,235.644 130.345,232.196 127.099,228.858 C 121.44800000000001,223.047 121.32600000000001,222.815 124.224,223.395 C 125.88900000000001,223.728 130.034,224 133.438,224 C 133.438,224 139.627,224 139.627,224 C 139.627,224 139.197,253.5 139.197,253.5 C 138.887,274.803 139.07799999999997,283 139.884,283 C 140.68099999999998,283 141,274.481 141,253.25 C 141,253.25 140.999,223.5 140.999,223.5 C 140.999,223.5 180.5,223.773 180.5,223.773 C 180.5,223.773 220,224.045 220,224.045 C 220,224.045 220.208,253.773 220.208,253.773 C 220.322,270.123 220.546,279.225 220.706,274 C 221.172,258.803 220.043,260 233.912,260 C 243.817,260 245.887,260.263 246.393,261.582 C 246.727,262.452 247,267.627 247,273.082 C 247,273.082 247,283 247,283 C 247,283 253.467,283 253.467,283 C 253.467,283 259.934,283 259.934,283 C 259.934,283 260.217,271.75 260.217,271.75 C 260.217,271.75 260.5,260.5 260.5,260.5 C 260.5,260.5 270.25,260.214 270.25,260.214 C 270.25,260.214 280,259.928 280,259.928 C 280,259.928 280,272.964 280,272.964 C 280,272.964 280,286 280,286 C 280,286 140,286 140,286 C 140,286 0,286 0,286 C 0,286 0,255 0,255 Z" style="fill-opacity:1.0;fill:rgb(47, 8, 4)" /></g></g></g></svg>